<ttFont>
<head>
    <!-- Most of this table will be recalculated by the compiler -->
    <tableVersion value="1.0"/>
    <fontRevision value="1.0"/>
    <checkSumAdjustment value="0x9acfb2fd"/>
    <magicNumber value="0x5f0f3cf5"/>
    <flags value="00000000 00000011"/>
    <unitsPerEm value="2048"/>
    <created value="Thu Aug 15 19:17:32 2019"/>
    <modified value="Fri Aug 16 02:18:54 2019"/>
    <xMin value="-469"/>
    <yMin value="-535"/>
    <xMax value="3361"/>
    <yMax value="2008"/>
<macStyle value="00000000 00000011"/>
    <lowestRecPPEM value="3"/>
    <fontDirectionHint value="2"/>
    <indexToLocFormat value="0"/>
    <glyphDataFormat value="0"/>
  </head>
          <CharString index="0">
            150 125 99 182 56 vhcurveto
            -3 -11 -10 -59 -9 vvcurveto
            -135 -15 60 -63 118 hhcurveto
            return
          </CharString>
          <CharString index="1">
            rmoveto
            -229 113 -142 169 return
          </CharString>
          <CharString index="2">
            -265 263 -392 -477 -325 -371 -460 -2 return
          </CharString>
          <CharString index="3">
            rmoveto
            477 327 372 460 392 return
          </CharString>
          <CharString index="4">
            rmoveto
            -29 callsubr
            37 callsubr
            endchar
          </CharString>
          <CharString index="5">
            33 callsubr
            endchar
          </CharString>
          <CharString index="6">
            154 callsubr
            endchar
          </CharString>
          <CharString index="7">
            rmoveto
            354 230 260 321 265 117 callsubr
            71 callsubr
            165 callsubr
            endchar
          </CharString>
          <CharString index="8">
            -224 -47 85 118 callsubr
            -3 -10 -13 -70 -9 vvcurveto
            -135 -15 61 -63 120 hhcurveto
            return
          </CharString>
          <CharString index="9">
            rmoveto
            -1055 hlineto
            -39 callsubr
            -14 callsubr
            -70 callsubr
            26 callsubr
            -27 callsubr
            endchar
          </CharString>
          <CharString index="10">
            rmoveto
            -446 -51 -78 callgsubr
            return
          </CharString>
          <CharString index="11">
            34 callsubr
            endchar
          </CharString>
          <CharString index="12">
            rmoveto
            346 202 223 346 77 hvcurveto
            137 606 42 185 23 37 124 21 rlinecurve
            10 49 -376 0 -11 -49 rlineto
            123 -23 12 -36 -35 -184 -118 -596 rcurveline
            -287 -57 -162 97 callsubr
            20 117 21 rlinecurve
            10 49 -599 0 8 callgsubr
            endchar
          </CharString>
          <CharString index="13">
            117 115 56 75 54 hvcurveto
            -19 callsubr
            -48 -22 31 72 15 hvcurveto
            17 callsubr
            endchar
          </CharString>
          <CharString index="14">
            rmoveto
            -2 callsubr
            0 callsubr
            45 callsubr
            endchar
          </CharString>
          <CharString index="15">
            -69 callsubr
            51 -15 rlineto
            48 -16 11 -20 return
          </CharString>
          <CharString index="16">
            1818 14 callsubr
            return
          </CharString>
          <CharString index="17">
            -12 -58 -120 36 callsubr
            endchar
          </CharString>
          <CharString index="18">
            1545 rmoveto
            76 61 59 73 70 return
          </CharString>
          <CharString index="19">
            rmoveto
            83 66 63 77 hvcurveto
            74 -1 return
          </CharString>
          <CharString index="20">
            -170 -799 314 0 return
          </CharString>
          <CharString index="21">
            141 184 -141 53 0 -131 288 return
          </CharString>
          <CharString index="22">
            -54 54 -72 -76 -62 -59 -74 -69 55 -54 72 hvcurveto
            return
          </CharString>
          <CharString index="23">
            rmoveto
            -77 -61 -59 -73 -70 54 -55 72 return
          </CharString>
          <CharString index="24">
            1478 rmoveto
            -216 -376 62 0 493 369 rlineto
            7 vlineto
            return
          </CharString>
          <CharString index="25">
            -68 -65 -82 -76 60 -60 80 hvcurveto
            return
          </CharString>
          <CharString index="26">
            rmoveto
            -399 -49 -9 -49 43 -10 52 -16 12 -17 7 -58 rlinecurve
            108 -933 -116 -103 -204 -137 -131 -79 rlinecurve
            -15 298 vlineto
            70 107 73 96 78 98 rrcurveto
            71 84 80 97 64 81 274 350 136 258 -2 146 -2 97 -67 62 -89 0 -85 -1 -68 -63 1 -87 3 -84 66 -65 83 1 19 0 18 3 17 5 -45 -155 -115 -188 -175 -233 rrcurveto
            endchar
          </CharString>
          <CharString index="27">
            rmoveto
            551 hlineto
            33 154 rlineto
            -551 hlineto
            endchar
          </CharString>
          <CharString index="28">
            52 -15 48 -16 11 -20 -13 -58 rlinecurve
            return
          </CharString>
          <CharString index="29">
            1832 -76 callgsubr
            return
          </CharString>
          <CharString index="30">
            -168 0 -248 -288 rlineto
            return
          </CharString>
          <CharString index="31">
            104 422 rlineto
            -45 hlineto
            return
          </CharString>
          <CharString index="32">
            rmoveto
            174 -535 -101 -477 -19 -89 -25 -23 -130 -18 rlinecurve
            -11 -49 637 0 10 -56 callgsubr
            387 512 130 175 39 33 100 17 rlinecurve
            10 148 callsubr
            29 -28 52 -161 rlinecurve
            endchar
          </CharString>
          <CharString index="33">
            rmoveto
            56 -58 119 155 55 -38 rlineto
            -89 129 72 -27 97 hhcurveto
            145 return
          </CharString>
          <CharString index="34">
            48 -17 11 -20 -13 -58 rlinecurve
            -274 -1287 return
          </CharString>
          <CharString index="35">
            1478 rmoveto
            -217 -376 return
          </CharString>
          <CharString index="36">
            1529 rmoveto
            254 return
          </CharString>
          <CharString index="37">
            -117 -19 rlinecurve
            -10 -49 return
          </CharString>
          <CharString index="38">
            rmoveto
            -446 -50 -10 -47 return
          </CharString>
          <CharString index="39">
            -19 -93 -25 -21 -112 -17 rlinecurve
            -10 -49 601 0 10 49 -107 18 -17 20 20 94 rlinecurve
            230 1082 20 93 25 21 116 18 rlinecurve
            11 49 -603 0 -10 -49 104 -17 16 -20 -20 -94 rlinecurve
            -105 -494 -539 0 105 494 19 92 25 21 112 18 rlinecurve
            11 49 -602 0 -11 -49 108 -19 17 -20 -20 -93 rlinecurve
            -230 -1082 -20 -92 -24 -21 -70 callsubr
            return
          </CharString>
          <CharString index="40">
            -438 -50 -11 -47 -79 callsubr
            return
          </CharString>
          <CharString index="41">
            196 -189 58 0 -132 376 return
          </CharString>
          <CharString index="42">
            -177 -93 rlinecurve
            15 -45 336 83 return
          </CharString>
          <CharString index="43">
            -184 0 -287 -376 rlineto
            return
          </CharString>
          <CharString index="44">
            1104 rmoveto
            287 189 return
          </CharString>
          <CharString index="45">
            323 hmoveto
            68 55 54 66 return
          </CharString>
          <CharString index="46">
            rmoveto
            59 55 37 53 11 hvcurveto
            52 11 -39 38 -58 hhcurveto
            -10 hlineto
            -58 -55 -38 -52 return
          </CharString>
          <CharString index="47">
            142 97 202 97 hvcurveto
            -34 29 -45 -74 -52 -30 -59 1 rlinecurve
            return
          </CharString>
          <CharString index="48">
            rmoveto
            -77 -60 -59 -73 -70 54 -55 72 -20 callsubr
          </CharString>
          <CharString index="49">
            -378 64 125 callsubr
            172 callsubr
            return
          </CharString>
          <CharString index="50">
            -159 -752 -57 -267 -48 -119 return
          </CharString>
          <CharString index="51">
            77 61 59 74 69 -54 55 -72 hvcurveto
            endchar
          </CharString>
          <CharString index="52">
            180 140 66 311 rlinecurve
            endchar
          </CharString>
          <CharString index="53">
            63 0 493 369 rlineto
            7 vlineto
            return
          </CharString>
          <CharString index="54">
            -94 -76 -73 -91 -85 67 -68 90 hvcurveto
            return
          </CharString>
          <CharString index="55">
            173 0 247 287 rlineto
            return
          </CharString>
          <CharString index="56">
            1 hvcurveto
            64 -49 50 -64 -68 return
          </CharString>
          <CharString index="57">
            rmoveto
            -130 81 -116 170 -46 vhcurveto
            -187 -27 -90 -83 -106 vvcurveto
            -85 60 -67 114 -32 vhcurveto
            -216 -22 -120 -73 -105 vvcurveto
            -138 199 -87 287 301 232 129 204 149 -99 102 -218 39 vhcurveto
            -175 32 -93 16 -29 30 -1 36 rlinecurve
            35 28 30 59 12 vhcurveto
            -6 36 39 -3 42 hhcurveto
            301 -2 177 161 204 vvcurveto
            81 -30 77 -67 56 vhcurveto
            233 -30 19 92 -331 -13 rlineto
            28 -62 -81 17 -100 hhcurveto
            -300 -179 -153 -206 hvcurveto
            299 -66 rmoveto
            161 64 208 118 79 41 -73 -116 -165 -64 -205 -119 -79 -40 73 117 vhcurveto
            -254 -806 rmoveto
            82 54 60 105 25 vhcurveto
            169 -29 rlineto
            151 -28 49 -48 -74 vvcurveto
            -100 -109 -72 -160 -156 -103 78 106 vhcurveto
            endchar
          </CharString>
          <CharString index="58">
            rmoveto
            446 217 407 312 190 113 -140 -283 8 vhcurveto
            45 -2 66 373 rlineto
            63 -91 -180 60 -213 hhcurveto
            -480 -350 -321 -495 -4 hvcurveto
            return
          </CharString>
          <CharString index="59">
            770 70 callsubr
            rlineto
            48 -17 11 -20 -12 -58 105 callsubr
            return
          </CharString>
          <CharString index="60">
            149 94 76 108 107 -85 68 -122 -3 -4 0 -1 -5 hvcurveto
            return
          </CharString>
          <CharString index="61">
            hvcurveto
            64 1 -49 50 -64 hhcurveto
            -68 -56 -54 -67 -63 48 -50 65 hvcurveto
            return
          </CharString>
          <CharString index="62">
            rmoveto
            184 140 83 134 22 hvcurveto
            -57 hlineto
            -52 -18 -107 -34 return
          </CharString>
          <CharString index="63">
            1476 rmoveto
            -316 -7 hlineto
            335 -369 rlineto
            57 hlineto
            return
          </CharString>
          <CharString index="64">
            93 72 108 106 -82 62 -95 -78 -67 callgsubr
            52 return
          </CharString>
          <CharString index="65">
            315 0 134 632 rlineto
            92 callsubr
            return
          </CharString>
          <CharString index="66">
            1138 rmoveto
            94 75 73 90 87 -67 67 -89 return
          </CharString>
          <CharString index="67">
            43 -241 183 -40 0 -318 -183 rlineto
            return
          </CharString>
          <CharString index="68">
            -11 -49 108 -19 16 -19 -20 -93 rlinecurve
            return
          </CharString>
          <CharString index="69">
            hmoveto
            84 68 65 81 77 -60 60 -80 -84 return
          </CharString>
          <CharString index="70">
            -16 callsubr
            -195 189 return
          </CharString>
          <CharString index="71">
            1557 rmoveto
            68 55 54 66 return
          </CharString>
          <CharString index="72">
            1146 57 callgsubr
            return
          </CharString>
          <CharString index="73">
            174 0 247 287 rlineto
            return
          </CharString>
          <CharString index="74">
            rmoveto
            -445 -43 -10 -48 52 -14 return
          </CharString>
          <CharString index="75">
            rmoveto
            -401 -49 -10 -49 44 -10 rlineto
            52 -16 13 -17 5 -55 66 -817 rcurveline
            197 hlineto
            164 217 122 220 57 170 40 -607 rcurveline
            195 hlineto
            292 326 249 347 186 vvcurveto
            99 -67 62 -88 -86 -69 -61 -88 -84 65 -66 83 16 16 2 4 15 vhcurveto
            -56 -175 -132 -197 -153 -181 rrcurveto
            -50 837 -294 -45 9 -138 1 -178 -116 -242 -126 -208 rlinecurve
            endchar
          </CharString>
          <CharString index="76">
            rmoveto
            -449 -3 337 -225 343 hhcurveto
            161 207 41 88 123 hvcurveto
            89 414 18 86 23 24 106 18 rlinecurve
            11 49 -554 0 -10 -49 rlineto
            114 -18 13 -22 -18 -88 -90 -433 rcurveline
            -27 -33 -64 -14 -64 hhcurveto
            -201 -141 180 317 446 218 407 315 192 114 -140 -283 9 hvcurveto
            44 -2 66 373 rlineto
            63 68 callgsubr
            endchar
          </CharString>
          <CharString index="77">
            rmoveto
            213 1000 19 92 24 21 116 18 rlinecurve
            11 49 -604 0 -11 -49 108 -18 15 -20 -19 -93 rlinecurve
            -209 -983 -71 -335 -91 -156 -231 -144 rlinecurve
            13 -41 413 147 return
          </CharString>
          <CharString index="78">
            -148 1191 -222 0 -642 -1165 -104 -188 -38 -33 -100 -16 rlinecurve
            -11 -49 392 0 10 49 -130 21 -17 38 91 176 rlinecurve
            110 212 431 0 24 -234 return
          </CharString>
          <CharString index="79">
            1328 1562 1444 rmoveto
            -1185 hlineto
            -97 -390 rlineto
            45 hlineto
            57 callsubr
            110 callsubr
            134 callsubr
            100 callsubr
            return
          </CharString>
          <CharString index="80">
            -18 callgsubr
            -61 -153 -44 -47 -130 -6 rrcurveto
            -179 -4 131 620 172 -8 246 -13 52 -63 15 -249 rlinecurve
            44 hlineto
            return
          </CharString>
          <CharString index="81">
            rmoveto
            266 170 183 -170 54 0 -125 339 -171 0 -265 -339 rlineto
            endchar
          </CharString>
          <CharString index="82">
            113 454 rlineto
            -46 hlineto
            -116 -275 -124 -102 -237 -13 rrcurveto
            -157 -7 return
          </CharString>
          <CharString index="83">
            1600 rmoveto
            534 hlineto
            31 146 rlineto
            -534 hlineto
            return
          </CharString>
          <CharString index="84">
            1631 820 35 callsubr
            return
          </CharString>
          <CharString index="85">
            793 1444 146 callsubr
            return
          </CharString>
          <CharString index="86">
            96 272 -96 11 -57 callgsubr
            return
          </CharString>
          <CharString index="87">
            76 62 59 74 69 -55 55 -72 hvcurveto
            endchar
          </CharString>
          <CharString index="88">
            11 51 rlineto
            -22 -27 -38 -13 -33 hhcurveto
            return
          </CharString>
          <CharString index="89">
            -84 -69 -65 -82 -76 61 -60 80 hvcurveto
            return
          </CharString>
          <CharString index="90">
            1818 rmoveto
            -186 -289 return
          </CharString>
          <CharString index="91">
            1501 rmoveto
            -287 -189 return
          </CharString>
          <CharString index="92">
            1476 rmoveto
            -289 -5 hlineto
            return
          </CharString>
          <CharString index="93">
            -230 -1084 -20 -92 -23 -20 return
          </CharString>
          <CharString index="94">
            44 61 13 hvcurveto
            62 14 -40 45 return
          </CharString>
          <CharString index="95">
            -633 -224 -10 -49 rlineto
            return
          </CharString>
          <CharString index="96">
            180 52 callsubr
            return
          </CharString>
          <CharString index="97">
            rmoveto
            113 528 99 -1 241 -707 408 0 10 47 -54 24 -32 36 -75 214 rlinecurve
            -217 642 246 218 164 141 76 50 111 23 rlinecurve
            10 49 -424 0 -10 -49 123 -19 0 -51 -130 -128 rlinecurve
            -435 -427 -98 -1 105 495 19 92 24 21 110 18 rlinecurve
            10 49 -598 0 -11 -49 109 -19 15 75 callsubr
            -92 callgsubr
            -10 -49 597 0 11 49 -102 17 -16 21 20 93 rlinecurve
            endchar
          </CharString>
          <CharString index="98">
            rmoveto
            116 -1192 206 0 562 1127 95 -1127 213 0 588 1155 103 203 45 28 99 16 rlinecurve
            10 49 -386 0 -11 -49 121 -15 12 -42 -85 -184 rlinecurve
            -398 -846 -59 872 -12 167 18 30 115 18 rlinecurve
            11 49 -595 0 -11 -49 117 -18 11 -65 -70 -149 rlinecurve
            -399 -854 -62 873 -10 151 24 45 121 17 rlinecurve
            11 49 -621 0 -11 -49 82 -14 34 -30 16 -166 rlinecurve
            endchar
          </CharString>
          <CharString index="99">
            256 1207 20 92 25 20 120 19 rlinecurve
            11 49 -610 0 -11 -49 rlineto
            106 -17 17 -28 -23 -110 -226 -1060 rcurveline
            -19 -91 -23 -21 -117 -19 -11 -49 rcurveline
            return
          </CharString>
          <CharString index="100">
            -12 hvcurveto
            -53 -11 38 -37 59 hhcurveto
            333 hmoveto
            58 55 37 53 11 hvcurveto
            52 11 -38 38 -59 hhcurveto
            -10 hlineto
            -58 -55 -38 -52 -12 hvcurveto
            -53 -11 39 -37 59 hhcurveto
            return
          </CharString>
          <CharString index="101">
            rmoveto
            165 145 79 96 62 hvcurveto
            10 51 rlineto
            141 callsubr
            -279 185 -148 220 hvcurveto
            endchar
          </CharString>
          <CharString index="102">
            rmoveto
            83 67 63 77 -1 hvcurveto
            74 -60 57 -79 -83 -67 -62 -78 vhcurveto
            -73 1 60 -58 79 hhcurveto
            endchar
          </CharString>
          <CharString index="103">
            56 callsubr
            -211 -8 977 41 callsubr
            -85 callgsubr
            endchar
          </CharString>
          <CharString index="104">
            171 351 -106 callsubr
            return
          </CharString>
          <CharString index="105">
            230 1084 20 92 23 20 117 19 rlinecurve
            10 49 -604 0 -11 -49 return
          </CharString>
          <CharString index="106">
            rmoveto
            -438 -90 callgsubr
            -87 callsubr
            151 callsubr
            endchar
          </CharString>
          <CharString index="107">
            108 -16 16 -22 -20 -93 rlinecurve
            -231 -1084 -92 callgsubr
            return
          </CharString>
          <CharString index="108">
            1183 1103 hmoveto
            -25 callsubr
            -8 callsubr
            return
          </CharString>
          <CharString index="109">
            -49 -28 52 119 -1 hvcurveto
            265 -1 81 244 97 hhcurveto
            49 return
          </CharString>
          <CharString index="110">
            -60 57 -78 hhcurveto
            -84 -67 -62 -78 1 hvcurveto
            -73 60 -58 80 vhcurveto
            endchar
          </CharString>
          <CharString index="111">
            -454 -3 327 -220 352 hhcurveto
            153 callsubr
          </CharString>
          <CharString index="112">
            1155 rmoveto
            84 68 65 81 77 -60 60 -80 -84 return
          </CharString>
          <CharString index="113">
            hlineto
            -61 -59 -45 -62 -14 hvcurveto
            -61 -13 40 -44 62 hhcurveto
            return
          </CharString>
          <CharString index="114">
            1216 664 1006 -97 callsubr
            return
          </CharString>
          <CharString index="115">
            -57 -143 hhcurveto
            -113 -78 53 74 7 0 8 return
          </CharString>
          <CharString index="116">
            rmoveto
            154 92 72 108 106 -82 62 -94 -78 return
          </CharString>
          <CharString index="117">
            1146 rmoveto
            89 72 69 86 83 -64 63 return
          </CharString>
          <CharString index="118">
            rmoveto
            585 hlineto
            29 136 rlineto
            -585 hlineto
            return
          </CharString>
          <CharString index="119">
            -196 189 -58 124 callsubr
            return
          </CharString>
          <CharString index="120">
            60 callsubr
            61 -58 79 vhcurveto
            endchar
          </CharString>
          <CharString index="121">
            rmoveto
            -185 -289 -99 callgsubr
            return
          </CharString>
          <CharString index="122">
            -63 callsubr
            195 -189 return
          </CharString>
          <CharString index="123">
            232 176 72 336 rlinecurve
            endchar
          </CharString>
          <CharString index="124">
            166 772 166 callsubr
            return
          </CharString>
          <CharString index="125">
            rmoveto
            61 59 44 61 13 hvcurveto
            62 13 return
          </CharString>
          <CharString index="126">
            88 117 114 -117 68 return
          </CharString>
          <CharString index="127">
            65 84 vvcurveto
            77 -69 54 -96 vhcurveto
            return
          </CharString>
          <CharString index="128">
            39 -44 62 hhcurveto
            349 hmoveto
            62 return
          </CharString>
          <CharString index="129">
            -23 -20 -117 -19 -10 -49 rcurveline
            return
          </CharString>
          <CharString index="130">
            -55 -54 -67 -1 vhcurveto
            -63 49 -50 return
          </CharString>
          <CharString index="131">
            1478 rmoveto
            37 173 return
          </CharString>
          <CharString index="132">
            -133 -69 callsubr
            return
          </CharString>
          <CharString index="133">
            1109 -61 callgsubr
            return
          </CharString>
          <CharString index="134">
            39 -44 61 hhcurveto
            350 hmoveto
            return
          </CharString>
          <CharString index="135">
            23 callsubr
            65 vhcurveto
            return
          </CharString>
          <CharString index="136">
            rmoveto
            -151 -184 -53 -37 -108 -19 rrcurveto
            -10 -49 399 0 11 49 -125 22 1 42 121 163 rlinecurve
            259 345 140 -396 40 -110 -14 -42 -116 -23 rlinecurve
            -10 -49 630 0 10 49 -79 27 -30 29 -49 139 rlinecurve
            -189 535 313 378 148 181 54 37 107 19 rlinecurve
            11 49 -399 0 -10 -49 125 -22 0 -42 -122 -163 rlinecurve
            -247 -330 -135 382 -43 118 18 36 114 21 rlinecurve
            11 49 -635 0 -11 -49 rlineto
            86 -25 29 -31 49 -139 184 -521 rcurveline
            endchar
          </CharString>
          <CharString index="137">
            382 hlineto
            9 47 rlineto
            -57 21 -35 45 -66 190 -135 395 rcurveline
            208 59 148 120 202 vvcurveto
            232 -197 133 -383 vhcurveto
            -555 hlineto
            -10 -49 108 -17 17 -20 -20 -92 rlinecurve
            -231 -1088 -20 -91 -23 -21 -117 -17 rlinecurve
            -11 -49 600 0 10 49 rlineto
            -102 17 -15 21 20 93 101 475 rcurveline
            120 hlineto
            12 12 0 11 hhcurveto
            329 435 rmoveto
            -209 -138 -154 -256 -13 vhcurveto
            -78 -3 143 675 69 -2 rlineto
            164 -7 96 -111 -176 vvcurveto
            return
          </CharString>
          <CharString index="138">
            rmoveto
            -486 hlineto
            -10 -49 108 -20 20 -43 -31 -126 rlinecurve
            -221 -901 -48 -193 -30 -44 -123 -19 rlinecurve
            -11 -49 381 0 11 49 -122 19 -12 39 43 198 rlinecurve
            200 920 161 -1225 166 0 196 392 460 860 -191 -1075 -16 -89 -26 -21 -118 -18 rlinecurve
            -10 -49 603 0 10 49 -109 18 -13 20 16 90 rlinecurve
            196 1090 16 87 24 22 116 19 rlinecurve
            10 49 -503 0 -523 -1043 rlineto
            endchar
          </CharString>
          <CharString index="139">
            11 49 rlineto
            -124 17 -18 25 19 88 84 391 rcurveline
            149 hlineto
            398 307 156 309 233 -167 176 -422 hvcurveto
            -555 hlineto
            -10 -49 rlineto
            109 -17 16 -22 -20 -91 -230 -1086 rcurveline
            -21 -90 -23 -23 -118 -17 -10 -49 rcurveline
            769 1387 rmoveto
            65 -3 rlineto
            173 -8 90 -121 -178 vvcurveto
            -261 -159 -174 -249 -12 vhcurveto
            -80 -3 rlineto
            endchar
          </CharString>
          <CharString index="140">
            121 113 56 75 55 hvcurveto
            10 51 rlineto
            -22 -26 -38 -97 callgsubr
            163 760 -189 0 -128 -110 rlineto
            65 -22 -80 64 -135 hhcurveto
            -310 -209 -305 -357 hvcurveto
            321 -36 rmoveto
            245 1 93 356 194 hhcurveto
            63 42 -33 -41 12 hvcurveto
            -105 -492 rlineto
            -149 -37 -76 -86 -77 hhcurveto
            -69 -41 56 144 hvcurveto
            return
          </CharString>
          <CharString index="141">
            rmoveto
            167 142 78 97 64 hvcurveto
            10 51 rlineto
            149 callsubr
            -276 185 -149 214 vhcurveto
            158 971 rmoveto
            59 23 -40 -64 -136 -29 callgsubr
            233 11 88 221 135 hhcurveto
            return
          </CharString>
          <CharString index="142">
            rmoveto
            390 -1 -301 234 -443 hhcurveto
            -529 -95 callgsubr
            -93 -231 -1084 rcurveline
            -19 -92 22 callsubr
            543 hlineto
            589 449 318 502 hvcurveto
            return
          </CharString>
          <CharString index="143">
            -562 rcurveline
            -175 -38 64 -78 138 hhcurveto
            121 115 56 75 55 hvcurveto
            10 51 rlineto
            -22 -26 -39 -13 -32 hhcurveto
            -48 -22 31 72 16 hvcurveto
            return
          </CharString>
          <CharString index="144">
            15 -147 -29 -47 -131 -18 rlinecurve
            -10 -50 638 0 -35 callgsubr
            -773 306 rmoveto
            325 626 63 -626 rlineto
            return
          </CharString>
          <CharString index="145">
            1188 170 351 -106 callsubr
            -72 callgsubr
            return
          </CharString>
          <CharString index="146">
            rmoveto
            -446 -50 -78 callgsubr
            -224 -46 84 118 callsubr
            189 callsubr
            endchar
          </CharString>
          <CharString index="147">
            rmoveto
            -391 -3 267 -263 394 hhcurveto
            73 callsubr
            193 callsubr
            endchar
          </CharString>
          <CharString index="148">
            1340 10 47 -1044 0 -97 -390 rlineto
            45 hlineto
            114 240 return
          </CharString>
          <CharString index="149">
            -8 -41 rlineto
            2 4 21 3 11 hhcurveto
            58 36 -28 -45 -45 -37 -27 -61 return
          </CharString>
          <CharString index="150">
            rmoveto
            -478 -102 267 -178 317 hhcurveto
            188 callsubr
            endchar
          </CharString>
          <CharString index="151">
            -184 -117 -87 -117 vhcurveto
            189 -37 rmoveto
            101 49 90 return
          </CharString>
          <CharString index="152">
            -10 -49 604 0 11 49 -108 19 -16 19 20 93 rlinecurve
            return
          </CharString>
          <CharString index="153">
            -93 34 52 4 hvcurveto
            -57 hlineto
            -134 -36 106 -83 184 hhcurveto
            return
          </CharString>
          <CharString index="154">
            1197 rmoveto
            593 hlineto
            36 171 rlineto
            -592 hlineto
            return
          </CharString>
          <CharString index="155">
            1197 rmoveto
            592 hlineto
            37 171 rlineto
            -593 hlineto
            return
          </CharString>
          <CharString index="156">
            224 47 -91 114 -190 -28 callgsubr
            return
          </CharString>
          <CharString index="157">
            1566 rmoveto
            194 103 63 callsubr
            return
          </CharString>
          <CharString index="158">
            rmoveto
            71 callsubr
            180 callsubr
            endchar
          </CharString>
          <CharString index="159">
            rmoveto
            112 527 540 0 -112 -527 return
          </CharString>
          <CharString index="160">
            rmoveto
            108 81 72 140 28 hvcurveto
            -55 hlineto
            -57 return
          </CharString>
          <CharString index="161">
            rmoveto
            61 59 -13 callsubr
            -62 hhcurveto
            -10 hlineto
            return
          </CharString>
          <CharString index="162">
            1133 rmoveto
            210 111 callgsubr
            return
          </CharString>
          <CharString index="163">
            -112 -269 -132 -75 -297 -13 rrcurveto
            return
          </CharString>
          <CharString index="164">
            98 226 94 86 231 19 rrcurveto
            40 2 return
          </CharString>
          <CharString index="165">
            51 -15 rlineto
            48 -16 11 -20 -12 -58 -120 return
          </CharString>
          <CharString index="166">
            -33 -63 -101 -48 -89 -61 -43 -25 32 63 vhcurveto
            return
          </CharString>
          <CharString index="167">
            -59 57 -79 hhcurveto
            -83 -68 -62 -78 1 hvcurveto
            -73 return
          </CharString>
          <CharString index="168">
            rmoveto
            600 hlineto
            25 115 rlineto
            -600 hlineto
            return
          </CharString>
          <CharString index="169">
            714 450 -17 90 callsubr
            return
          </CharString>
          <CharString index="170">
            135 184 4 hvcurveto
            -48 hlineto
            -91 -18 return
          </CharString>
          <CharString index="171">
            30 45 16 49 hhcurveto
            71 39 -32 -53 -56 return
          </CharString>
          <CharString index="172">
            7 hvcurveto
            -48 hlineto
            -11 -28 -7 -33 -33 vvcurveto
            return
          </CharString>
          <CharString index="173">
            0 -132 376 -64 callsubr
            return
          </CharString>
          <CharString index="174">
            -8 -41 rlineto
            2 5 21 3 10 hhcurveto
            59 return
          </CharString>
          <CharString index="175">
            -39 45 -62 hhcurveto
            -10 hlineto
            -62 -59 -45 -62 return
          </CharString>
          <CharString index="176">
            1155 rmoveto
            84 67 65 81 77 return
          </CharString>
          <CharString index="177">
            1487 -33 callsubr
            return
          </CharString>
          <CharString index="178">
            -265 178 -188 266 return
          </CharString>
          <CharString index="179">
            -125 1 96 -101 152 hhcurveto
            return
          </CharString>
          <CharString index="180">
            476 327 371 460 return
          </CharString>
          <CharString index="181">
            40 61 5 hvcurveto
            -55 hlineto
            -158 return
          </CharString>
          <CharString index="182">
            -19 -19 -93 rlinecurve
            -231 -1084 return
          </CharString>
          <CharString index="183">
            -61 -59 -45 -62 -13 hvcurveto
            -61 -13 return
          </CharString>
          <CharString index="184">
            rmoveto
            -80 57 -61 84 93 62 58 187 95 vhcurveto
            62 114 33 -104 rlineto
            -171 57 68 -83 132 hhcurveto
            116 91 58 78 41 hvcurveto
            10 51 rlineto
            -21 -21 -30 -12 -32 hhcurveto
            -54 -41 38 121 -39 hvcurveto
            -96 296 84 140 28 48 23 37 22 29 rlinecurve
            -65 11 56 -50 70 hhcurveto
            80 61 63 79 80 -56 61 -85 -92 -63 -59 -186 -95 hvcurveto
            -63 -120 -116 357 -379 -48 -9 -49 46 -9 54 -15 15 -18 21 -62 rlinecurve
            132 -406 -81 -136 -28 -47 -24 -37 -21 -29 rlinecurve
            66 -11 -56 49 -70 hhcurveto
            -80 -62 -63 -79 hvcurveto
            endchar
          </CharString>
          <CharString index="185">
            rmoveto
            324 253 176 281 159 -74 122 -171 118 hvcurveto
            -107 79 rlineto
            -124 87 -48 74 99 vvcurveto
            134 101 91 151 179 107 -139 -269 11 vhcurveto
            44 hlineto
            60 367 rlineto
            59 -79 -152 52 -191 hhcurveto
            -345 -212 -182 -259 -162 77 -112 166 -116 hvcurveto
            107 -78 rlineto
            128 -90 46 -79 -108 vvcurveto
            -149 -120 -86 -150 -181 -150 124 286 1 vhcurveto
            -45 hlineto
            -62 -381 rlineto
            -54 90 187 -44 179 hhcurveto
            return
          </CharString>
          <CharString index="186">
            rmoveto
            287 267 260 386 71 hvcurveto
            249 43 -84 138 -146 hhcurveto
            -114 -78 -109 -138 12 hvcurveto
            178 -31 60 -138 -34 -176 rrcurveto
            -183 -36 -106 -115 -139 hhcurveto
            -132 -53 86 155 33 hvcurveto
            13 65 57 235 11 54 rrcurveto
            204 44 -70 84 -173 hhcurveto
            -95 -92 -31 -38 -52 hvcurveto
            -10 -48 rlineto
            9 15 18 3 19 hhcurveto
            67 26 -43 -118 -25 hvcurveto
            -14 -67 -62 -260 -12 -62 rrcurveto
            -227 -49 103 -144 252 hhcurveto
            endchar
          </CharString>
          <CharString index="187">
            rmoveto
            -52 64 133 -45 136 hhcurveto
            283 165 144 188 1 hvcurveto
            127 -57 86 -116 74 vhcurveto
            -87 57 -83 54 -34 46 1 67 rlinecurve
            78 51 50 95 138 69 -117 -156 3 vhcurveto
            45 hlineto
            49 259 rlineto
            40 -59 -110 36 -135 hhcurveto
            -269 -165 -127 -189 -122 65 -87 115 -73 hvcurveto
            86 -57 rlineto
            84 -55 27 -50 -70 vvcurveto
            -89 -68 -51 -94 -137 -100 106 201 -2 vhcurveto
            -44 hlineto
            return
          </CharString>
          <CharString index="188">
            1653 934 -23 rmoveto
            421 351 332 474 376 -295 309 -385 -430 -341 -332 -474 -377 285 -308 394 hvcurveto
            -1 44 rmoveto
            -361 -266 291 350 447 323 315 397 353 275 -291 -350 -448 -332 -314 -389 hvcurveto
            return
          </CharString>
          <CharString index="189">
            1479 782 -23 rmoveto
            346 202 223 346 77 hvcurveto
            137 606 42 185 23 37 124 21 rlinecurve
            10 49 -376 0 -11 -49 rlineto
            123 -23 12 -36 -35 -184 -118 -596 rcurveline
            -287 -57 -162 97 callsubr
            20 117 21 rlinecurve
            10 49 -599 0 8 callgsubr
            return
          </CharString>
          <CharString index="190">
            -156 hhcurveto
            -124 -85 60 84 9 1 8 1 95 callgsubr
            167 vhcurveto
            return
          </CharString>
          <CharString index="191">
            rmoveto
            171 -140 144 -280 19 vhcurveto
            248 14 244 91 2 231 rrcurveto
            200 1 -193 127 -381 hhcurveto
            -553 -95 callgsubr
            -94 -231 -1083 rcurveline
            -19 -92 22 callsubr
            194 callsubr
            endchar
          </CharString>
          <CharString index="192">
            rmoveto
            -137 -698 rlineto
            -210 -41 82 -106 182 hhcurveto
            142 124 74 76 70 hvcurveto
            10 48 rlineto
            -29 -37 -54 -10 -49 hhcurveto
            -97 -49 49 140 32 hvcurveto
            24 101 107 417 41 148 rrcurveto
            endchar
          </CharString>
          <CharString index="193">
            -13 -33 -23 -50 hhcurveto
            -29 -29 8 14 -39 -89 callgsubr
            -49 hhcurveto
            -107 -83 -73 -139 -27 hvcurveto
            56 hlineto
            57 13 32 22 50 hhcurveto
            29 30 -8 -13 38 hvcurveto
            33 -12 rlineto
            -16 43 43 -12 50 hhcurveto
            return
          </CharString>
          <CharString index="194">
            717 1445 rmoveto
            -71 hlineto
            -267 -100 -7 -35 110 17 5 227 callsubr
            -84 -11 rlinecurve
            -7 -34 408 0 7 34 -79 10 -20 14 12 54 rlinecurve
            return
          </CharString>
          <CharString index="195">
            571 686 rmoveto
            262 116 240 199 172 -93 160 -186 -259 -117 -235 -204 hvcurveto
            -174 -1 95 -158 183 hhcurveto
            return
          </CharString>
          <CharString index="196">
            -11 hvcurveto
            -53 -12 39 -37 58 hhcurveto
            333 hmoveto
            59 54 37 53 11 hvcurveto
            52 12 -39 38 -58 hhcurveto
            -11 hlineto
            -58 -55 -38 -52 -12 hvcurveto
            -53 -10 39 -37 58 hhcurveto
            endchar
          </CharString>
          <CharString index="197">
            rmoveto
            127 125 57 91 52 callgsubr
            124 583 160 callsubr
            -117 -555 rlineto
            -225 -47 90 -122 187 hhcurveto
            return
          </CharString>
          <CharString index="198">
            rmoveto
            237 10 186 150 204 -66 callgsubr
            85 -12 59 -42 -78 vvcurveto
            -98 -97 -69 -110 -11 vhcurveto
            endchar
          </CharString>
          <CharString index="199">
            149 36 99 98 90 -20 callgsubr
            -39 -13 -33 hhcurveto
            -48 -22 31 72 16 hvcurveto
            94 441 rlineto
            return
          </CharString>
          <CharString index="200">
            1226 671 1005 rmoveto
            -67 callsubr
            -87 callsubr
            145 callsubr
            return
          </CharString>
          <CharString index="201">
            1150 rmoveto
            100 81 71 242 30 hvcurveto
            -55 hlineto
            -102 -21 -31 -38 -48 hhcurveto
            -34 -28 14 27 return
          </CharString>
          <CharString index="202">
            59 44 61 12 hvcurveto
            62 14 -39 45 -62 hhcurveto
            -11 hlineto
            76 callsubr
            40 -44 61 hhcurveto
            endchar
          </CharString>
          <CharString index="203">
            rmoveto
            84 66 63 77 -1 hvcurveto
            74 -60 57 -79 -83 -67 -62 -78 1 vhcurveto
            -73 60 -58 79 vhcurveto
            endchar
          </CharString>
          <CharString index="204">
            -167 -219 hhcurveto
            -210 -133 139 345 73 hvcurveto
            143 673 20 95 25 return
          </CharString>
          <CharString index="205">
            -23 -45 -44 -41 -26 -63 -48 -40 18 21 -28 hvcurveto
            -10 -43 rlineto
            -54 40 71 -35 82 hhcurveto
            endchar
          </CharString>
          <CharString index="206">
            -371 rlineto
            61 hlineto
            321 376 rmoveto
            -278 -5 hlineto
            218 -371 rlineto
            57 hlineto
            return
          </CharString>
          <CharString index="207">
            91 rlinecurve
            257 1208 39 -2 218 -18 64 -78 3 -235 rlinecurve
            45 hlineto
            return
          </CharString>
          <CharString index="208">
            -50 -57 -104 -54 hvcurveto
            60 hlineto
            197 54 93 77 99 vvcurveto
            91 -78 65 -109 vhcurveto
            return
          </CharString>
          <CharString index="209">
            1478 rmoveto
            -129 -376 62 0 364 371 rlineto
            5 vlineto
            return
          </CharString>
          <CharString index="210">
            96 79 74 97 90 -72 72 -97 -96 -79 -73 -98 -90 72 -72 97 hvcurveto
            return
          </CharString>
          <CharString index="211">
            0 606 1478 rmoveto
            38 173 -633 -224 -11 -49 rlineto
            return
          </CharString>
          <CharString index="212">
            -225 -1050 rcurveline
            159 callsubr
            -47 -22 31 72 15 hvcurveto
            return
          </CharString>
          <CharString index="213">
            423 hmoveto
            84 67 65 81 77 -60 60 -79 -18 callsubr
            return
          </CharString>
          <CharString index="214">
            hhcurveto
            -35 -27 14 27 -38 hvcurveto
            -33 25 rlineto
            34 -48 -48 22 -60 hhcurveto
            return
          </CharString>
          <CharString index="215">
            1815 rmoveto
            -287 -5 hlineto
            316 -284 rlineto
            47 hlineto
            return
          </CharString>
          <CharString index="216">
            1476 rmoveto
            -317 -7 hlineto
            336 -369 rlineto
            57 hlineto
            return
          </CharString>
          <CharString index="217">
            -257 -1208 -19 -89 -26 -22 -132 -19 rlinecurve
            -11 -49 return
          </CharString>
          <CharString index="218">
            64 -48 50 -64 -69 -55 -54 -67 hvcurveto
            -63 -1 49 -50 65 hhcurveto
            return
          </CharString>
          <CharString index="219">
            rmoveto
            84 2 70 57 24 202 rrcurveto
            -49 hlineto
            -82 -17 -25 -30 return
          </CharString>
          <CharString index="220">
            -2444 rmoveto
            101 hlineto
            519 2444 rlineto
            -101 hlineto
            return
          </CharString>
          <CharString index="221">
            1600 rmoveto
            535 hlineto
            31 146 rlineto
            -535 hlineto
            return
          </CharString>
          <CharString index="222">
            1491 rmoveto
            -105 -80 -47 -85 -49 hvcurveto
            -9 -43 rlineto
            25 return
          </CharString>
          <CharString index="223">
            55 callsubr
            -157 hhcurveto
            -123 -86 60 84 9 return
          </CharString>
          <CharString index="224">
            -179 187 -266 -355 -228 -261 -319 return
          </CharString>
          <CharString index="225">
            -129 197 hhcurveto
            160 145 103 188 68 hvcurveto
            return
          </CharString>
          <CharString index="226">
            0 695 1859 rmoveto
            31 148 -640 -191 return
          </CharString>
          <CharString index="227">
            -50 hhcurveto
            -107 -82 -73 -139 -28 hvcurveto
            56 hlineto
            57 13 32 return
          </CharString>
          <CharString index="228">
            rmoveto
            313 96 273 -96 10 -57 callgsubr
            endchar
          </CharString>
          <CharString index="229">
            1291 rmoveto
            -114 117 -69 138 184 return
          </CharString>
          <CharString index="230">
            42 -23 -45 -44 -41 -26 -64 -48 -40 18 21 -28 hvcurveto
            return
          </CharString>
          <CharString index="231">
            0 132 -376 184 0 287 376 rlineto
            return
          </CharString>
          <CharString index="232">
            rmoveto
            -389 -214 -414 -438 -21 vhcurveto
            -67 -3 return
          </CharString>
          <CharString index="233">
            rmoveto
            317 82 283 -82 9 43 -242 183 return
          </CharString>
          <CharString index="234">
            1406 rmoveto
            109 81 72 140 28 hvcurveto
            return
          </CharString>
          <CharString index="235">
            1391 rmoveto
            62 59 44 62 13 hvcurveto
            62 13 return
          </CharString>
          <CharString index="236">
            -136 -184 -4 hvcurveto
            48 hlineto
            92 18 85 56 return
          </CharString>
          <CharString index="237">
            -68 -33 -53 -37 hvcurveto
            -10 -41 rlineto
            6 16 26 4 return
          </CharString>
          <CharString index="238">
            rmoveto
            -92 -70 -40 -69 -42 hvcurveto
            -8 -36 rlineto
            20 27 return
          </CharString>
          <CharString index="239">
            1142 964 -17 138 callsubr
            return
          </CharString>
          <CharString index="240">
            -137 hhcurveto
            -135 46 callsubr
            endchar
          </CharString>
          <CharString index="241">
            643 0 10 49 -125 20 -18 19 19 return
          </CharString>
          <CharString index="242">
            rmoveto
            -74 62 -58 75 78 63 60 73 62 -42 52 -56 15 vhcurveto
            18 41 48 10 51 hhcurveto
            187 51 -135 -183 -31 hvcurveto
            -12 -68 -172 -20 rlineto
            -321 -38 -147 -113 -174 vvcurveto
            -132 111 -94 164 168 129 89 240 50 vhcurveto
            -216 23 171 -113 183 hhcurveto
            166 135 76 96 67 hvcurveto
            10 51 rlineto
            -48 -47 -78 -39 -86 hhcurveto
            -162 -84 127 225 hvcurveto
            10 1 10 9 vvcurveto
            56 5 381 41 129 100 2 145 rlinecurve
            146 1 -141 79 -181 hhcurveto
            -128 -115 -45 -87 -98 hvcurveto
            88 -67 -104 44 -144 hhcurveto
            -229 -158 -99 -135 hvcurveto
            1035 172 rmoveto
            72 23 -75 -72 -4 hvcurveto
            -6 -112 -68 -115 -206 -25 -47 -5 rcurveline
            219 18 95 185 123 hhcurveto
            -858 -708 rmoveto
            114 80 105 178 29 vhcurveto
            71 9 -17 -101 rlineto
            -179 -33 -73 -103 -95 hhcurveto
            -65 -46 42 84 hvcurveto
            endchar
          </CharString>
          <CharString index="243">
            rmoveto
            -1001 hlineto
            -801 -1162 -127 -186 -50 -31 -98 -16 rlinecurve
            -10 -49 398 0 10 49 -130 20 -8 43 111 168 rlinecurve
            226 341 417 0 -86 -431 -20 -101 -19 -22 -135 -18 rlinecurve
            -10 -49 1098 0 104 422 rlineto
            -44 hlineto
            -107 -259 -111 -84 -259 -14 rrcurveto
            -183 -8 128 651 165 -3 122 -6 22 -49 -3 -163 rlinecurve
            43 hlineto
            99 490 rlineto
            -43 hlineto
            -58 -152 -43 -47 -126 -6 rrcurveto
            -166 -4 121 619 166 -9 244 -13 41 -63 16 -248 rlinecurve
            44 hlineto
            -913 329 rmoveto
            64 hlineto
            -137 -692 rlineto
            -385 hlineto
            endchar
          </CharString>
          <CharString index="244">
            1411 562 180 rmoveto
            113 528 99 -1 241 -707 408 0 10 47 -54 24 -32 36 -75 214 rlinecurve
            -217 642 246 218 164 141 76 50 111 23 rlinecurve
            10 49 -424 0 -10 -49 123 -19 0 -51 -130 -128 rlinecurve
            -435 -427 -98 -1 105 495 19 92 24 21 110 18 rlinecurve
            10 49 -598 0 -11 -49 109 -19 15 75 callsubr
            -92 callgsubr
            -10 -49 597 0 11 49 -102 17 -16 21 20 93 rlinecurve
            return
          </CharString>
          <CharString index="245">
            rmoveto
            114 88 59 76 40 hvcurveto
            10 51 rlineto
            -20 -19 -26 -12 -29 hhcurveto
            -49 -38 40 130 -44 hvcurveto
            -131 394 107 83 150 111 75 35 100 23 rlinecurve
            8 41 -420 0 -8 -41 119 -16 18 -39 -113 -97 rlinecurve
            -344 -295 209 981 -445 -43 -10 -48 52 -14 -73 callsubr
            314 0 95 443 73 58 75 -240 rlineto
            -186 55 72 -92 130 hhcurveto
            return
          </CharString>
          <CharString index="246">
            151 125 99 182 55 vhcurveto
            -2 -11 -10 -59 -9 vvcurveto
            -135 -15 61 -63 117 hhcurveto
            121 114 56 75 54 hvcurveto
            -19 callsubr
            -47 -22 31 72 16 hvcurveto
            265 1253 -445 -43 -10 -48 52 -14 rlineto
            48 -17 11 -20 -12 -58 -81 -382 rcurveline
            56 -25 -75 52 -122 hhcurveto
            -309 -210 -305 -357 hvcurveto
            return
          </CharString>
          <CharString index="247">
            -149 -123 -95 -177 -56 vhcurveto
            59 264 -440 -90 callgsubr
            -235 -1105 -14 -64 -20 -20 -106 -20 rlinecurve
            -10 -50 582 0 10 50 rlineto
            -125 22 -15 19 14 68 80 32 callgsubr
            -11 vhcurveto
            104 60 callgsubr
          </CharString>
          <CharString index="248">
            -54 -49 -86 -35 -79 hhcurveto
            -142 -107 104 226 262 115 230 189 40 37 -11 -19 30 hvcurveto
            -3 -3 0 -4 hhcurveto
            -77 -61 -61 -76 -77 61 -58 76 80 64 60 82 126 -107 108 -205 -316 -240 -255 -351 return
          </CharString>
          <CharString index="249">
            rmoveto
            93 74 64 218 27 hvcurveto
            -51 hlineto
            -92 -19 -29 -34 -44 -51 callgsubr
            -45 20 -55 hhcurveto
            -93 -75 -64 -215 -26 hvcurveto
            51 hlineto
            90 18 29 33 45 hhcurveto
            31 1 26 -13 36 -25 31 -21 rcurveline
            -31 44 45 -21 56 hhcurveto
            endchar
          </CharString>
          <CharString index="250">
            -203 -686 rmoveto
            87 hlineto
            1254 1444 rlineto
            -86 hlineto
            -1051 -712 -12 callgsubr
            833 -745 rmoveto
            262 115 240 200 88 callgsubr
            -175 94 -158 184 hvcurveto
            return
          </CharString>
          <CharString index="251">
            rmoveto
            107 82 72 140 27 hvcurveto
            -55 hlineto
            -57 -13 -32 -23 -50 hhcurveto
            -29 -30 8 14 -38 -89 callgsubr
            120 callsubr
            22 51 hhcurveto
            29 29 -8 -13 38 hvcurveto
            33 -12 rlineto
            -16 43 44 -12 50 hhcurveto
            endchar
          </CharString>
          <CharString index="252">
            134 629 rlineto
            146 35 93 104 97 -20 callgsubr
            -40 -13 -33 hhcurveto
            -47 -22 31 72 16 hvcurveto
            94 441 rlineto
            223 48 -93 115 -189 hhcurveto
            -168 -143 -103 -192 -67 hvcurveto
            return
          </CharString>
          <CharString index="253">
            rmoveto
            -456 hlineto
            -10 -49 109 -16 26 -65 -24 -107 rlinecurve
            -197 -895 -44 -200 -28 -44 -121 -18 rlinecurve
            -10 -50 379 0 10 50 -124 20 -13 36 39 207 callsubr
            return
          </CharString>
          <CharString index="254">
            rmoveto
            186 116 83 98 73 hvcurveto
            11 50 rlineto
            -68 -69 -103 -40 -109 hhcurveto
            -103 -65 47 79 81 38 51 123 48 hvcurveto
            55 22 rlineto
            180 64 109 80 176 vvcurveto
            168 return
          </CharString>
          <CharString index="255">
            49 -377 0 -10 -49 120 -17 9 -41 -115 -165 rlinecurve
            -308 -447 -134 473 -40 140 20 40 117 17 rlinecurve
            10 49 -628 0 -10 -49 84 -15 return
          </CharString>
          <CharString index="256">
            -53 -49 -83 -36 -83 hhcurveto
            -140 -104 97 230 -1 hvcurveto
            58 17 rlineto
            343 96 155 87 157 vvcurveto
            130 -121 82 -193 -321 -243 -265 -343 return
          </CharString>
          <CharString index="257">
            hlineto
            -94 -18 -87 -57 -145 hhcurveto
            -115 -80 54 76 -1 hvcurveto
            7 1 8 2 6 vhcurveto
            -51 hlineto
            -11 -28 -6 -33 -33 vvcurveto
            -128 1 98 -104 155 hhcurveto
            endchar
          </CharString>
          <CharString index="258">
            129 626 rlineto
            88 54 111 61 121 hhcurveto
            46 36 -7 -9 24 hvcurveto
            13 22 15 43 46 vvcurveto
            82 -35 57 -77 -101 -73 -92 -247 -128 vhcurveto
            return
          </CharString>
          <CharString index="259">
            12 58 -258 0 41 183 -319 -24 -34 -159 -142 0 -13 -58 143 0 -264 -1238 315 0 134 632 rlineto
            return
          </CharString>
          <CharString index="260">
            174 149 35 61 91 hvcurveto
            81 383 -46 -1 rlineto
            -241 -88 -163 -168 -176 hhcurveto
            -198 -133 205 292 hvcurveto
            endchar
          </CharString>
          <CharString index="261">
            hvcurveto
            -392 -3 267 -264 393 hhcurveto
            -26 69 rmoveto
            -169 -106 142 291 407 185 510 49 callgsubr
            return
          </CharString>
          <CharString index="262">
            1568 rmoveto
            85 2 69 57 24 202 rrcurveto
            -49 hlineto
            -82 -16 -26 -30 -39 hhcurveto
            -28 -24 11 22 -32 hvcurveto
            -27 19 rlineto
            28 -40 return
          </CharString>
          <CharString index="263">
            245 94 356 194 62 43 -33 -41 12 vhcurveto
            -105 -492 rlineto
            -149 -37 -76 -86 -78 hhcurveto
            -68 -41 56 144 hvcurveto
            return
          </CharString>
          <CharString index="264">
            789 hmoveto
            262 115 240 200 hvcurveto
            171 1 -93 160 -186 hhcurveto
            -260 -117 -234 -204 return
          </CharString>
          <CharString index="265">
            -84 -69 -59 -199 -25 hvcurveto
            49 hlineto
            81 16 26 30 39 hhcurveto
            29 24 -12 -22 31 hvcurveto
            27 -19 rlineto
            -27 41 return
          </CharString>
          <CharString index="266">
            -175 -37 63 -78 139 hhcurveto
            121 115 56 75 54 hvcurveto
            10 51 rlineto
            -22 -25 -39 -13 -33 hhcurveto
            return
          </CharString>
          <CharString index="267">
            233 -12 20 89 -240 -16 52 249 -325 -45 -41 -197 -129 -35 -9 -45 120 0 return
          </CharString>
          <CharString index="268">
            867 669 1005 rmoveto
            -438 -90 callgsubr
            -87 callsubr
            151 callsubr
            return
          </CharString>
          <CharString index="269">
            333 hmoveto
            58 55 38 52 11 hvcurveto
            53 11 -38 37 -59 hhcurveto
            -10 hlineto
            -58 -55 -37 -53 -12 hvcurveto
            -52 return
          </CharString>
          <CharString index="270">
            485 rmoveto
            241 -217 131 -335 2 vhcurveto
            -144 1 86 405 19 91 26 20 return
          </CharString>
          <CharString index="271">
            -72 -60 24 68 -114 hvcurveto
            -91 56 568 594 10 48 -80 callgsubr
            340 hlineto
            return
          </CharString>
          <CharString index="272">
            hvcurveto
            5 65 rmoveto
            -88 -47 82 169 1 hvcurveto
            42 callgsubr
            -93 -391 -169 hhcurveto
            return
          </CharString>
          <CharString index="273">
            -444 -52 -9 78 callgsubr
            -35 -84 -99 -98 hhcurveto
            -89 -26 68 116 25 hvcurveto
            return
          </CharString>
          <CharString index="274">
            449 1264 rmoveto
            -231 -1084 rlineto
            -19 -94 -25 -19 -115 -18 -10 -49 rcurveline
            return
          </CharString>
          <CharString index="275">
            78 -52 -74 -8 0 -8 -2 -6 hvcurveto
            49 hlineto
            10 27 7 33 32 vvcurveto
            125 -1 return
          </CharString>
          <CharString index="276">
            1474 rmoveto
            -211 -116 -152 -212 -7 hvcurveto
            35 callgsubr
            return
          </CharString>
          <CharString index="277">
            -71 -239 -31 hvcurveto
            56 hlineto
            101 20 31 36 48 hhcurveto
            34 96 callgsubr
            return
          </CharString>
          <CharString index="278">
            hhcurveto
            309 210 305 358 hvcurveto
            -322 36 rmoveto
            -244 -94 -358 return
          </CharString>
          <CharString index="279">
            283 1330 59 -3 rlineto
            251 -14 126 -212 -274 vvcurveto
            return
          </CharString>
          <CharString index="280">
            1506 rmoveto
            -110 -378 78 0 323 371 rlineto
            7 vlineto
            return
          </CharString>
          <CharString index="281">
            175 -53 149 -93 112 hvcurveto
            165 159 -42 42 -163 -157 rlineto
            111 -115 -163 64 -193 hhcurveto
            -478 -324 -371 -460 -2 hvcurveto
            -1 -175 52 -150 94 -111 rrcurveto
            -164 -159 42 -42 163 157 rlineto
            -112 115 163 -63 194 hhcurveto
            -301 501 rmoveto
            407 185 510 287 137 95 -93 -190 32 vhcurveto
            -734 -709 rlineto
            -1 24 -1 25 26 vvcurveto
            274 -433 rmoveto
            -136 -96 93 190 -31 hvcurveto
            733 709 rlineto
            2 -24 1 -25 -27 vvcurveto
            -432 -196 -484 -277 vhcurveto
            endchar
          </CharString>
          <CharString index="282">
            rmoveto
            -267 -32 127 -169 224 hhcurveto
            164 120 108 166 62 hvcurveto
            -167 -1 112 -107 170 hhcurveto
            303 209 290 330 34 hvcurveto
            260 28 -103 153 -148 hhcurveto
            -117 -77 -110 -140 15 hvcurveto
            169 -31 96 -131 -14 -193 rrcurveto
            -172 -12 -108 -127 -131 hhcurveto
            -139 -74 111 307 70 hvcurveto
            48 218 -270 0 -60 -287 rlineto
            -265 -56 -54 -84 -97 hhcurveto
            -107 -43 109 200 22 hvcurveto
            25 239 98 222 154 92 rrcurveto
            -23 36 -338 -51 -214 -248 -32 -292 rlinecurve
            endchar
          </CharString>
          <CharString index="283">
            rmoveto
            152 112 89 173 107 hvcurveto
            -187 13 65 -70 133 hhcurveto
            97 90 53 52 46 hvcurveto
            10 49 rlineto
            -12 -15 -31 -10 -27 hhcurveto
            -75 -42 24 222 -30 hvcurveto
            -16 122 316 508 rlineto
            -297 hlineto
            -15 -50 -39 -113 -40 -108 rrcurveto
            188 -34 -83 102 -181 hhcurveto
            -284 -203 -229 -337 -34 hvcurveto
            -296 -36 126 -170 215 hhcurveto
            29 512 rmoveto
            309 32 76 139 107 hhcurveto
            92 20 -103 -313 13 hvcurveto
            1 -166 rlineto
            -170 -79 -73 -75 -83 hhcurveto
            -97 -41 111 268 32 hvcurveto
            endchar
          </CharString>
          <CharString index="284">
            rmoveto
            236 194 94 153 103 hvcurveto
            9 51 rlineto
            -79 -76 -138 -55 -137 hhcurveto
            -140 -80 55 94 5 hvcurveto
            103 4 100 49 196 hhcurveto
            75 hlineto
            -20 199 rlineto
            -63 hlineto
            -196 -56 63 86 8 hvcurveto
            91 7 80 63 167 hhcurveto
            83 66 -14 -26 48 hvcurveto
            -62 -5 -47 -52 -66 vvcurveto
            -65 48 -54 80 68 55 53 75 109 -80 111 -303 -320 -175 -124 -167 -11 vhcurveto
            -10 -123 82 -92 170 -23 -211 -16 -126 -92 -9 -134 rrcurveto
            -162 -14 142 -100 248 hhcurveto
            endchar
          </CharString>
          <CharString index="285">
            rmoveto
            351 228 261 320 112 -33 99 -57 76 hvcurveto
            119 113 -39 42 -118 -112 rlineto
            76 -77 -108 44 -128 hhcurveto
            -353 -225 -263 -317 -115 33 -100 59 -76 hvcurveto
            -113 -107 39 -41 112 105 rlineto
            -74 77 106 -43 127 hhcurveto
            133 968 rmoveto
            85 48 -73 -154 4 hvcurveto
            -401 -378 rlineto
            260 10 93 345 161 hhcurveto
            -129 -905 rmoveto
            -83 -48 72 149 -5 hvcurveto
            401 377 rlineto
            -258 -12 -92 -340 -161 hhcurveto
            endchar
          </CharString>
          <CharString index="286">
            676 1246 rmoveto
            2 -113 -147 -30 -103 -9 -8 -38 rcurveline
            1 12 14 1 20 hhcurveto
            89 74 -50 -93 hvcurveto
            -106 2 -76 -71 -93 hhcurveto
            -38 -36 10 18 -28 hvcurveto
            38 5 28 31 38 vvcurveto
            42 -35 33 -44 -45 -34 -34 -42 -93 109 -60 119 173 158 90 156 -1 vhcurveto
            -1 89 -69 73 -119 22 113 12 120 56 -2 108 rrcurveto
            110 -114 54 -109 -121 -117 -59 -138 -46 vhcurveto
            28 -11 rlineto
            73 39 54 31 69 hhcurveto
            75 49 -44 -62 1 hvcurveto
            return
          </CharString>
          <CharString index="287">
            354 230 259 319 173 -81 141 -133 78 vhcurveto
            -13 48 58 -9 59 hhcurveto
            188 127 74 131 92 -61 79 -102 36 hvcurveto
            -43 hlineto
            9 -17 7 -32 -34 vvcurveto
            -146 -108 -118 -175 vhcurveto
            -77 -63 20 -93 hhcurveto
            -357 -231 -254 -326 hvcurveto
            315 -137 rmoveto
            42 callgsubr
            -92 -391 -170 hhcurveto
            -88 -47 82 169 1 hvcurveto
            return
          </CharString>
          <CharString index="288">
            rmoveto
            94 79 47 68 39 hvcurveto
            10 48 rlineto
            -16 -19 -25 -10 -27 hhcurveto
            -68 -44 73 96 54 18 55 28 43 hvcurveto
            336 15 217 253 312 vvcurveto
            265 117 callsubr
            -252 161 -182 244 -17 vhcurveto
            -142 -84 -73 -101 -100 vvcurveto
            -101 80 -73 120 vhcurveto
            59 522 rmoveto
            -88 -47 82 169 1 hvcurveto
            42 callgsubr
            -92 -391 -170 hhcurveto
            endchar
          </CharString>
          <CharString index="289">
            rmoveto
            -15 -81 -119 -32 -10 -46 117 0 -156 -958 -39 -235 -60 -88 -117 -1 rlinecurve
            45 18 33 45 54 vvcurveto
            70 -56 57 -68 -70 -58 -55 -74 -108 91 -82 133 239 197 161 562 94 vhcurveto
            111 647 226 -13 20 90 -238 -14 29 170 rlineto
            216 36 63 77 99 hhcurveto
            6 7 0 -1 6 hvcurveto
            -47 -18 -33 -46 -55 vvcurveto
            -71 57 -56 69 71 58 57 72 113 -107 82 -170 -218 -168 -150 -307 -58 vhcurveto
            endchar
          </CharString>
          <CharString index="290">
            135 631 rlineto
            144 34 86 104 92 hhcurveto
            80 25 -68 -102 -21 hvcurveto
            -151 -709 314 0 132 625 rlineto
            146 35 85 108 93 hhcurveto
            79 26 -68 -105 -22 hvcurveto
            -101 -469 rlineto
            159 callsubr
            -48 -22 31 72 16 hvcurveto
            95 442 rlineto
            223 48 -94 114 -184 hhcurveto
            -149 -144 -98 -188 -62 hvcurveto
            1 4 1 4 2 vvcurveto
            167 26 -84 109 -181 hhcurveto
            -160 -138 -101 -194 -64 hvcurveto
            61 287 -67 callsubr
            return
          </CharString>
          <CharString index="291">
            601 hlineto
            11 49 -103 18 -18 20 19 93 rlinecurve
            10 45 738 871 -195 -916 -19 -94 -23 -19 -114 -18 rlinecurve
            -11 -49 602 0 10 49 -106 17 -18 20 20 94 rlinecurve
            231 1084 20 94 25 19 114 18 rlinecurve
            10 49 -601 0 -10 -49 104 -18 17 -18 -20 -95 rlinecurve
            -10 -45 -738 -870 194 915 20 93 25 19 113 19 -88 callgsubr
            106 -19 18 -19 -20 -93 rlinecurve
            -231 -1084 -91 callgsubr
            endchar
          </CharString>
          <CharString index="292">
            333 hlineto
            131 653 rlineto
            149 36 83 71 91 hhcurveto
            91 43 -70 -147 -30 hvcurveto
            -38 -181 -138 -630 -72 -305 rrcurveto
            335 hlineto
            18 80 193 950 19 93 rrcurveto
            236 47 -98 114 -199 hhcurveto
            -185 -128 -113 -150 -54 hvcurveto
            180 27 -73 76 -143 hhcurveto
            -91 -91 -31 -34 -55 hvcurveto
            -11 -47 rlineto
            6 16 18 3 22 hhcurveto
            67 35 -40 -117 -24 hvcurveto
            -27 -135 -85 -371 -63 -240 rrcurveto
            endchar
          </CharString>
          <CharString index="293">
            rmoveto
            -94 71 -70 107 177 119 123 305 215 vhcurveto
            551 785 105 150 45 36 111 20 rlinecurve
            10 49 -392 0 -10 -49 138 -17 0 -37 -95 -144 rlinecurve
            -388 -592 -158 627 -32 124 5 22 146 17 rlinecurve
            11 49 -652 0 -10 -49 102 -20 23 -26 34 -118 rlinecurve
            286 -960 -74 -101 -68 -73 -79 -36 rlinecurve
            16 23 9 28 31 vvcurveto
            91 -71 69 -88 -92 -72 -73 -90 vhcurveto
            endchar
          </CharString>
          <CharString index="294">
            rmoveto
            -301 hlineto
            -8 -34 62 -12 11 -23 -16 -66 rlinecurve
            -109 -444 -26 -99 -15 -24 -68 -9 rlinecurve
            -8 -34 216 0 8 34 -66 10 -8 19 23 103 rlinecurve
            95 445 87 -611 110 0 124 252 1 0 209 377 -93 -529 -8 -45 -14 -11 -65 -10 rlinecurve
            -7 -34 360 0 7 34 -60 10 -8 10 8 46 rlinecurve
            97 544 8 45 13 12 65 10 rlinecurve
            7 34 -311 0 -249 -491 rlineto
            return
          </CharString>
          <CharString index="295">
            346 203 224 345 76 hvcurveto
            190 860 24 -4 27 -4 29 1 rlinecurve
            155 2 107 74 125 vvcurveto
            94 -62 80 -84 35 vhcurveto
            -47 hlineto
            8 -16 5 -27 -28 vvcurveto
            -164 -113 -130 -207 vhcurveto
            -65 hlineto
            -10 -49 rlineto
            122 -23 12 -36 -33 -161 -127 -620 rcurveline
            -286 -58 -161 97 callsubr
            21 122 20 rlinecurve
            11 49 -610 0 -10 -49 105 -19 16 -21 -20 -96 rlinecurve
            return
          </CharString>
          <CharString index="296">
            -2 -10 -13 -67 -10 vvcurveto
            -134 -16 61 -64 118 hhcurveto
            113 119 52 67 57 hvcurveto
            11 50 rlineto
            -22 -29 -40 -12 -32 hhcurveto
            -46 -23 30 73 15 hvcurveto
            156 731 rlineto
            -2 15 15 -1 16 hhcurveto
            124 104 65 119 90 -61 77 -106 36 hvcurveto
            -43 hlineto
            10 -17 6 -32 -35 vvcurveto
            -149 -117 -106 -281 -33 vhcurveto
            -114 -13 -10 78 callgsubr
            -34 -85 -100 -98 hhcurveto
            -89 -26 69 116 26 hvcurveto
            return
          </CharString>
          <CharString index="297">
            rmoveto
            -1028 hlineto
            -10 -49 108 -19 16 75 callsubr
            -20 -92 -23 -20 -116 -19 rlinecurve
            -11 -49 627 0 11 49 -126 19 -20 21 20 90 rlinecurve
            110 520 161 -4 119 -5 22 -50 -2 -163 rlinecurve
            42 hlineto
            103 489 rlineto
            -42 hlineto
            -60 -152 -44 -48 -125 -5 rrcurveto
            -162 -4 133 630 154 -7 236 -13 54 -66 13 -247 rlinecurve
            45 hlineto
            endchar
          </CharString>
          <CharString index="298">
            392 -265 263 -392 -478 -324 -371 -460 -2 hvcurveto
            -2 -370 237 -255 358 -28 rrcurveto
            -147 -84 -74 -102 -101 vvcurveto
            -100 86 -71 120 90 74 44 71 33 vhcurveto
            9 48 rlineto
            -16 -16 -23 -10 -27 hhcurveto
            -66 -47 74 103 51 16 50 33 41 hvcurveto
            -23 68 rmoveto
            -169 -105 141 292 407 185 510 287 89 callgsubr
            hvcurveto
            endchar
          </CharString>
          <CharString index="299">
            rmoveto
            105 95 58 80 41 hvcurveto
            11 50 rlineto
            -19 -25 -25 -11 -30 hhcurveto
            -49 -34 29 87 -40 hvcurveto
            -193 420 87 84 41 42 31 33 27 26 rlinecurve
            -76 5 58 -58 76 hhcurveto
            79 65 63 81 hvcurveto
            77 -1 -57 64 -86 hhcurveto
            -91 -54 -55 -134 -122 hvcurveto
            -295 -328 109 509 24 callgsubr
            104 486 131 -285 rlineto
            -160 64 67 -58 121 hhcurveto
            endchar
          </CharString>
          <CharString index="300">
            273 -130 206 -204 102 hvcurveto
            -7 41 46 -4 49 hhcurveto
            179 146 75 138 97 -63 82 -89 37 hvcurveto
            -47 hlineto
            8 -16 4 -27 -29 vvcurveto
            -157 -112 -137 -186 vhcurveto
            -104 -69 22 -126 hhcurveto
            -477 -325 -371 -461 -2 hvcurveto
            357 -153 rmoveto
            407 185 510 287 89 callgsubr
            -169 -105 141 292 vhcurveto
            return
          </CharString>
          <CharString index="301">
            551 hlineto
            492 316 162 285 hvcurveto
            -275 676 rmoveto
            -183 -120 -141 -211 -3 vhcurveto
            -113 -1 127 592 68 -2 rlineto
            161 -7 88 -99 -156 vvcurveto
            -92 -669 rmoveto
            -207 -134 -176 -305 -12 vhcurveto
            -69 -2 144 682 112 -3 rlineto
            156 -6 96 -110 -166 vvcurveto
            return
          </CharString>
          <CharString index="302">
            rmoveto
            229 -114 141 -168 -145 -121 -92 -172 -57 vhcurveto
            161 738 -444 -43 -11 -48 53 -14 -73 callsubr
            188 0 130 110 rlineto
            -66 22 79 -64 136 171 callsubr
            -193 -63 -43 33 41 -12 vhcurveto
            105 492 rlineto
            150 38 76 86 77 hhcurveto
            69 40 -56 -144 hvcurveto
            return
          </CharString>
          <CharString index="303">
            149 -1191 221 0 638 1156 109 197 37 33 101 16 rlinecurve
            10 49 -391 0 -10 -49 128 -21 19 -39 -96 -184 rlinecurve
            -467 -899 -94 930 -15 147 30 47 130 18 rlinecurve
            11 50 -639 0 -10 -50 84 -14 34 -30 21 -166 rlinecurve
            return
          </CharString>
          <CharString index="304">
            rmoveto
            358 214 264 317 263 -183 189 -264 -358 -214 -264 -316 -263 183 -190 264 hvcurveto
            -1 65 rmoveto
            -89 -44 82 171 hvcurveto
            272 1 98 379 162 hhcurveto
            88 45 -82 -171 -1 hvcurveto
            -272 -1 -98 -379 -161 hhcurveto
            endchar
          </CharString>
          <CharString index="305">
            1477 rmoveto
            -83 -377 74 0 285 12 callgsubr
            55 -55 72 hvcurveto
            617 hmoveto
            76 61 60 72 70 -54 -47 callgsubr
            endchar
          </CharString>
          <CharString index="306">
            20 93 24 19 116 19 -88 callgsubr
            103 -18 18 -20 -20 -93 rlinecurve
            -255 -1199 -467 0 256 1201 19 92 22 21 111 16 rlinecurve
            10 49 -592 0 -11 -49 102 -15 16 -21 -19 -93 rlinecurve
            -256 -1201 -467 0 255 1199 return
          </CharString>
          <CharString index="307">
            1394 1409 447 rmoveto
            171 -140 144 -280 19 vhcurveto
            248 14 244 91 2 231 rrcurveto
            200 1 -193 127 -381 hhcurveto
            -553 -95 callgsubr
            -94 -231 -1083 rcurveline
            -19 -92 22 callsubr
            194 callsubr
            return
          </CharString>
          <CharString index="308">
            -12 -58 -80 -379 rcurveline
            -309 -65 168 -130 288 hhcurveto
            295 109 callgsubr
            -65 -11 -12 -38 hvcurveto
            -64 -303 rmoveto
            51 244 rlineto
            7 25 33 6 33 hhcurveto
            114 56 -70 -124 -158 -79 -172 -124 -109 -35 100 167 35 hvcurveto
            endchar
          </CharString>
          <CharString index="309">
            -403 -49 -10 -49 43 -10 rlineto
            53 -16 12 -17 5 -55 71 -817 rcurveline
            198 hlineto
            332 367 220 316 177 vvcurveto
            98 -69 62 -88 -84 -68 -61 -88 -84 67 -66 82 17 16 2 5 15 vhcurveto
            -56 -165 -126 -183 -171 -205 rrcurveto
            return
          </CharString>
          <CharString index="310">
            0 137 390 rlineto
            -39 hlineto
            -106 -162 -137 -46 -391 -2 14 68 rcurveline
            432 69 258 271 16 303 15 312 -251 259 -444 2 -496 2 -312 -299 -17 -352 -16 -272 175 -227 return
          </CharString>
          <CharString index="311">
            -322 -37 -130 -611 rlineto
            -139 -34 -86 -105 -97 hhcurveto
            -84 -21 70 112 24 hvcurveto
            150 710 -322 -36 -129 -617 rlineto
            -136 -34 -86 -103 -97 hhcurveto
            -84 -19 71 111 23 hvcurveto
            148 710 -444 return
          </CharString>
          <CharString index="312">
            24 hvcurveto
            -57 hlineto
            -48 -11 -32 -20 -52 hhcurveto
            -30 -31 7 12 -39 hvcurveto
            -34 11 rlineto
            13 -45 -45 10 -51 hhcurveto
            -110 -82 -62 -118 -23 hvcurveto
            58 hlineto
            48 11 32 19 51 hhcurveto
            30 31 -98 callgsubr
            44 -11 51 hhcurveto
            endchar
          </CharString>
          <CharString index="313">
            -471 rmoveto
            87 80 36 58 58 hvcurveto
            10 49 rlineto
            -17 -26 -32 -9 -32 hhcurveto
            -63 -40 31 68 79 55 89 144 84 hvcurveto
            68 40 -56 0 -89 -43 rlineto
            -265 -134 -78 -80 -102 vvcurveto
            -88 74 -61 105 vhcurveto
            endchar
          </CharString>
          <CharString index="314">
            207 rlinecurve
            173 895 537 -1208 221 0 252 1147 42 186 26 43 121 19 rlinecurve
            10 49 -378 0 -10 -49 rlineto
            123 -21 13 -36 -35 -191 -148 -783 rcurveline
            return
          </CharString>
          <CharString index="315">
            rrcurveto
            198 9 129 85 143 hhcurveto
            48 44 -11 -17 37 hvcurveto
            -63 -6 -51 -50 -69 vvcurveto
            -71 54 -58 74 72 58 58 73 127 -134 99 -216 -280 -235 -153 -287 -11 vhcurveto
            return
          </CharString>
          <CharString index="316">
            0 -10 -49 rlineto
            146 -17 36 -48 -30 -139 -31 -133 -29 -120 -45 -159 -75 -298 -63 -224 -87 -121 rrcurveto
            2 0 2 3 vvcurveto
            99 -70 65 -89 -101 -65 -77 -89 return
          </CharString>
          <CharString index="317">
            1144 rmoveto
            171 152 95 204 56 hvcurveto
            -54 16 rlineto
            -174 -51 -121 -83 -142 hhcurveto
            -52 -43 11 20 -34 hvcurveto
            -1 3 4 0 3 hhcurveto
            70 59 60 75 80 return
          </CharString>
          <CharString index="318">
            741 1468 rmoveto
            -237 -11 -186 -149 -205 vvcurveto
            -117 72 -74 99 108 66 90 109 5 vhcurveto
            -86 12 -58 42 78 vvcurveto
            97 96 70 111 10 vhcurveto
            return
          </CharString>
          <CharString index="319">
            539 1450 rmoveto
            -88 -50 -55 -110 -8 hvcurveto
            -6 -77 6 -91 9 -103 rrcurveto
            15 -193 37 0 81 168 rlineto
            64 134 61 118 79 vvcurveto
            77 -44 53 -77 vhcurveto
            return
          </CharString>
          <CharString index="320">
            125 19 rlinecurve
            10 49 -615 0 -10 -49 rlineto
            106 -19 18 -19 -20 -93 -231 -1084 rcurveline
            -19 -92 22 callsubr
            621 hlineto
            444 286 188 297 hvcurveto
            return
          </CharString>
          <CharString index="321">
            -14 -32 -22 -50 hhcurveto
            -29 -30 7 14 -38 -89 callgsubr
            -49 hhcurveto
            -108 -82 -73 -139 -28 hvcurveto
            56 hlineto
            57 14 31 23 return
          </CharString>
          <CharString index="322">
            1150 rmoveto
            101 80 71 242 31 hvcurveto
            -56 hlineto
            -102 -20 -32 -38 -47 107 callsubr
            -100 -80 -71 -239 -31 56 callgsubr
            48 -34 48 -24 59 1 rlinecurve
            return
          </CharString>
          <CharString index="323">
            141 97 202 98 hvcurveto
            -34 29 -45 -74 -52 -30 -60 1 rlinecurve
            -72 -68 callgsubr
            -739 0 -101 -347 rlineto
            44 hlineto
            91 39 31 17 97 hhcurveto
            339 hlineto
            endchar
          </CharString>
          <CharString index="324">
            -73 -42 -53 -46 hvcurveto
            -9 -39 rlineto
            17 26 46 14 45 hhcurveto
            67 32 -30 -42 -9 hvcurveto
            -10 -43 -41 -31 -75 -18 rrcurveto
            37 -30 149 25 83 46 19 88 rlinecurve
            84 18 -70 54 return
          </CharString>
          <CharString index="325">
            -101 -478 rcurveline
            -211 -45 74 -129 195 hhcurveto
            146 147 86 191 73 hvcurveto
            -178 -24 80 -99 180 hhcurveto
            150 150 96 199 70 hvcurveto
            -2 -10 return
          </CharString>
          <CharString index="326">
            27 31 37 vvcurveto
            43 -34 33 -45 -45 -34 -34 -43 -93 109 -60 119 173 158 91 155 vhcurveto
            -2 89 -68 73 -120 23 113 12 120 56 -1 return
          </CharString>
          <CharString index="327">
            211 18 rrcurveto
            51 3 -257 -1208 -19 -89 -25 -22 -132 -19 rlinecurve
            -11 -49 641 0 10 49 rlineto
            -124 20 -18 19 19 91 112 524 rcurveline
            return
          </CharString>
          <CharString index="328">
            -39 44 -62 hhcurveto
            -10 hlineto
            -61 -59 -44 -62 -13 hvcurveto
            -62 -13 21 callsubr
            59 44 62 12 hvcurveto
            62 14 -40 44 -61 hhcurveto
            -11 hlineto
            -61 -59 -32 callgsubr
            return
          </CharString>
          <CharString index="329">
            50 rlineto
            -21 -27 -37 -97 callgsubr
            164 772 return
          </CharString>
          <CharString index="330">
            46 19 88 rlinecurve
            84 18 -70 54 -102 hhcurveto
            -98 -532 rmoveto
            return
          </CharString>
          <CharString index="331">
            35 -27 -45 -48 -44 -49 -92 -46 hvcurveto
            52 hlineto
            171 46 return
          </CharString>
          <CharString index="332">
            29 -55 -118 -1 hvcurveto
            -267 2 -81 -240 -97 hhcurveto
            return
          </CharString>
          <CharString index="333">
            11 -51 hhcurveto
            -111 -81 -63 -118 -23 hvcurveto
            57 hlineto
            48 return
          </CharString>
          <CharString index="334">
            1 3 -3 -1 -5 rlinecurve
            -109 -511 -11 -53 -24 -13 return
          </CharString>
          <CharString index="335">
            -9 -42 rlineto
            379 -211 rmoveto
            110 81 63 118 return
          </CharString>
          <CharString index="336">
            -58 0 132 -376 183 0 288 376 rlineto
            return
          </CharString>
          <CharString index="337">
            -92 -46 hvcurveto
            51 hlineto
            172 46 81 20 callsubr
            return
          </CharString>
          <CharString index="338">
            rmoveto
            -109 -377 77 0 324 370 rlineto
            7 vlineto
            return
          </CharString>
        <CharString name=".notdef">
          2048 48 -494 rmoveto
          101 hlineto
          519 2444 rlineto
          -101 hlineto
          -108 113 callsubr
          -110 113 callsubr
          -109 113 callsubr
          -109 113 callsubr
          endchar
        </CharString>
        <CharString name=".null">
          0 endchar
        </CharString>
        <CharString name="A">
          1382 1258 260 -103 callsubr
        </CharString>
        <CharString name="AE">
          1906 2078 1444 136 callsubr
        </CharString>
        <CharString name="AEacute">
          1906 1567 -91 callsubr
          201 -374 136 callsubr
        </CharString>
        <CharString name="AEmacron">
          1906 1223 -24 callsubr
          824 -302 136 callsubr
        </CharString>
        <CharString name="Aacute">
          1382 1087 -17 callsubr
          -99 callgsubr
          -138 -1558 -103 callsubr
        </CharString>
        <CharString name="Abreve">
          1382 1032 50 callsubr
          -86 8 callsubr
          2 65 callsubr
          72 callsubr
          226 -1306 -103 callsubr
        </CharString>
        <CharString name="Abreveacute">
          1382 1364 1859 rmoveto
          32 148 -641 -191 -8 -41 rlineto
          249 -237 -45 callsubr
          -136 hhcurveto
          -136 46 callsubr
          262 -1278 -103 callsubr
        </CharString>
        <CharString name="Abrevecyrillic">
          1382 998 -11 callgsubr
          -30 hvcurveto
          62 56 53 69 75 -56 55 -71 -78 -54 -58 -79 -107 87 -88 154 hvcurveto
          260 -1319 -103 callsubr
        </CharString>
        <CharString name="Abrevedotbelow">
          1382 1032 50 callsubr
          -86 8 callsubr
          2 65 callsubr
          72 callsubr
          226 -1306 rmoveto
          -29 callsubr
          37 callsubr
          -316 -721 -84 callsubr
          -56 callsubr
        </CharString>
        <CharString name="Abrevegrave">
          1382 765 1859 -104 callgsubr
          200 -469 -45 callsubr
          -136 hhcurveto
          -136 46 callsubr
          262 -1278 -103 callsubr
        </CharString>
        <CharString name="Abrevehookabove">
          1382 1078 80 callgsubr
          47 12 45 hhcurveto
          69 34 -26 -36 -8 hvcurveto
          -8 -36 -41 -28 -76 -14 rrcurveto
          38 -26 152 22 84 39 16 74 rlinecurve
          72 15 -74 47 -104 hhcurveto
          -82 -455 -45 callsubr
          -136 hhcurveto
          -136 46 callsubr
          262 -1278 -103 callsubr
        </CharString>
        <CharString name="Abrevetilde">
          1382 1177 1807 rmoveto
          111 80 63 118 24 hvcurveto
          -57 hlineto
          -48 -11 -32 -19 -52 hhcurveto
          -30 -30 7 11 -39 hvcurveto
          -35 6 callgsubr
          46 44 -11 51 hhcurveto
          -181 -269 -45 callsubr
          -136 hhcurveto
          -136 46 callsubr
          262 -1278 -103 callsubr
        </CharString>
        <CharString name="Acaron">
          1382 1279 -78 callsubr
          174 0 246 287 rlineto
          -79 -1572 -103 callsubr
        </CharString>
        <CharString name="Acircumflex">
          1382 779 -71 callsubr
          -86 callsubr
          -77 callsubr
          535 -1269 -103 callsubr
        </CharString>
        <CharString name="Acircumflexacute">
          1382 1359 1838 -87 callgsubr
          -9 -41 rlineto
          -54 -254 126 callsubr
          -39 0 -319 -183 rlineto
          561 -1283 -103 callsubr
        </CharString>
        <CharString name="Acircumflexdotbelow">
          1382 779 -71 callsubr
          -86 callsubr
          -77 callsubr
          535 -1269 rmoveto
          -29 callsubr
          37 callsubr
          -316 -721 -84 callsubr
          -56 callsubr
        </CharString>
        <CharString name="Acircumflexgrave">
          1382 760 1838 -104 callgsubr
          -103 -486 126 callsubr
          -39 0 -319 -183 rlineto
          561 -1283 -103 callsubr
        </CharString>
        <CharString name="Acircumflexhookabove">
          1382 1337 -74 callgsubr
          25 46 12 43 hhcurveto
          66 32 -26 -35 -8 hvcurveto
          -8 -37 -40 -27 -73 -15 rrcurveto
          2 callgsubr
          -39 0 -319 -183 rlineto
          561 -1283 -103 callsubr
        </CharString>
        <CharString name="Acircumflextilde">
          1382 1173 1787 rmoveto
          111 80 62 119 23 hvcurveto
          -56 hlineto
          -48 -11 -33 -20 -51 hhcurveto
          -30 -31 7 12 -39 hvcurveto
          -34 10 rlineto
          13 -45 -45 226 callsubr
          12 31 20 52 hhcurveto
          30 31 -6 -13 39 hvcurveto
          34 -10 rlineto
          -14 46 44 -10 51 hhcurveto
          -485 -287 126 callsubr
          -39 0 -319 -183 rlineto
          561 -1283 -103 callsubr
        </CharString>
        <CharString name="Acyrillic">
          1382 1258 260 -103 callsubr
        </CharString>
        <CharString name="Adblgrave">
          1382 838 -63 callgsubr
          49 hlineto
          263 -73 callgsubr
          91 -1266 -103 callsubr
        </CharString>
        <CharString name="Adieresis">
          1382 858 -36 callsubr
          -51 callsubr
          23 callsubr
          64 vhcurveto
          -62 callsubr
          -51 callsubr
          -56 -54 -67 -63 49 -50 64 vhcurveto
          77 -1297 -103 callsubr
        </CharString>
        <CharString name="Adieresismacron">
          1382 759 1833 61 callsubr
          55 -392 rmoveto
          59 55 37 53 11 hvcurveto
          52 11 -38 38 -59 hhcurveto
          -10 hlineto
          -58 -55 -38 -52 -11 hvcurveto
          -53 -12 39 -37 59 hhcurveto
          332 hmoveto
          59 54 37 53 12 hvcurveto
          52 11 -39 38 -58 hhcurveto
          -10 hlineto
          -59 -55 -38 -52 -12 hvcurveto
          -53 -10 39 -37 58 hhcurveto
          106 -1296 -103 callsubr
        </CharString>
        <CharString name="Adotaccent">
          1382 1020 -89 callsubr
          -85 callsubr
          238 -1285 -103 callsubr
        </CharString>
        <CharString name="Adotbelow">
          1382 1258 260 rmoveto
          -29 callsubr
          37 callsubr
          -316 -721 -84 callsubr
          -56 callsubr
        </CharString>
        <CharString name="Adotmacron">
          1382 754 1808 rmoveto
          599 16 callgsubr
          -61 hhcurveto
          -62 -46 -33 callgsubr
          236 -1291 -103 callsubr
        </CharString>
        <CharString name="Agrave">
          1382 1010 108 callsubr
          172 -1266 -103 callsubr
        </CharString>
        <CharString name="Ahookabove">
          1382 1062 1851 131 callsubr
          40 14 43 hhcurveto
          63 224 callsubr
          82 20 callsubr
          196 -1591 -103 callsubr
        </CharString>
        <CharString name="Ainvertedbreve">
          1382 1038 1886 28 callgsubr
          79 -52 -74 -8 -1 -8 -2 -6 hvcurveto
          49 hlineto
          11 27 6 33 32 vvcurveto
          125 -1 -95 103 -153 hhcurveto
          220 -1626 -103 callsubr
        </CharString>
        <CharString name="Alphagreek">
          1382 1258 260 -103 callsubr
        </CharString>
        <CharString name="Alphatonosgreek">
          1382 1258 260 rmoveto
          -29 callsubr
          15 -147 -29 -47 -131 -18 rlinecurve
          -10 -50 638 0 -35 callgsubr
          -842 1184 -65 callgsubr
          -222 -878 rmoveto
          325 626 63 -626 rlineto
          endchar
        </CharString>
        <CharString name="Amacron">
          1382 742 -24 callsubr
          485 -1486 -103 callsubr
        </CharString>
        <CharString name="Aogonek">
          1382 1027 -477 rmoveto
          89 74 44 71 33 hvcurveto
          10 48 rlineto
          -16 -16 -23 -10 -27 hhcurveto
          -67 -46 77 108 55 18 56 37 44 hvcurveto
          278 hlineto
          -35 callgsubr
          -29 callsubr
          rlineto
          15 -147 -29 -47 -131 -18 -10 -50 rcurveline
          300 hlineto
          -152 -88 -77 -110 -108 vvcurveto
          -100 87 -71 120 vhcurveto
          -542 1043 rmoveto
          325 626 63 -626 rlineto
          endchar
        </CharString>
        <CharString name="Aring">
          1382 785 1714 rmoveto
          -104 105 -62 124 165 20 callgsubr
          39 22 -29 -56 -90 -43 -80 -55 -38 -23 28 57 vhcurveto
          303 -1421 -103 callsubr
        </CharString>
        <CharString name="Aringacute">
          1382 1360 1842 rmoveto
          32 148 -641 -191 -9 callgsubr
          -12 hvcurveto
          -60 -13 50 callgsubr
          32 25 43 hhcurveto
          28 hlineto
          44 20 -25 -37 -8 hvcurveto
          -38 -7 -32 -24 -44 hhcurveto
          242 -1308 -103 callsubr
        </CharString>
        <CharString name="Aringbelow">
          1382 1258 260 rmoveto
          -29 callsubr
          37 callsubr
          -600 -859 rmoveto
          -103 2 118 -6 callgsubr
          190 -33 rmoveto
          90 -2 46 80 61 hhcurveto
          42 27 -28 -55 1 hvcurveto
          -91 2 -47 -80 -60 hhcurveto
          -43 -26 28 56 -1 hvcurveto
          endchar
        </CharString>
        <CharString name="Atilde">
          1382 1126 155 callsubr
          -42 17 -50 hhcurveto
          158 callsubr
          41 -19 50 hhcurveto
          132 -1308 -103 callsubr
        </CharString>
        <CharString name="B">
          1395 1409 447 84 callsubr
        </CharString>
        <CharString name="Bdotaccent">
          1394 978 -89 callsubr
          -53 callgsubr
          431 -1098 84 callsubr
        </CharString>
        <CharString name="Bdotbelow">
          200 callsubr
          -407 -609 -59 callsubr
        </CharString>
        <CharString name="Becyrillic">
          1373 1403 462 rmoveto
          233 -214 132 -338 vhcurveto
          -149 hlineto
          118 559 195 -7 280 -10 55 -62 5 -228 rlinecurve
          45 hlineto
          63 365 -1108 0 -10 -49 rlineto
          111 -19 17 -19 -20 -93 -230 -1084 rcurveline
          -19 -92 -25 -20 -120 -19 -10 -49 rcurveline
          625 hlineto
          429 300 171 291 hvcurveto
          -357 23 rmoveto
          -241 -154 -172 -273 -12 vhcurveto
          -81 -2 151 709 89 -2 rlineto
          169 -4 99 -93 -183 vvcurveto
          endchar
        </CharString>
        <CharString name="Betagreek">
          1394 1409 447 84 callsubr
        </CharString>
        <CharString name="Blinebelow">
          200 callsubr
          -704 -813 rmoveto
          552 hlineto
          32 154 rlineto
          -551 hlineto
          endchar
        </CharString>
        <CharString name="C">
          1386 602 543 -49 callsubr
          4 callsubr
        </CharString>
        <CharString name="Cacute">
          1386 1220 -91 callsubr
          -928 -1275 -49 callsubr
          4 callsubr
        </CharString>
        <CharString name="Ccaron">
          1386 1413 -78 callsubr
          -52 callsubr
          -869 -1289 -49 callsubr
          4 callsubr
        </CharString>
        <CharString name="Ccedilla">
          1386 602 543 -49 callsubr
          -3 -427 290 -220 327 -25 rrcurveto
          -133 -145 42 callsubr
          -107 callgsubr
          73 -42 94 hhcurveto
          -47 callsubr
          69 75 rlineto
          2 hlineto
          153 callsubr
        </CharString>
        <CharString name="Ccedillaacute">
          1386 1220 -91 callsubr
          -928 -1275 -49 callsubr
          -3 -427 290 -220 327 -25 rrcurveto
          -133 -145 42 callsubr
          -107 callgsubr
          73 -42 94 hhcurveto
          -47 callsubr
          69 75 rlineto
          2 hlineto
          153 callsubr
        </CharString>
        <CharString name="Ccircumflex">
          1386 912 1529 rmoveto
          255 -86 callsubr
          -77 callsubr
          -255 -986 -49 callsubr
          4 callsubr
        </CharString>
        <CharString name="Cdotaccent">
          1386 1154 -89 callsubr
          -85 callsubr
          -552 -1002 -49 callsubr
          4 callsubr
        </CharString>
        <CharString name="Checyrillic">
          1547 1064 179 rmoveto
          -19 -92 -29 -20 -133 -18 rrcurveto
          -10 -49 625 0 11 49 -106 17 -18 19 20 95 100 callgsubr
          -601 0 -11 -49 rlineto
          104 -18 18 -19 -20 -94 -117 -547 rcurveline
          -28 -74 -77 -19 -97 hhcurveto
          -177 -76 110 217 46 hvcurveto
          57 269 21 91 22 23 109 15 rlinecurve
          10 49 -596 0 -10 -49 rlineto
          107 -17 16 -20 -19 -92 -50 -233 rcurveline
          -302 -64 160 -150 334 hhcurveto
          143 104 30 41 98 hvcurveto
          endchar
        </CharString>
        <CharString name="Chigreek">
          1337 324 289 29 callsubr
        </CharString>
        <CharString name="D">
          1564 -23 callsubr
          -58 callsubr
          endchar
        </CharString>
        <CharString name="Dbar">
          1564 201 712 rmoveto
          132 hlineto
          -114 -532 rlineto
          -19 -92 22 callsubr
          543 hlineto
          589 449 318 502 390 -302 234 -443 hvcurveto
          -529 -95 callgsubr
          -93 -105 -496 rcurveline
          -133 hlineto
          1041 116 125 callsubr
          140 655 232 0 12 56 -232 0 131 620 59 -3 rlineto
          251 -14 126 -213 -274 vvcurveto
          endchar
        </CharString>
        <CharString name="Dcaron">
          1564 1301 -60 callgsubr
          -57 0 131 -287 -52 callsubr
          271 -1012 35 callsubr
          -58 callsubr
          endchar
        </CharString>
        <CharString name="Dcircumflexbelow">
          1564 -23 callsubr
          -58 callsubr
          -877 -1335 -26 callsubr
        </CharString>
        <CharString name="Dcommaaccent">
          1564 -23 callsubr
          -58 callsubr
          -650 -1340 9 callsubr
          130 callsubr
          25 hhcurveto
          51 42 -23 -45 -44 -41 -26 -64 -47 98 callgsubr
        </CharString>
        <CharString name="Ddotaccent">
          1564 1043 -89 callsubr
          -55 54 -71 -76 -62 -59 -74 -69 54 -54 73 hvcurveto
          588 -725 35 callsubr
          -58 callsubr
          endchar
        </CharString>
        <CharString name="Ddotbelow">
          1564 -23 callsubr
          -58 callsubr
          -614 -1039 -59 callsubr
        </CharString>
        <CharString name="Decyrillic">
          1458 637 967 rmoveto
          23 82 58 255 17 75 rrcurveto
          471 hlineto
          -280 -1314 rlineto
          -662 hlineto
          138 148 125 277 110 477 rrcurveto
          817 -902 rmoveto
          -187 hlineto
          255 1199 20 93 25 19 115 19 rlinecurve
          11 49 -1216 0 -10 -49 rlineto
          149 -18 35 -49 -34 -149 -13 -59 -24 -97 -16 -56 -108 -464 -130 -295 -153 -143 rrcurveto
          -135 hlineto
          -94 -401 rlineto
          51 hlineto
          257 124 63 79 244 hhcurveto
          610 hlineto
          239 45 -68 -268 12 hvcurveto
          50 hlineto
          endchar
        </CharString>
        <CharString name="Deltagreek">
          1358 60 hmoveto
          1183 hlineto
          9 46 -188 1402 -215 0 -780 -1402 rlineto
          89 16 rmoveto
          608 1117 121 -1117 rlineto
          endchar
        </CharString>
        <CharString name="Djecyrillic">
          1747 1753 435 rmoveto
          256 -174 137 -277 -132 -100 -23 -35 -88 vhcurveto
          61 callgsubr
          65 390 -1190 0 -96 -390 rlineto
          45 hlineto
          100 229 85 83 220 callsubr
          24 66 66 12 83 hhcurveto
          153 82 -88 -172 -320 -158 -334 -296 -161 hvcurveto
          15 -42 rlineto
          467 126 307 305 382 vvcurveto
          endchar
        </CharString>
        <CharString name="Dlinebelow">
          1564 -23 callsubr
          -58 callsubr
          -911 -1243 -80 callsubr
        </CharString>
        <CharString name="Dzecyrillic">
          1156 586 -23 78 callsubr
          endchar
        </CharString>
        <CharString name="Dzhecyrillic">
          1573 167 callsubr
          516 hlineto
          124 16 -41 -290 -13 hvcurveto
          50 hlineto
          290 109 34 41 123 hhcurveto
          517 hlineto
          10 49 -107 19 -17 19 20 93 rlinecurve
          230 1084 19 93 25 19 116 19 rlinecurve
          11 49 -602 0 -10 -49 102 -18 18 -20 -20 -93 rlinecurve
          -256 -1199 -529 0 255 1199 19 94 24 66 callgsubr
        </CharString>
        <CharString name="E">
          1231 1421 1444 -98 callsubr
        </CharString>
        <CharString name="Eacute">
          1231 1049 -17 callsubr
          -100 callgsubr
          63 -374 -98 callsubr
        </CharString>
        <CharString name="Ebreve">
          1231 994 50 callsubr
          -85 -57 -143 hhcurveto
          -113 -79 53 74 7 0 8 2 65 callsubr
          72 callsubr
          427 -122 -98 callsubr
        </CharString>
        <CharString name="Ecaron">
          1231 1241 -78 callsubr
          -34 callsubr
          121 -388 -98 callsubr
        </CharString>
        <CharString name="Ecedilla">
          1231 578 -456 rmoveto
          -47 callsubr
          84 90 1 8 481 -61 callgsubr
          -27 callsubr
          66 390 -1055 0 -39 callsubr
          -14 callsubr
          -70 callsubr
          571 0 -152 -166 67 callsubr
          36 -28 -45 -45 -37 -27 -106 callgsubr
        </CharString>
        <CharString name="Ecedillabreve">
          1231 994 50 callsubr
          -85 -57 -143 hhcurveto
          -113 -79 53 74 7 0 8 2 65 callsubr
          72 callsubr
          -416 -2022 rmoveto
          -47 callsubr
          84 90 1 8 481 -61 callgsubr
          -27 callsubr
          66 390 -1055 0 -39 callsubr
          -14 callsubr
          -70 callsubr
          571 0 -152 -166 67 callsubr
          36 -28 -45 -45 -37 -27 -106 callgsubr
        </CharString>
        <CharString name="Ecircumflex">
          1231 741 -71 callsubr
          -86 callsubr
          -77 callsubr
          736 -85 -98 callsubr
        </CharString>
        <CharString name="Ecircumflexacute">
          1231 1321 23 callgsubr
          8 -40 callsubr
          762 -99 -98 callsubr
        </CharString>
        <CharString name="Ecircumflexbelow">
          1231 1421 1444 rmoveto
          -1055 hlineto
          -39 callsubr
          -14 callsubr
          -70 callsubr
          26 callsubr
          -27 callsubr
          -1028 -1505 -26 callsubr
        </CharString>
        <CharString name="Ecircumflexdotbelow">
          1231 741 -71 callsubr
          -86 callsubr
          -77 callsubr
          736 -85 rmoveto
          -1055 hlineto
          -39 callsubr
          -14 callsubr
          -70 callsubr
          26 callsubr
          -27 callsubr
          -765 -1209 -59 callsubr
        </CharString>
        <CharString name="Ecircumflexgrave">
          1231 722 47 callgsubr
          8 -40 callsubr
          762 -99 -98 callsubr
        </CharString>
        <CharString name="Ecircumflexhookabove">
          1231 1299 -74 callgsubr
          24 46 76 callgsubr
          36 -25 146 20 80 40 17 75 rlinecurve
          72 15 -71 45 -100 hhcurveto
          -649 -437 rmoveto
          317 82 283 -82 8 -40 callsubr
          762 -99 -98 callsubr
        </CharString>
        <CharString name="Ecircumflextilde">
          1231 1135 1787 rmoveto
          110 81 45 callgsubr
          -35 10 rlineto
          13 -45 -45 11 -51 hhcurveto
          -110 -81 -63 -118 -23 hvcurveto
          57 hlineto
          48 -17 callgsubr
          8 -40 callsubr
          762 -99 -98 callsubr
        </CharString>
        <CharString name="Ecyrillic">
          1394 604 543 rmoveto
          55 4 53 6 53 vhcurveto
          585 -14 19 92 -595 -14 rlineto
          349 59 193 279 259 hhcurveto
          189 113 -140 -283 9 hvcurveto
          44 -2 66 373 rlineto
          63 -91 -180 60 -212 hhcurveto
          -480 -350 -321 -495 -4 hvcurveto
          -454 -4 328 -220 351 hhcurveto
          175 149 35 61 90 hvcurveto
          82 383 -46 -1 rlineto
          -241 -89 -162 -168 -177 hhcurveto
          -197 -134 205 292 hvcurveto
          endchar
        </CharString>
        <CharString name="Edblgrave">
          1231 800 -63 callgsubr
          49 hlineto
          263 -73 callgsubr
          292 -82 -98 callsubr
        </CharString>
        <CharString name="Edieresis">
          1231 821 -36 callsubr
          64 -48 50 -65 -68 -55 -54 -67 -1 hvcurveto
          -63 49 -50 65 vhcurveto
          323 hmoveto
          68 54 54 66 -51 callsubr
          28 callsubr
          277 -113 -98 callsubr
        </CharString>
        <CharString name="Edotaccent">
          1231 983 1545 rmoveto
          75 62 59 73 70 -55 54 -72 -76 -62 -59 -74 -69 55 -54 73 hvcurveto
          438 -101 -98 callsubr
        </CharString>
        <CharString name="Edotbelow">
          1231 1421 1444 rmoveto
          -1055 hlineto
          -39 callsubr
          -14 callsubr
          -70 callsubr
          26 callsubr
          -27 callsubr
          -765 -1209 -59 callsubr
        </CharString>
        <CharString name="Efcyrillic">
          1958 188 668 rmoveto
          -269 234 -160 435 -21 vhcurveto
          -14 -66 -18 -87 -24 -22 -122 -16 rlinecurve
          -10 -49 603 0 11 49 rlineto
          -113 17 -18 21 19 87 13 65 rcurveline
          594 20 291 221 318 vvcurveto
          269 -236 160 -436 20 vhcurveto
          14 67 18 87 24 22 122 16 rlinecurve
          10 49 -604 0 -10 -49 rlineto
          113 -17 18 -21 -19 -87 -14 -66 rcurveline
          -593 -21 -288 -221 -316 vvcurveto
          372 -22 rmoveto
          279 160 203 335 33 vhcurveto
          -184 -876 rlineto
          -219 33 -92 141 187 vvcurveto
          1137 151 rmoveto
          -279 -161 -203 -338 -33 vhcurveto
          185 877 rlineto
          220 -32 94 -142 -188 vvcurveto
          endchar
        </CharString>
        <CharString name="Egrave">
          1231 972 108 callsubr
          373 -82 -98 callsubr
        </CharString>
        <CharString name="Ehookabove">
          1231 1024 1851 131 callsubr
          40 14 44 hhcurveto
          62 224 callsubr
          82 20 callsubr
          397 -407 -98 callsubr
        </CharString>
        <CharString name="Einvertedbreve">
          1231 1001 1886 rmoveto
          -194 -103 129 callsubr
          143 hhcurveto
          113 79 -52 -74 -8 -1 -8 -1 -6 hvcurveto
          75 callgsubr
          420 -442 -98 callsubr
        </CharString>
        <CharString name="Elcyrillic">
          1476 207 -23 rmoveto
          217 99 272 535 134 hvcurveto
          54 194 52 215 41 187 rrcurveto
          444 hlineto
          -255 -1200 -20 -94 -23 -19 -113 -18 rlinecurve
          -11 -49 601 0 11 49 -106 17 -19 20 21 94 100 callgsubr
          -1189 209 callsubr
          -95 67 -69 108 vhcurveto
          endchar
        </CharString>
        <CharString name="Emacron">
          1231 704 114 callsubr
          686 -302 -98 callsubr
        </CharString>
        <CharString name="Emacronacute">
          1231 1326 1859 rmoveto
          31 148 -640 -191 -9 -41 rlineto
          -39 -186 -44 callgsubr
          728 -260 -98 callsubr
        </CharString>
        <CharString name="Emacrongrave">
          1231 727 1859 rmoveto
          581 -84 9 41 -560 191 rlineto
          -88 -418 -44 callgsubr
          728 -260 -98 callsubr
        </CharString>
        <CharString name="Emcyrillic">
          1802 872 1444 31 callsubr
        </CharString>
        <CharString name="Encyrillic">
          1584 560 -11 callsubr
          -68 callsubr
          -58 callgsubr
          endchar
        </CharString>
        <CharString name="Eogonek">
          1231 909 -477 rmoveto
          89 75 44 71 32 hvcurveto
          10 48 rlineto
          -16 -15 -23 -10 -29 hhcurveto
          -66 -46 77 108 55 19 56 36 44 hvcurveto
          177 hlineto
          -76 callsubr
          -109 -264 -115 -81 -18 callgsubr
          -60 -153 -45 -47 -130 -6 rrcurveto
          -179 -4 131 620 172 -8 246 -13 53 -63 14 -249 rlinecurve
          44 hlineto
          66 390 -1055 0 -11 -49 rlineto
          108 -19 16 -19 -20 -93 -230 -1084 rcurveline
          -20 -92 22 callsubr
          873 hlineto
          -152 -88 -77 -110 -108 vvcurveto
          -100 86 -71 120 vhcurveto
          endchar
        </CharString>
        <CharString name="Epsilongreek">
          1231 1421 1444 -98 callsubr
        </CharString>
        <CharString name="Epsilontonosgreek">
          1619 1809 1444 rmoveto
          -1055 hlineto
          -11 -49 108 -19 17 -19 -20 -93 rlinecurve
          -231 -1084 -20 -92 -23 -20 -70 callsubr
          26 callsubr
          -273 -12 rrcurveto
          -185 -8 138 653 178 -4 125 -5 22 -50 -2 -164 rlinecurve
          42 hlineto
          104 490 rlineto
          -43 hlineto
          -61 -153 -44 -47 -130 -6 rrcurveto
          -179 -4 132 620 171 -8 247 -13 51 -63 15 -249 rlinecurve
          45 hlineto
          -1395 390 -65 callgsubr
          endchar
        </CharString>
        <CharString name="Ercyrillic">
          1362 673 hmoveto
          32 callsubr
        </CharString>
        <CharString name="Ereversedcyrillic">
          1431 415 1362 rmoveto
          -81 -349 rlineto
          45 hlineto
          266 98 160 122 168 hhcurveto
          231 103 -237 -298 -35 -2 -35 -3 -35 hvcurveto
          -587 16 -20 -93 600 12 rlineto
          -339 -47 -185 -315 -289 hhcurveto
          -227 -99 182 200 -6 hvcurveto
          -45 hlineto
          -48 -334 rlineto
          -64 80 164 -49 191 hhcurveto
          537 354 342 467 413 -289 268 -402 -149 -155 -37 -68 -97 hvcurveto
          endchar
        </CharString>
        <CharString name="Escyrillic">
          1386 602 543 -49 callsubr
          4 callsubr
        </CharString>
        <CharString name="Etagreek">
          1584 560 -11 callsubr
          -68 callsubr
          -58 callgsubr
          endchar
        </CharString>
        <CharString name="Etatonosgreek">
          1982 958 -11 callsubr
          -20 -93 -24 -21 -113 -17 rlinecurve
          -10 -49 602 0 10 49 -107 18 -18 20 20 94 rlinecurve
          231 1082 19 93 25 21 116 18 rlinecurve
          11 49 -602 0 -11 -49 104 -17 17 -20 -20 -94 rlinecurve
          -105 -494 -540 0 105 494 20 92 25 21 112 18 rlinecurve
          10 49 -601 0 -11 -49 107 -19 17 -20 -19 -93 rlinecurve
          -230 -1082 -21 -92 -24 -21 -116 77 callgsubr
          -609 1264 -65 callgsubr
          endchar
        </CharString>
        <CharString name="Etilde">
          1231 1088 1568 rmoveto
          85 46 callgsubr
          -32 hvcurveto
          -26 19 rlineto
          28 -41 -41 17 -51 hhcurveto
          -84 -69 -59 -199 -25 hvcurveto
          50 hlineto
          81 15 27 30 39 hhcurveto
          28 24 -46 callgsubr
          50 hhcurveto
          333 -124 -98 callsubr
        </CharString>
        <CharString name="Etildebelow">
          1231 1421 1444 rmoveto
          -1055 hlineto
          -39 callsubr
          -14 callsubr
          -70 callsubr
          26 callsubr
          -27 callsubr
          -660 -1470 142 callsubr
        </CharString>
        <CharString name="F">
          1176 1396 1444 190 callsubr
        </CharString>
        <CharString name="Fdotaccent">
          1176 981 -89 callsubr
          -85 callsubr
          415 -101 190 callsubr
        </CharString>
        <CharString name="G">
          1535 235 651 -31 callsubr
        </CharString>
        <CharString name="Gacute">
          1535 1222 -91 callsubr
          -1297 -1167 -31 callsubr
        </CharString>
        <CharString name="Gammagreek">
          1162 1405 1444 rmoveto
          -1044 hlineto
          -10 -49 112 -19 17 -19 -20 -93 rlinecurve
          -230 -1084 -20 -92 -24 -20 -120 -19 rlinecurve
          -11 -49 636 0 10 49 -128 20 -21 20 19 90 rlinecurve
          256 1208 161 -7 258 -12 49 -60 3 -229 rlinecurve
          44 hlineto
          endchar
        </CharString>
        <CharString name="Gbreve">
          1535 1168 50 callsubr
          -86 8 callsubr
          2 7 hvcurveto
          -49 hlineto
          -10 -28 -7 -33 -33 vvcurveto
          72 callsubr
          -933 -915 -31 callsubr
        </CharString>
        <CharString name="Gcaron">
          1535 1415 -78 callsubr
          -52 callsubr
          -1238 -1181 -31 callsubr
        </CharString>
        <CharString name="Gcircumflex">
          1535 914 1529 rmoveto
          255 -86 callsubr
          -77 callsubr
          -624 -878 -31 callsubr
        </CharString>
        <CharString name="Gcommaaccent">
          1535 235 651 rmoveto
          -449 -3 337 -225 343 hhcurveto
          161 207 41 88 123 hvcurveto
          89 414 18 86 23 24 106 18 rlinecurve
          11 49 -554 0 -10 -49 rlineto
          114 -18 13 -22 -18 -88 -90 -433 rcurveline
          -27 -33 -64 -14 -64 hhcurveto
          -201 -141 180 317 446 218 407 315 192 114 -140 -283 9 hvcurveto
          44 -2 66 373 rlineto
          63 68 callgsubr
          550 -1107 rmoveto
          153 -43 callsubr
          36 callgsubr
          83 hhcurveto
          endchar
        </CharString>
        <CharString name="Gdotaccent">
          1535 1156 -89 callsubr
          -85 callsubr
          -921 -894 -31 callsubr
        </CharString>
        <CharString name="Geacutecyrillic">
          1152 998 -91 callsubr
          94 -374 rmoveto
          -1043 -64 callgsubr
          -92 callgsubr
          -22 callgsubr
        </CharString>
        <CharString name="Gecyrillic">
          1152 1402 1444 rmoveto
          -1043 -64 callgsubr
          -92 callgsubr
          -22 callgsubr
        </CharString>
        <CharString name="Germandbls">
          1490 532 hmoveto
          292 1388 150 -7 rlineto
          205 -10 88 -97 -153 vvcurveto
          -155 -100 -98 -162 -21 vhcurveto
          -49 -227 rlineto
          166 -77 79 -111 -152 vvcurveto
          -146 -86 -92 -124 -121 -96 108 211 8 vhcurveto
          -45 hlineto
          -62 -299 rlineto
          -48 60 124 -37 137 hhcurveto
          267 232 162 278 202 -109 154 -184 84 hvcurveto
          204 12 165 96 183 vvcurveto
          185 -166 111 -325 vhcurveto
          -718 hlineto
          -10 -49 rlineto
          108 -19 18 -20 -20 -92 -229 -1084 rcurveline
          -19 -93 -24 -19 -117 -19 -11 -49 rcurveline
          endchar
        </CharString>
        <CharString name="Geupturncyrillic">
          1132 1366 1382 rmoveto
          100 419 rlineto
          -51 hlineto
          -279 -128 -83 -78 -247 hhcurveto
          -598 -64 callgsubr
          -20 -92 -23 -20 -116 -19 rlinecurve
          -11 -49 630 0 10 49 rlineto
          -120 20 -28 20 19 90 256 1203 rcurveline
          endchar
        </CharString>
        <CharString name="Gmacron">
          1535 878 -24 callsubr
          -674 -1095 -31 callsubr
        </CharString>
        <CharString name="H">
          1584 560 -11 callsubr
          -68 callsubr
          -58 callgsubr
          endchar
        </CharString>
        <CharString name="Hacyrillic">
          1337 324 289 29 callsubr
        </CharString>
        <CharString name="Hardsigncyrillic">
          1597 1666 163 callsubr
          124 19 rlinecurve
          11 49 -862 0 -88 -361 rlineto
          46 hlineto
          106 242 59 47 216 12 rrcurveto
          28 2 -257 -1207 rlineto
          -19 -90 -24 -21 -124 -19 -10 -49 rcurveline
          628 hlineto
          445 286 188 297 hvcurveto
          -356 30 -105 callgsubr
          -81 -2 158 742 84 -2 rlineto
          172 -7 97 -93 -183 vvcurveto
          endchar
        </CharString>
        <CharString name="Hbar">
          1584 560 -11 callsubr
          -19 -93 -24 -21 -112 -17 rlinecurve
          -10 -49 600 0 10 49 -107 18 -17 19 20 94 rlinecurve
          184 865 132 0 12 57 -132 0 35 162 19 93 24 20 116 18 rlinecurve
          11 49 -601 0 -10 -49 104 -17 15 -20 -20 -94 rlinecurve
          -34 -162 -540 0 35 162 19 92 24 21 112 18 rlinecurve
          10 49 -599 0 -39 callsubr
          -34 -162 -132 0 -13 -57 133 0 -185 -865 -92 callgsubr
          -10 -49 600 0 10 49 -103 18 -16 20 19 93 rlinecurve
          126 590 rmoveto
          58 275 540 0 -59 -275 rlineto
          endchar
        </CharString>
        <CharString name="Hbrevebelow">
          1584 560 -11 callsubr
          -68 callsubr
          -58 callgsubr
          168 -625 rmoveto
          195 108 136 190 5 hvcurveto
          -51 150 callsubr
        </CharString>
        <CharString name="Hcaron">
          1584 1401 1832 rmoveto
          -253 -141 -183 141 -57 0 131 -287 -34 callsubr
          -900 -1652 52 callsubr
          -68 callsubr
          -58 callgsubr
          endchar
        </CharString>
        <CharString name="Hcedilla">
          1584 262 -456 rmoveto
          149 44 callgsubr
          281 0 10 49 -103 18 -17 20 19 93 rlinecurve
          112 527 540 0 -112 -527 -68 callsubr
          262 0 30 callgsubr
          -61 -50 -44 18 24 -27 hvcurveto
          -11 -46 rlineto
          -63 40 74 -42 94 hhcurveto
          endchar
        </CharString>
        <CharString name="Hcircumflex">
          1584 901 -71 callsubr
          140 184 -140 53 0 -131 287 -168 0 -248 -287 rlineto
          -285 -1349 52 callsubr
          -68 callsubr
          -58 callgsubr
          endchar
        </CharString>
        <CharString name="Hdieresis">
          1584 981 1556 rmoveto
          68 55 54 67 64 -48 50 -64 -69 -55 -54 -68 hvcurveto
          -63 -1 49 -50 65 hhcurveto
          323 hmoveto
          68 55 54 67 64 -48 50 -65 -68 -55 -54 -68 -1 hvcurveto
          -63 49 -50 65 vhcurveto
          -744 -1376 52 callsubr
          -68 callsubr
          -58 callgsubr
          endchar
        </CharString>
        <CharString name="Hdotaccent">
          1584 1143 1544 rmoveto
          75 62 93 callgsubr
          -583 -1364 52 callsubr
          -68 callsubr
          -58 callgsubr
          endchar
        </CharString>
        <CharString name="Hdotbelow">
          1584 560 -11 callsubr
          -68 callsubr
          -58 callgsubr
          176 -335 -84 callsubr
          -37 callgsubr
        </CharString>
        <CharString name="I">
          704 561 180 -93 callsubr
        </CharString>
        <CharString name="IAcyrillic">
          1430 351 988 rmoveto
          -157 102 -98 151 -39 vhcurveto
          -287 -360 -132 -162 -89 -95 -81 -30 rlinecurve
          -10 -47 406 0 504 645 rlineto
          7 7 -1 8 hhcurveto
          109 hlineto
          -98 -464 -21 -94 -24 -19 -113 -18 rlinecurve
          -10 -49 602 0 10 49 rlineto
          -107 18 -17 18 20 95 230 1084 rcurveline
          20 93 24 20 116 18 11 49 rcurveline
          -621 hlineto
          -462 -255 -174 -282 hvcurveto
          345 -15 rmoveto
          226 147 173 281 12 vhcurveto
          79 2 -145 -682 -95 2 rlineto
          -169 5 -98 98 164 vvcurveto
          endchar
        </CharString>
        <CharString name="IJ">
          1414 561 180 rmoveto
          -2 callsubr
          0 callsubr
          45 callsubr
          724 84 -30 callsubr
          16 callsubr
        </CharString>
        <CharString name="IJacute">
          1414 771 1819 14 callsubr
          385 -1 14 callsubr
          -1215 -1638 rmoveto
          -2 callsubr
          0 callsubr
          45 callsubr
          724 84 -30 callsubr
          16 callsubr
        </CharString>
        <CharString name="IUcyrillic">
          2239 49 hmoveto
          601 hlineto
          11 49 rlineto
          -103 18 -18 20 19 93 112 526 rcurveline
          202 hlineto
          -2 -25 -1 -26 -26 vvcurveto
          -374 240 -277 394 472 339 361 476 374 -239 278 -394 -1 vhcurveto
          -425 -1 -318 -291 -59 -406 rrcurveto
          -196 hlineto
          105 496 20 93 25 19 113 19 -88 callgsubr
          106 -19 18 -19 -20 -93 rlinecurve
          -231 -1084 -91 callgsubr
          1445 -5 rmoveto
          -193 -75 201 249 386 155 520 291 192 75 -201 -249 -386 -155 -520 -290 hvcurveto
          endchar
        </CharString>
        <CharString name="Iacute">
          704 771 1819 14 callsubr
          -520 -1639 -93 callsubr
        </CharString>
        <CharString name="Ibreve">
          704 717 1567 rmoveto
          193 104 63 callsubr
          -86 8 callsubr
          2 7 hvcurveto
          -49 hlineto
          -10 -28 -7 -33 -33 vvcurveto
          72 callsubr
          -156 -1387 -93 callsubr
        </CharString>
        <CharString name="Icaron">
          704 964 1833 -76 callgsubr
          -52 callsubr
          -461 -1653 -93 callsubr
        </CharString>
        <CharString name="Icircumflex">
          704 463 1530 rmoveto
          255 -86 callsubr
          -77 callsubr
          153 -1350 -93 callsubr
        </CharString>
        <CharString name="Icyrillic">
          704 561 180 -93 callsubr
        </CharString>
        <CharString name="Idblgrave">
          704 523 1814 rmoveto
          -241 -4 hlineto
          257 -283 rlineto
          48 hlineto
          264 -73 callgsubr
          -291 -1347 -93 callsubr
        </CharString>
        <CharString name="Idieresis">
          704 543 1558 rmoveto
          68 55 54 66 -46 callsubr
          -62 callsubr
          -46 callsubr
          -305 -1378 -93 callsubr
        </CharString>
        <CharString name="Idieresisacute">
          704 1048 1860 -87 callgsubr
          -10 -42 rlineto
          93 -218 rmoveto
          60 55 37 53 11 hvcurveto
          52 11 -39 38 -58 hhcurveto
          -10 hlineto
          -59 -54 -38 -52 -7 callsubr
          -276 -1377 -93 callsubr
        </CharString>
        <CharString name="Idotaccent">
          704 705 1546 rmoveto
          76 61 59 73 70 -85 callsubr
          -144 -1366 -93 callsubr
        </CharString>
        <CharString name="Idotbelow">
          704 561 180 rmoveto
          -2 callsubr
          0 callsubr
          45 callsubr
          -261 -335 rmoveto
          -76 -61 -59 -73 -70 54 -55 72 -20 callsubr
        </CharString>
        <CharString name="Iecyrillic">
          1231 1421 1444 -98 callsubr
        </CharString>
        <CharString name="Igrave">
          704 695 1816 rmoveto
          -287 -5 hlineto
          315 -284 rlineto
          48 hlineto
          -210 -1347 -93 callsubr
        </CharString>
        <CharString name="Ihookabove">
          704 747 1852 131 callsubr
          39 14 44 hhcurveto
          63 224 callsubr
          82 65 84 vvcurveto
          77 -70 54 -95 vhcurveto
          -186 -1672 -93 callsubr
        </CharString>
        <CharString name="Iicyrillic">
          1596 49 hmoveto
          184 callsubr
        </CharString>
        <CharString name="Iinvertedbreve">
          704 723 1887 28 callgsubr
          168 callsubr
          -95 103 -153 hhcurveto
          -162 -1707 -93 callsubr
        </CharString>
        <CharString name="Iishortcyrillic">
          1596 1132 1579 rmoveto
          166 150 92 196 53 hvcurveto
          -53 16 rlineto
          -161 -47 -122 -86 -135 hhcurveto
          -45 -37 9 14 -31 hvcurveto
          62 56 53 69 75 -55 55 -71 -79 -54 -58 -79 -107 87 -88 155 hvcurveto
          -1083 -1579 rmoveto
          184 callsubr
        </CharString>
        <CharString name="Imacron">
          704 427 1601 rmoveto
          534 hlineto
          31 146 rlineto
          -534 hlineto
          103 -1567 -93 callsubr
        </CharString>
        <CharString name="Iocyrillic">
          1231 821 -36 callsubr
          64 -48 50 -65 -68 -55 -54 -67 -1 hvcurveto
          -63 49 -50 65 vhcurveto
          323 hmoveto
          68 54 54 66 -51 callsubr
          28 callsubr
          277 -113 -98 callsubr
        </CharString>
        <CharString name="Iogonek">
          704 312 41 callgsubr
          -46 77 108 55 18 56 36 44 hvcurveto
          261 hlineto
          11 49 -108 19 -16 19 20 93 rlinecurve
          -2 callsubr
          rlineto
          108 -16 16 -22 -20 -93 -231 -1084 rcurveline
          -19 -92 -24 -20 -116 -19 -10 -49 rcurveline
          285 hlineto
          -153 -88 -76 -110 -108 vvcurveto
          -100 85 -71 121 vhcurveto
          endchar
        </CharString>
        <CharString name="Iotadieresisgreek">
          704 543 1558 rmoveto
          68 55 54 66 -46 callsubr
          -62 callsubr
          -46 callsubr
          -305 -1378 -93 callsubr
        </CharString>
        <CharString name="Iotagreek">
          704 561 180 -93 callsubr
        </CharString>
        <CharString name="Iotatonosgreek">
          1109 966 180 rmoveto
          230 86 callgsubr
          -10 -49 0 callsubr
          -11 -49 605 0 11 49 -109 19 -15 19 20 93 rlinecurve
          -617 1264 -65 callgsubr
          endchar
        </CharString>
        <CharString name="Itilde">
          704 811 1569 112 callsubr
          -39 hhcurveto
          -29 -69 callgsubr
          158 callsubr
          40 -19 51 hhcurveto
          -250 -1389 -93 callsubr
        </CharString>
        <CharString name="Itildebelow">
          704 561 180 rmoveto
          -2 callsubr
          0 callsubr
          45 callsubr
          -156 -596 rmoveto
          93 75 64 218 26 hvcurveto
          -51 hlineto
          -92 -19 -29 -34 -44 -51 callgsubr
          -44 20 -56 hhcurveto
          -93 -75 -64 -215 -26 hvcurveto
          51 hlineto
          90 18 29 33 45 hhcurveto
          31 1 26 -13 36 -25 31 -21 rcurveline
          -31 44 46 -21 55 hhcurveto
          endchar
        </CharString>
        <CharString name="J">
          710 581 264 -30 callsubr
          16 callsubr
        </CharString>
        <CharString name="Jacute">
          710 762 -91 callsubr
          -491 -1554 -30 callsubr
          16 callsubr
        </CharString>
        <CharString name="Jcircumflex">
          710 454 -71 callsubr
          -86 callsubr
          -94 callgsubr
          182 -1265 -30 callsubr
          16 callsubr
        </CharString>
        <CharString name="Jecyrillic">
          710 581 264 -30 callsubr
          16 callsubr
        </CharString>
        <CharString name="K">
          1411 562 180 -10 callsubr
        </CharString>
        <CharString name="Kaacutecyrillic">
          1411 1159 -91 callsubr
          -907 -1638 -10 callsubr
        </CharString>
        <CharString name="Kacute">
          1411 1159 -91 callsubr
          -907 -1638 -10 callsubr
        </CharString>
        <CharString name="Kacyrillic">
          1411 562 180 -10 callsubr
        </CharString>
        <CharString name="Kappagreek">
          1411 562 180 -10 callsubr
        </CharString>
        <CharString name="Kcaron">
          1411 1351 -60 callgsubr
          -57 0 131 -287 -52 callsubr
          -848 -1652 -10 callsubr
        </CharString>
        <CharString name="Kcommaaccent">
          137 callsubr
          117 -636 9 callsubr
          130 callsubr
          24 hhcurveto
          52 42 -23 -45 -44 -41 -26 -64 -47 98 callgsubr
        </CharString>
        <CharString name="Kdotbelow">
          137 callsubr
          153 -335 rmoveto
          -77 -61 -59 -73 -70 55 -55 72 -20 callsubr
        </CharString>
        <CharString name="Klinebelow">
          137 callsubr
          -144 -539 -80 callsubr
        </CharString>
        <CharString name="L">
          1 callsubr
          endchar
        </CharString>
        <CharString name="Lacute">
          1183 758 -17 callsubr
          -100 callgsubr
          36 -1818 rmoveto
          -25 callsubr
          -8 callsubr
          endchar
        </CharString>
        <CharString name="Lambdagreek">
          1391 1256 250 rmoveto
          -144 1197 -220 0 -638 -1168 -102 -189 -36 -25 -103 -16 rlinecurve
          -10 -49 387 0 10 49 -134 21 -16 36 99 189 rlinecurve
          464 885 89 -929 12 -140 -22 -43 -134 -18 rlinecurve
          -11 -50 642 0 10 50 -89 13 -36 31 -18 156 rlinecurve
          endchar
        </CharString>
        <CharString name="Lcaron">
          1183 1096 1096 rmoveto
          318 -38 callgsubr
          59 -1096 rmoveto
          -25 callsubr
          -8 callsubr
          endchar
        </CharString>
        <CharString name="Lcircumflexbelow">
          1 callsubr
          246 -451 -26 callsubr
        </CharString>
        <CharString name="Lcommaaccent">
          1 callsubr
          473 -456 rmoveto
          154 -43 callsubr
          41 98 callsubr
        </CharString>
        <CharString name="Ldot">
          1 callsubr
          978 678 rmoveto
          90 71 70 85 83 -63 63 -85 -89 -73 -69 -87 -81 64 -64 85 hvcurveto
          endchar
        </CharString>
        <CharString name="Ldotbelow">
          1 callsubr
          509 -155 rmoveto
          -76 -61 -59 -73 -70 54 -55 72 -20 callsubr
        </CharString>
        <CharString name="Ldotbelowmacron">
          1183 413 114 callsubr
          659 -1746 rmoveto
          -25 callsubr
          -8 callsubr
          509 -155 rmoveto
          -76 -61 -59 -73 -70 54 -55 72 -20 callsubr
        </CharString>
        <CharString name="Ljecyrillic">
          2076 32 141 rmoveto
          -95 67 -69 108 217 99 272 535 134 vhcurveto
          54 194 52 215 41 187 rrcurveto
          415 hlineto
          -256 -1201 rlineto
          -19 -90 -25 -21 -127 -19 -10 -49 rcurveline
          633 hlineto
          444 287 188 297 241 -218 133 -335 hvcurveto
          -145 hlineto
          87 406 20 91 25 20 124 19 rlinecurve
          11 49 -1170 209 callsubr
          vhcurveto
          1757 374 -105 callgsubr
          -80 -2 157 741 84 -1 rlineto
          171 -4 98 -96 -183 vvcurveto
          endchar
        </CharString>
        <CharString name="Llinebelow">
          1 callsubr
          213 -359 -80 callsubr
        </CharString>
        <CharString name="Lslash">
          1183 188 654 rmoveto
          142 37 -109 -511 -19 -91 -23 -21 -117 -19 rlinecurve
          -11 -49 1052 0 -25 callsubr
          155 729 323 84 13 61 -323 -84 88 417 20 92 25 20 120 19 rlinecurve
          11 49 -610 0 -11 -49 106 -17 17 -28 -23 -110 rlinecurve
          -104 -488 -140 -37 rlineto
          endchar
        </CharString>
        <CharString name="M">
          1802 872 1444 31 callsubr
        </CharString>
        <CharString name="Macute">
          1802 1324 -17 callsubr
          -100 callgsubr
          -761 -374 31 callsubr
        </CharString>
        <CharString name="Mdotaccent">
          1802 1257 -89 callsubr
          -85 callsubr
          -385 -101 31 callsubr
        </CharString>
        <CharString name="Mdotbelow">
          1802 872 1444 rmoveto
          -486 hlineto
          -10 -49 108 -20 20 -43 -31 -126 rlinecurve
          -221 -901 -48 -193 -30 -44 -123 -19 rlinecurve
          -11 -49 381 0 11 49 -122 19 -12 39 43 198 rlinecurve
          200 920 161 -1225 166 0 196 392 460 860 -191 -1075 -16 -89 -26 -21 -118 -18 rlinecurve
          -10 -49 603 0 10 49 -109 18 -13 20 16 90 rlinecurve
          196 1090 16 87 24 22 116 19 rlinecurve
          10 49 -503 0 -523 -1043 rlineto
          -270 -556 rmoveto
          -76 -61 -59 -73 -70 54 -55 72 -20 callsubr
        </CharString>
        <CharString name="Mugreek">
          1802 872 1444 31 callsubr
        </CharString>
        <CharString name="N">
          1451 -22 callsubr
          endchar
        </CharString>
        <CharString name="Nacute">
          1451 1157 -17 callsubr
          -99 callgsubr
          -673 -374 146 callsubr
          endchar
        </CharString>
        <CharString name="Ncaron">
          1451 1349 -78 callsubr
          174 0 246 287 rlineto
          -614 -388 146 callsubr
          endchar
        </CharString>
        <CharString name="Ncircumflexbelow">
          1451 -22 callsubr
          -896 -815 10 callgsubr
        </CharString>
        <CharString name="Ncommaaccent">
          1451 -22 callsubr
          -669 -820 rmoveto
          153 93 72 108 106 -82 62 -95 -78 -67 -33 -53 -38 hvcurveto
          -9 -41 rlineto
          6 16 25 4 25 hhcurveto
          52 123 callsubr
          -34 callgsubr
        </CharString>
        <CharString name="Ndotaccent">
          1451 1090 -89 callsubr
          -85 callsubr
          -297 -101 146 callsubr
          endchar
        </CharString>
        <CharString name="Ndotbelow">
          1451 -22 callsubr
          -633 -519 -84 callsubr
          -56 callsubr
        </CharString>
        <CharString name="Ngrave">
          1451 1080 108 callsubr
          -363 -82 146 callsubr
          endchar
        </CharString>
        <CharString name="Njecyrillic">
          2175 567 180 rmoveto
          121 569 496 0 -120 -569 rlineto
          -20 -92 -24 -20 -116 -19 -10 -49 rcurveline
          620 hlineto
          445 285 178 281 229 -217 126 -336 hvcurveto
          -152 hlineto
          96 451 19 91 26 20 125 19 rlinecurve
          10 49 -614 0 -11 -49 106 -19 17 -19 -19 -93 rlinecurve
          -96 -450 -496 0 96 450 19 92 24 20 114 19 rlinecurve
          10 49 -601 0 -11 -49 106 -19 17 75 callsubr
          -92 callgsubr
          -10 -49 601 0 11 49 -104 18 -18 20 20 93 rlinecurve
          1321 308 rmoveto
          -242 -157 -174 -272 -12 vhcurveto
          -81 -2 149 696 90 -2 rlineto
          175 -4 96 -88 -172 vvcurveto
          endchar
        </CharString>
        <CharString name="Nlinebelow">
          1451 -22 callsubr
          -930 -723 -80 callsubr
        </CharString>
        <CharString name="Ntilde">
          1451 1196 155 callsubr
          -42 17 -50 hhcurveto
          158 callsubr
          41 -19 50 hhcurveto
          -403 -124 146 callsubr
          endchar
        </CharString>
        <CharString name="Nugreek">
          1451 -22 callsubr
          endchar
        </CharString>
        <CharString name="O">
          1619 890 -22 -104 callsubr
          -105 callsubr
          -101 callsubr
        </CharString>
        <CharString name="OE">
          1992 236 640 rmoveto
          -408 282 -253 381 vhcurveto
          120 62 21 124 hhcurveto
          724 hlineto
          104 422 rlineto
          -44 hlineto
          -106 -260 -112 -85 -259 -12 rrcurveto
          -180 -8 138 651 171 -3 122 -6 21 -49 -4 -164 rlinecurve
          43 hlineto
          104 491 rlineto
          -43 hlineto
          -59 -152 -44 -47 -126 -6 rrcurveto
          -172 -4 131 619 163 -8 243 -13 41 -65 13 -247 rlinecurve
          44 hlineto
          66 390 rlineto
          -753 hlineto
          -140 -71 22 -144 hhcurveto
          -496 -344 -359 -467 hvcurveto
          355 -130 rmoveto
          400 195 490 332 68 52 -13 -17 32 vhcurveto
          -278 -1311 rlineto
          -10 -25 -28 -4 -29 hhcurveto
          -203 -116 168 297 hvcurveto
          endchar
        </CharString>
        <CharString name="Oacute">
          1619 1173 -91 callsubr
          -593 -1840 -104 callsubr
          -105 callsubr
          -101 callsubr
        </CharString>
        <CharString name="Obreve">
          1619 1119 1566 rmoveto
          193 104 63 callsubr
          -86 8 callsubr
          2 7 hvcurveto
          -49 hlineto
          -10 -28 -7 -33 -33 vvcurveto
          72 callsubr
          -229 -1588 -104 callsubr
          -105 callsubr
          -101 callsubr
        </CharString>
        <CharString name="Ocaron">
          1619 1366 -78 callsubr
          -52 callsubr
          -534 -1854 -104 callsubr
          -105 callsubr
          -101 callsubr
        </CharString>
        <CharString name="Ocircumflex">
          1619 865 1529 rmoveto
          255 -86 callsubr
          -77 callsubr
          80 -1551 -104 callsubr
          -105 callsubr
          -101 callsubr
        </CharString>
        <CharString name="Ocircumflexacute">
          1619 1446 1838 rmoveto
          31 148 -640 -191 -9 -41 rlineto
          -54 -254 rmoveto
          318 82 282 -82 9 -40 callsubr
          106 -1565 -104 callsubr
          -105 callsubr
          -101 callsubr
        </CharString>
        <CharString name="Ocircumflexdotbelow">
          1619 865 1529 rmoveto
          255 -86 callsubr
          -77 callsubr
          80 -1551 -104 callsubr
          -105 callsubr
          154 callsubr
          -64 -202 -59 callsubr
        </CharString>
        <CharString name="Ocircumflexgrave">
          1619 847 1838 -43 callgsubr
          -104 -486 rmoveto
          318 82 282 -82 9 -40 callsubr
          106 -1565 -104 callsubr
          -105 callsubr
          -101 callsubr
        </CharString>
        <CharString name="Ocircumflexhookabove">
          1619 1424 1937 rmoveto
          -85 -70 -36 -45 -45 hvcurveto
          -6 -32 rlineto
          14 24 46 12 44 hhcurveto
          66 31 -26 -35 -8 hvcurveto
          -7 -37 -40 -27 -73 -15 rrcurveto
          36 -25 146 20 80 40 16 75 rlinecurve
          72 16 -71 45 -100 hhcurveto
          -650 -437 rmoveto
          318 82 282 -82 9 -40 callsubr
          106 -1565 -104 callsubr
          -105 callsubr
          -101 callsubr
        </CharString>
        <CharString name="Ocircumflextilde">
          1619 1259 1787 rmoveto
          111 81 62 119 23 hvcurveto
          -57 hlineto
          -48 -11 -33 -20 -50 hhcurveto
          -31 -30 7 12 -40 hvcurveto
          -34 10 101 callgsubr
          58 hlineto
          48 11 32 20 51 hhcurveto
          31 31 -6 -13 38 hvcurveto
          34 -10 rlineto
          -14 46 44 -10 51 hhcurveto
          -485 -287 rmoveto
          318 82 282 -82 9 -40 callsubr
          106 -1565 -104 callsubr
          -105 callsubr
          -101 callsubr
        </CharString>
        <CharString name="Ocyrillic">
          1619 890 -22 -104 callsubr
          -105 callsubr
          -101 callsubr
        </CharString>
        <CharString name="Odblgrave">
          1619 925 -63 callgsubr
          48 hlineto
          264 -73 callgsubr
          -364 -1548 -104 callsubr
          -105 callsubr
          -101 callsubr
        </CharString>
        <CharString name="Odieresis">
          1619 945 -36 callsubr
          -46 callsubr
          -62 callsubr
          -46 callsubr
          -378 -1579 -104 callsubr
          -105 callsubr
          -101 callsubr
        </CharString>
        <CharString name="Odieresismacron">
          1619 845 1833 rmoveto
          601 hlineto
          24 115 rlineto
          -600 hlineto
          56 -392 -61 callsubr
          -7 callsubr
          -349 -1578 -104 callsubr
          -105 callsubr
          -101 callsubr
        </CharString>
        <CharString name="Odotaccent">
          1619 1107 -89 callsubr
          -85 callsubr
          -217 -1567 -104 callsubr
          -105 callsubr
          -101 callsubr
        </CharString>
        <CharString name="Odotaccentmacron">
          1619 840 1808 rmoveto
          600 hlineto
          25 116 rlineto
          -601 hlineto
          244 -373 rmoveto
          61 47 40 55 -1 hvcurveto
          55 -1 -49 40 -62 hhcurveto
          -61 -47 -33 callgsubr
          -218 -1573 -104 callsubr
          -105 callsubr
          -101 callsubr
        </CharString>
        <CharString name="Odotbelow">
          1619 890 -22 -104 callsubr
          -105 callsubr
          154 callsubr
          -64 -202 -59 callsubr
        </CharString>
        <CharString name="Ograve">
          1619 1097 -83 callgsubr
          -283 -1548 -104 callsubr
          -105 callsubr
          -101 callsubr
        </CharString>
        <CharString name="Ohookabove">
          1619 1148 1851 rmoveto
          -91 -70 -40 -69 -42 hvcurveto
          -8 -36 rlineto
          20 27 39 14 44 hhcurveto
          63 224 callsubr
          82 65 84 vvcurveto
          77 -70 54 -96 vhcurveto
          -258 -1873 -104 callsubr
          -105 callsubr
          -101 callsubr
        </CharString>
        <CharString name="Ohorn">
          1639 233 633 40 callsubr
        </CharString>
        <CharString name="Ohornacute">
          1639 1176 -91 callsubr
          -1253 -1185 40 callsubr
        </CharString>
        <CharString name="Ohorndotbelow">
          1639 233 633 rmoveto
          -391 -3 267 -263 394 hhcurveto
          73 callsubr
          193 callsubr
          230 -635 -84 callsubr
          -56 callsubr
        </CharString>
        <CharString name="Ohorngrave">
          1639 1100 -83 callgsubr
          -943 -893 40 callsubr
        </CharString>
        <CharString name="Ohornhookabove">
          1639 1151 1851 rmoveto
          -91 -71 -40 -69 -42 hvcurveto
          -7 -36 rlineto
          20 27 39 14 44 hhcurveto
          63 224 callsubr
          81 20 callsubr
          -918 -1218 40 callsubr
        </CharString>
        <CharString name="Ohorntilde">
          1639 1216 1568 112 callsubr
          -40 hhcurveto
          -28 -69 callgsubr
          -85 -68 -59 -199 -26 hvcurveto
          50 hlineto
          81 16 26 30 39 hhcurveto
          29 23 -12 -22 32 hvcurveto
          27 -19 rlineto
          -27 40 41 -19 51 hhcurveto
          -983 -935 40 callsubr
        </CharString>
        <CharString name="Ohungarumlaut">
          1619 987 1816 rmoveto
          -101 -288 50 0 299 283 rlineto
          5 vlineto
          97 hmoveto
          -164 -288 54 0 372 283 rlineto
          5 vlineto
          -704 -1838 -104 callsubr
          -105 callsubr
          -101 callsubr
        </CharString>
        <CharString name="Oinvertedbreve">
          1619 1125 1886 28 callgsubr
          168 callsubr
          -95 103 -153 hhcurveto
          -235 -1908 -104 callsubr
          -105 callsubr
          -101 callsubr
        </CharString>
        <CharString name="Omacron">
          1619 829 -24 callsubr
          30 -1768 -104 callsubr
          -105 callsubr
          -101 callsubr
        </CharString>
        <CharString name="Omacronacute">
          1619 1450 1859 -87 callgsubr
          -9 -41 rlineto
          -40 -186 61 callsubr
          72 -1726 -104 callsubr
          -105 callsubr
          -101 callsubr
        </CharString>
        <CharString name="Omacrongrave">
          1619 851 1859 -104 callgsubr
          -89 -418 61 callsubr
          72 -1726 -104 callsubr
          -105 callsubr
          -101 callsubr
        </CharString>
        <CharString name="Omegagreek">
          1705 133 -3 callgsubr
          224 0 121 71 callgsubr
          -61 -289 631 203 callsubr
          337 -62 rrcurveto
          -16 -74 -393 3 -95 46 -34 161 rlinecurve
          -40 hlineto
          endchar
        </CharString>
        <CharString name="Omegatonosgreek">
          1915 343 -3 callgsubr
          223 0 122 71 callgsubr
          -62 -289 632 203 callsubr
          336 -62 rrcurveto
          -15 -74 -393 3 -95 46 -34 161 rlinecurve
          -40 hlineto
          -31 1054 -65 callgsubr
          endchar
        </CharString>
        <CharString name="Omicrongreek">
          1619 890 -22 -104 callsubr
          -105 callsubr
          -101 callsubr
        </CharString>
        <CharString name="Omicrontonosgreek">
          1831 1101 -22 -104 callsubr
          -264 263 -392 -478 -324 -371 -460 -3 hvcurveto
          -392 -2 267 -264 392 hhcurveto
          -752 1466 -65 callgsubr
          436 -1397 rmoveto
          -170 -105 142 291 407 184 510 288 170 105 -142 -292 -432 -196 -484 -276 hvcurveto
          endchar
        </CharString>
        <CharString name="Oogonek">
          1619 891 -21 rmoveto
          73 callsubr
          191 callsubr
        </CharString>
        <CharString name="Oogonekmacron">
          1619 829 -24 callsubr
          31 -1767 rmoveto
          73 callsubr
          191 callsubr
        </CharString>
        <CharString name="Oslash">
          1619 891 -21 rmoveto
          73 callsubr
          174 callsubr
        </CharString>
        <CharString name="Oslashacute">
          1619 1173 -91 callsubr
          -592 -1839 rmoveto
          73 callsubr
          174 callsubr
        </CharString>
        <CharString name="Otilde">
          1619 1213 1568 112 callsubr
          -39 hhcurveto
          -29 -69 callgsubr
          158 callsubr
          40 -19 51 hhcurveto
          -323 -1590 -104 callsubr
          -105 callsubr
          -101 callsubr
        </CharString>
        <CharString name="Otildeacute">
          1619 1450 1859 -87 callgsubr
          -10 -42 rlineto
          379 -211 rmoveto
          111 81 63 118 3 callgsubr
          -110 -81 -62 -118 -23 hvcurveto
          57 hlineto
          48 12 31 19 51 hhcurveto
          31 30 -98 callgsubr
          45 -11 50 hhcurveto
          -321 -1585 -104 callsubr
          -105 callsubr
          -101 callsubr
        </CharString>
        <CharString name="Otildedieresis">
          1619 977 1800 rmoveto
          60 54 38 52 12 hvcurveto
          53 11 -39 37 -59 hhcurveto
          -9 hlineto
          -59 -55 -37 -53 -11 hvcurveto
          -52 -11 38 -38 59 hhcurveto
          333 hmoveto
          57 56 38 52 11 hvcurveto
          53 11 54 callgsubr
          -79 -237 rmoveto
          111 81 63 118 3 callgsubr
          -110 -81 -62 -118 -23 hvcurveto
          57 hlineto
          48 12 31 19 51 hhcurveto
          31 30 -98 callgsubr
          45 -11 50 hhcurveto
          -321 -1585 -104 callsubr
          -105 callsubr
          -101 callsubr
        </CharString>
        <CharString name="Otildemacron">
          1619 845 1833 61 callsubr
          341 -385 rmoveto
          111 81 63 118 3 callgsubr
          -110 -81 -62 -118 -23 hvcurveto
          57 hlineto
          48 12 31 19 51 hhcurveto
          31 30 -98 callgsubr
          45 -11 50 hhcurveto
          -321 -1585 -104 callsubr
          -105 callsubr
          -101 callsubr
        </CharString>
        <CharString name="P">
          1362 673 hmoveto
          32 callsubr
        </CharString>
        <CharString name="Pacute">
          1362 1066 1819 14 callsubr
          -703 -1819 rmoveto
          32 callsubr
        </CharString>
        <CharString name="Pdotaccent">
          1362 1000 1545 rmoveto
          76 61 93 callgsubr
          -327 -1545 rmoveto
          32 callsubr
        </CharString>
        <CharString name="Pecyrillic">
          1579 1431 180 rmoveto
          231 1084 19 94 25 19 115 18 rlinecurve
          11 49 -1477 0 -10 -49 107 -19 17 75 callsubr
          -19 -93 -24 -19 -117 77 callgsubr
          256 1200 529 0 -254 -1200 -20 -94 -24 -19 -114 -18 rlinecurve
          -10 -49 602 0 10 49 -106 17 -18 20 20 94 rlinecurve
          endchar
        </CharString>
        <CharString name="Phigreek">
          1892 227 709 rmoveto
          -27 -301 217 -187 422 -19 rrcurveto
          -6 -27 -19 -89 -27 -27 -115 -16 rlinecurve
          -9 -45 566 0 10 45 rlineto
          -108 17 -17 26 18 89 6 27 rcurveline
          495 12 308 194 28 332 28 302 -230 181 -410 18 rrcurveto
          6 26 19 89 27 27 114 16 rlinecurve
          9 45 -566 0 -9 -45 108 -16 17 -27 -19 -89 rlinecurve
          -6 -25 -479 -11 -322 -187 -29 -335 rlinecurve
          350 -13 rmoveto
          21 257 140 221 308 12 rrcurveto
          -195 -924 -213 27 -83 172 22 235 rlinecurve
          1044 52 rmoveto
          -23 -259 -134 -218 -314 -13 rrcurveto
          195 924 210 -28 86 -175 -20 -231 rlinecurve
          endchar
        </CharString>
        <CharString name="Pigreek">
          1593 1443 183 rmoveto
          229 1077 20 92 22 24 123 19 rlinecurve
          11 49 -1489 0 -11 -49 116 -20 11 -22 -19 -92 rlinecurve
          -229 -1079 -20 -91 -22 -22 -123 -21 rlinecurve
          -10 -49 611 0 10 49 -112 19 -13 25 20 90 rlinecurve
          254 1199 534 0 -253 -1198 -20 -92 -21 -23 -120 -19 rlinecurve
          -11 -49 609 0 11 49 -115 18 -12 24 19 92 rlinecurve
          endchar
        </CharString>
        <CharString name="Psigreek">
          1884 616 hmoveto
          621 hlineto
          10 49 rlineto
          -125 19 -19 25 19 89 72 340 rcurveline
          364 12 189 109 134 374 74 204 rcurveline
          46 126 36 32 91 7 11 49 rcurveline
          5 -31 -63 5 -58 hhcurveto
          -189 -98 -55 -210 -75 hvcurveto
          -73 -204 -100 -276 -75 -95 -170 -20 rlinecurve
          143 676 20 92 27 25 107 17 rlinecurve
          11 49 -567 0 -10 -49 rlineto
          100 -17 16 -25 -20 -92 -143 -676 rcurveline
          -162 20 -34 95 18 276 14 199 rcurveline
          210 14 -76 60 -191 hhcurveto
          -56 -67 -5 -5 -32 hvcurveto
          -10 -49 88 -7 26 -32 -9 -126 rlinecurve
          -13 -204 -24 -372 139 -111 362 -12 rlinecurve
          -72 -340 -19 -89 -30 -27 -131 -17 rlinecurve
          endchar
        </CharString>
        <CharString name="Q">
          1643 1295 -393 rmoveto
          111 104 34 54 70 hvcurveto
          9 45 rlineto
          -122 -14 -90 36 -155 143 -110 102 rcurveline
          353 96 229 322 385 vvcurveto
          392 -105 callsubr
          vhcurveto
          -2 -330 188 -239 294 -67 169 -173 rcurveline
          -169 165 112 -49 136 hhcurveto
          -431 440 rmoveto
          -169 -106 142 291 407 185 510 49 callgsubr
          endchar
        </CharString>
        <CharString name="R">
          1412 1037 hmoveto
          30 callsubr
          endchar
        </CharString>
        <CharString name="Racute">
          1412 1043 -91 callsubr
          -316 -1818 rmoveto
          30 callsubr
          endchar
        </CharString>
        <CharString name="Rcaron">
          1412 1235 1832 rmoveto
          -252 -140 -184 140 -57 0 131 -287 -34 callsubr
          -257 -1832 rmoveto
          30 callsubr
          endchar
        </CharString>
        <CharString name="Rcommaaccent">
          1412 1037 hmoveto
          30 callsubr
          -437 -1546 9 callsubr
          130 callsubr
          25 hhcurveto
          51 42 -23 -45 -44 -41 -26 -64 -47 98 callgsubr
        </CharString>
        <CharString name="Rdblgrave">
          1412 794 -19 callgsubr
          -87 -1526 rmoveto
          30 callsubr
          endchar
        </CharString>
        <CharString name="Rdotaccent">
          1412 977 -89 callsubr
          -53 callgsubr
          60 -1545 rmoveto
          30 callsubr
          endchar
        </CharString>
        <CharString name="Rdotbelow">
          1412 1037 hmoveto
          30 callsubr
          -401 -1245 -59 callsubr
        </CharString>
        <CharString name="Rdotbelowmacron">
          1412 698 114 callsubr
          308 -1746 rmoveto
          30 callsubr
          -401 -1245 -59 callsubr
        </CharString>
        <CharString name="Rhogreek">
          1362 673 hmoveto
          32 callsubr
        </CharString>
        <CharString name="Rinvertedbreve">
          1412 995 1886 rmoveto
          -193 -104 129 callsubr
          110 callgsubr
          49 hlineto
          10 27 7 33 32 vvcurveto
          125 -1 -96 103 -152 hhcurveto
          42 -1886 rmoveto
          30 callsubr
          endchar
        </CharString>
        <CharString name="Rlinebelow">
          1412 1037 hmoveto
          30 callsubr
          -698 -1449 -80 callsubr
        </CharString>
        <CharString name="S">
          1156 586 -23 78 callsubr
          endchar
        </CharString>
        <CharString name="Sacute">
          1156 991 -17 callsubr
          -100 callgsubr
          -714 -1841 78 callsubr
          endchar
        </CharString>
        <CharString name="Sacutedotaccent">
          1156 971 11 callgsubr
          50 -40 62 vhcurveto
          87 callgsubr
          -14 -1561 78 callsubr
          endchar
        </CharString>
        <CharString name="Scaron">
          1156 1183 -78 callsubr
          -34 callsubr
          -656 -1855 78 callsubr
          endchar
        </CharString>
        <CharString name="Scarondotaccent">
          1156 975 1788 rmoveto
          62 46 39 55 hvcurveto
          56 -1 -50 40 -62 hhcurveto
          -61 -47 38 callgsubr
          -9 -42 249 -183 41 0 326 183 rlineto
          -664 -1756 78 callsubr
          endchar
        </CharString>
        <CharString name="Scedilla">
          1156 499 -456 rmoveto
          149 95 76 108 107 -85 68 -123 -3 -4 0 -1 -4 hvcurveto
          69 75 rlineto
          317 253 176 281 159 -74 122 -171 118 hvcurveto
          -107 79 rlineto
          -124 87 -48 74 99 vvcurveto
          134 101 91 151 179 107 -139 -269 11 vhcurveto
          44 hlineto
          60 367 rlineto
          59 -79 -152 52 -191 hhcurveto
          -345 -212 -182 -259 -162 77 -112 166 -116 hvcurveto
          107 -78 rlineto
          128 -90 46 -79 -108 vvcurveto
          -149 -120 -86 -150 -181 -150 124 286 1 vhcurveto
          -45 hlineto
          -62 -381 81 -49 159 -40 161 -8 rlinecurve
          -132 -144 -7 -41 rlineto
          2 4 21 3 10 hhcurveto
          59 36 -28 -45 -45 -37 -27 -61 -50 -44 17 25 -27 -45 callgsubr
        </CharString>
        <CharString name="Schwa">
          1515 772 -23 rmoveto
          454 328 355 456 418 -267 260 -409 -161 -180 -36 -67 -107 hvcurveto
          -82 -380 rlineto
          46 hlineto
          280 113 184 134 175 hhcurveto
          230 97 -209 -308 -62 -3 -59 -5 -57 hvcurveto
          -940 hlineto
          -21 -56 -16 -75 -77 vvcurveto
          -244 131 -273 433 vhcurveto
          -249 407 rmoveto
          92 12 98 22 65 vhcurveto
          621 2 rlineto
          -356 -47 -153 -242 -205 hhcurveto
          -178 -72 152 189 hvcurveto
          endchar
        </CharString>
        <CharString name="Scircumflex">
          1156 683 -71 callsubr
          -86 callsubr
          -77 callsubr
          -41 -1552 78 callsubr
          endchar
        </CharString>
        <CharString name="Scommaaccent">
          1156 586 -23 78 callsubr
          -112 -433 rmoveto
          154 -43 callsubr
          36 callgsubr
          82 hhcurveto
          endchar
        </CharString>
        <CharString name="Sdotaccent">
          1156 924 -89 callsubr
          -85 callsubr
          -338 -1568 78 callsubr
          endchar
        </CharString>
        <CharString name="Sdotbelow">
          1156 586 -23 78 callsubr
          -75 -132 -84 callsubr
          -37 callgsubr
        </CharString>
        <CharString name="Sdotbelowdotaccent">
          1156 924 -89 callsubr
          -85 callsubr
          -338 -1568 78 callsubr
          -75 -132 -84 callsubr
          -37 callgsubr
        </CharString>
        <CharString name="Shacyrillic">
          2336 449 1264 rmoveto
          -231 -1084 -19 -94 -25 -19 -115 -18 rlinecurve
          -10 -49 2221 0 10 49 -106 19 -17 19 19 93 rlinecurve
          231 1084 199 callsubr
          19 94 24 66 callgsubr
        </CharString>
        <CharString name="Shchacyrillic">
          2343 167 callsubr
          1879 hlineto
          235 37 -66 -270 14 hvcurveto
          52 hlineto
          71 401 -185 0 255 1199 199 callsubr
          20 94 23 66 callgsubr
        </CharString>
        <CharString name="Sigmagreek">
          82 callgsubr
          -47 390 -723 -646 -626 -9 -48 1139 0 118 486 rlineto
          -51 hlineto
          -210 -95 -87 -44 -288 hhcurveto
          -433 hlineto
          636 610 3 17 -289 528 301 -7 294 -5 48 -68 6 -228 rlinecurve
          45 hlineto
          endchar
        </CharString>
        <CharString name="Softsigncyrillic">
          1330 1400 163 callsubr
          213 callsubr
          -356 30 -105 callgsubr
          55 callgsubr
        </CharString>
        <CharString name="T">
          -28 callsubr
          endchar
        </CharString>
        <CharString name="Taugreek">
          -28 callsubr
          endchar
        </CharString>
        <CharString name="Tbar">
          1328 358 712 rmoveto
          286 hlineto
          -113 -534 -19 -88 -26 -22 -132 -19 rlinecurve
          -11 -49 134 callsubr
          90 rlinecurve
          114 534 289 0 11 56 -288 0 131 619 39 -2 218 -18 64 -78 3 -235 rlinecurve
          45 hlineto
          64 390 -1185 0 -97 -390 rlineto
          45 hlineto
          57 callsubr
          -132 -619 rlineto
          -286 hlineto
          endchar
        </CharString>
        <CharString name="Tcaron">
          1328 1276 -78 callsubr
          -52 callsubr
          228 -388 rmoveto
          -1185 hlineto
          -97 -390 rlineto
          45 hlineto
          57 callsubr
          110 callsubr
          134 callsubr
          100 callsubr
          endchar
        </CharString>
        <CharString name="Tcedilla">
          1328 598 -456 rmoveto
          150 44 callgsubr
          279 0 10 49 -125 20 -18 19 19 100 callsubr
          64 390 -1185 0 -97 -390 rlineto
          45 hlineto
          57 callsubr
          110 callsubr
          305 0 30 callgsubr
          -61 -49 -45 18 24 -27 -45 callgsubr
        </CharString>
        <CharString name="Tcircumflexbelow">
          -28 callsubr
          -1151 -1505 10 callgsubr
        </CharString>
        <CharString name="Tcommaaccent">
          -28 callsubr
          -924 -1510 rmoveto
          153 93 72 108 106 -82 62 -94 -78 130 callsubr
          24 hhcurveto
          52 123 callsubr
          -34 callgsubr
        </CharString>
        <CharString name="Tdotaccent">
          1328 1017 -89 callsubr
          -85 callsubr
          545 -101 rmoveto
          -1185 hlineto
          -97 -390 rlineto
          45 hlineto
          57 callsubr
          110 callsubr
          134 callsubr
          100 callsubr
          endchar
        </CharString>
        <CharString name="Tdotbelow">
          -28 callsubr
          -888 -1209 -84 callsubr
          -56 callsubr
        </CharString>
        <CharString name="Tecyrillic">
          -28 callsubr
          endchar
        </CharString>
        <CharString name="Thetagreek">
          1681 905 -23 rmoveto
          466 352 348 440 23 hvcurveto
          24 404 -253 299 -438 -1 -467 -1 -349 -350 -23 -441 rrcurveto
          -401 -24 252 -297 437 hhcurveto
          4 61 rmoveto
          -228 -112 231 379 33 hvcurveto
          417 32 141 341 300 hhcurveto
          232 110 -230 -383 -33 hvcurveto
          -416 -33 -143 -339 -299 hhcurveto
          -230 444 rmoveto
          39 hlineto
          144 50 53 63 102 hhcurveto
          119 hlineto
          101 27 -63 -144 -12 hvcurveto
          38 hlineto
          103 481 rlineto
          -39 hlineto
          -143 -51 -53 -60 -100 hhcurveto
          -118 hlineto
          -100 -28 60 143 10 hvcurveto
          -38 hlineto
          endchar
        </CharString>
        <CharString name="Thorn">
          1365 217 180 rmoveto
          -19 -93 -24 -20 -116 -18 rrcurveto
          -10 -49 604 0 10 49 rlineto
          -105 18 -18 19 19 94 33 153 rcurveline
          157 hlineto
          371 314 152 287 217 -175 153 -370 hvcurveto
          -125 1 26 120 19 94 25 19 115 18 rlinecurve
          11 50 -605 0 -10 -50 106 -18 18 -19 -20 -94 rlinecurve
          631 -453 rmoveto
          1 -217 -133 -188 -263 -12 rrcurveto
          -81 -3 148 695 76 -2 rlineto
          165 -8 87 -116 -149 vvcurveto
          endchar
        </CharString>
        <CharString name="Tlinebelow">
          -28 callsubr
          -1185 -1413 -80 callsubr
        </CharString>
        <CharString name="Tsecyrillic">
          1597 167 callsubr
          1132 hlineto
          236 38 -66 -270 15 hvcurveto
          51 hlineto
          72 401 -187 0 255 1199 19 93 25 19 115 19 rlinecurve
          11 49 -602 0 -10 -49 103 -18 18 -20 -20 -93 rlinecurve
          -255 -1199 -530 0 255 1199 19 94 24 66 callgsubr
        </CharString>
        <CharString name="Tshecyrillic">
          1817 1566 1444 rmoveto
          -1190 hlineto
          -96 -390 rlineto
          45 hlineto
          100 228 85 84 220 callsubr
          22 65 67 15 88 hhcurveto
          181 69 -110 -205 -44 hvcurveto
          -90 -425 473 0 10 49 rlineto
          -107 17 -16 20 19 92 42 196 rcurveline
          306 63 -169 148 -313 hhcurveto
          -137 -100 -24 -34 -87 hvcurveto
          61 callgsubr
          endchar
        </CharString>
        <CharString name="U">
          1479 782 -23 -95 callsubr
        </CharString>
        <CharString name="Uacute">
          1479 1215 -91 callsubr
          -743 -1841 -95 callsubr
        </CharString>
        <CharString name="Ubreve">
          1479 1161 1566 rmoveto
          193 103 63 callsubr
          -85 8 callsubr
          1 7 hvcurveto
          -48 hlineto
          -10 -28 -7 -33 -33 vvcurveto
          72 callsubr
          -379 -1589 -95 callsubr
        </CharString>
        <CharString name="Ubrevecyrillic">
          1436 1138 -11 callgsubr
          -31 hvcurveto
          63 55 53 69 75 -55 55 -71 -78 -54 -58 -79 -107 87 -88 154 hvcurveto
          -904 -1439 186 callsubr
        </CharString>
        <CharString name="Ucaron">
          1479 1407 -60 callgsubr
          -58 0 131 -287 -34 callsubr
          -684 -1855 -95 callsubr
        </CharString>
        <CharString name="Ucircumflex">
          1479 907 -71 callsubr
          -86 callsubr
          -94 callgsubr
          -70 -1552 -95 callsubr
        </CharString>
        <CharString name="Ucircumflexbelow">
          82 callsubr
          -304 -428 rmoveto
          265 25 callgsubr
        </CharString>
        <CharString name="Ucyrillic">
          1436 234 140 186 callsubr
        </CharString>
        <CharString name="Udblgrave">
          1479 966 -19 callgsubr
          -514 -1549 -95 callsubr
        </CharString>
        <CharString name="Udieresis">
          1479 987 -36 callsubr
          111 callsubr
          -62 callsubr
          111 callsubr
          -528 -1580 -95 callsubr
        </CharString>
        <CharString name="Udieresisacute">
          1479 1492 1859 -87 callgsubr
          -9 -42 rlineto
          93 -218 -61 callsubr
          -7 callsubr
          -499 -1579 -95 callsubr
        </CharString>
        <CharString name="Udieresisbelow">
          82 callsubr
          -247 -387 rmoveto
          -102 callgsubr
          -52 callgsubr
          393 hmoveto
          -102 callgsubr
          -52 callgsubr
          endchar
        </CharString>
        <CharString name="Udieresiscaron">
          1479 1523 69 callgsubr
          38 0 318 176 rlineto
          -546 -402 -61 callsubr
          -7 callsubr
          -499 -1579 -95 callsubr
        </CharString>
        <CharString name="Udieresisgrave">
          1479 893 1859 rmoveto
          582 -85 8 42 -559 191 rlineto
          44 -451 -61 callsubr
          -7 callsubr
          -499 -1579 -95 callsubr
        </CharString>
        <CharString name="Udieresismacron">
          1479 888 1833 -44 callgsubr
          56 -392 -61 callsubr
          -7 callsubr
          -499 -1579 -95 callsubr
        </CharString>
        <CharString name="Udotbelow">
          82 callsubr
          -41 -132 -84 callsubr
          -56 callsubr
        </CharString>
        <CharString name="Ugrave">
          1479 1139 81 callgsubr
          -433 -1549 -95 callsubr
        </CharString>
        <CharString name="Uhookabove">
          1479 1190 1851 -41 callgsubr
          28 39 -36 callgsubr
          230 callsubr
          -408 -1874 -95 callsubr
        </CharString>
        <CharString name="Uhorn">
          1608 301 633 43 callsubr
        </CharString>
        <CharString name="Uhornacute">
          1608 1228 -91 callsubr
          -1237 -1185 43 callsubr
        </CharString>
        <CharString name="Uhorndotbelow">
          1608 301 633 rmoveto
          -478 -102 267 -178 317 hhcurveto
          188 callsubr
          265 -1414 -59 callsubr
        </CharString>
        <CharString name="Uhorngrave">
          1608 1152 81 callgsubr
          -927 -893 43 callsubr
        </CharString>
        <CharString name="Uhornhookabove">
          1608 1203 1851 -41 callgsubr
          28 39 -36 callgsubr
          230 callsubr
          -902 -1218 43 callsubr
        </CharString>
        <CharString name="Uhorntilde">
          1608 1268 -82 callgsubr
          16 26 -55 callgsubr
          -967 -935 43 callsubr
        </CharString>
        <CharString name="Uhungarumlaut">
          1479 1029 1816 rmoveto
          -102 -288 51 0 299 283 rlineto
          5 vlineto
          96 hmoveto
          -163 -288 54 0 372 283 rlineto
          5 vlineto
          -854 -1839 -95 callsubr
        </CharString>
        <CharString name="Uinvertedbreve">
          1479 1167 1886 rmoveto
          -193 -104 129 callsubr
          144 hhcurveto
          113 168 callsubr
          -96 103 -152 hhcurveto
          -385 -1909 -95 callsubr
        </CharString>
        <CharString name="Umacron">
          1479 870 114 callsubr
          -119 -1769 -95 callsubr
        </CharString>
        <CharString name="Umacrondieresis">
          1479 1020 -59 callgsubr
          54 callgsubr
          162 callsubr
          -11 39 -38 58 hhcurveto
          -475 -211 rmoveto
          556 hlineto
          25 115 rlineto
          -556 hlineto
          -100 -1727 -95 callsubr
        </CharString>
        <CharString name="Uogonek">
          1479 752 41 callgsubr
          -47 74 103 50 17 50 32 41 hvcurveto
          318 19 188 219 74 330 rrcurveto
          137 606 42 185 24 37 123 21 rlinecurve
          10 49 -376 0 -11 -49 rlineto
          123 -23 12 -36 -35 -184 -118 -596 rcurveline
          -287 -57 -162 97 callsubr
          20 117 21 rlinecurve
          10 49 -599 0 -10 -49 100 -20 16 -20 -20 -96 rlinecurve
          -133 -626 -99 -466 253 -181 307 -9 rlinecurve
          -143 -83 -72 -101 -99 vvcurveto
          -100 87 -71 120 vhcurveto
          endchar
        </CharString>
        <CharString name="Upsilondieresisgreek">
          1338 942 -36 callsubr
          -51 callsubr
          23 callsubr
          64 vhcurveto
          -62 callsubr
          -51 callsubr
          23 callsubr
          64 vhcurveto
          -802 -366 -75 callsubr
        </CharString>
        <CharString name="Upsilongreek">
          1338 463 1191 -75 callsubr
        </CharString>
        <CharString name="Upsilontonosgreek">
          1770 895 83 callgsubr
          -131 -18 rlinecurve
          -10 -49 636 0 11 -56 callgsubr
          386 512 131 175 39 33 99 17 rlinecurve
          11 148 callsubr
          28 -28 53 -161 rlinecurve
          -546 253 -65 callgsubr
          endchar
        </CharString>
        <CharString name="Uring">
          1479 914 1714 rmoveto
          -104 105 -62 123 166 20 callgsubr
          38 23 -29 -56 -90 -43 -80 -55 -39 -22 28 57 vhcurveto
          -302 -1704 -95 callsubr
        </CharString>
        <CharString name="Utilde">
          1479 1255 -82 callgsubr
          16 26 -55 callgsubr
          -473 -1591 -95 callsubr
        </CharString>
        <CharString name="Utildeacute">
          1479 1492 1859 -87 callgsubr
          228 callsubr
          3 callgsubr
          -109 -82 -62 -118 -23 hvcurveto
          57 hlineto
          48 12 31 19 52 hhcurveto
          30 30 -6 -12 39 hvcurveto
          35 -10 rlineto
          -14 45 45 -11 51 hhcurveto
          -472 -1586 -95 callsubr
        </CharString>
        <CharString name="Utildebelow">
          82 callsubr
          63 -393 -23 callgsubr
        </CharString>
        <CharString name="V">
          105 callgsubr
          endchar
        </CharString>
        <CharString name="Vdotbelow">
          105 callgsubr
          225 -1339 rmoveto
          -77 -61 -59 -73 -70 55 -55 72 -20 callsubr
        </CharString>
        <CharString name="Vecyrillic">
          1394 1409 447 84 callsubr
        </CharString>
        <CharString name="Vtilde">
          1390 1223 -82 callgsubr
          15 27 -55 callgsubr
          -789 -384 rmoveto
          196 callsubr
          endchar
        </CharString>
        <CharString name="W">
          2143 418 1185 -9 callsubr
        </CharString>
        <CharString name="Wacute">
          2143 1604 -91 callsubr
          -1496 -633 -9 callsubr
        </CharString>
        <CharString name="Wcircumflex">
          2143 1296 1529 rmoveto
          255 141 184 -141 53 0 -132 288 -94 callgsubr
          -823 -344 -9 callsubr
        </CharString>
        <CharString name="Wdieresis">
          2143 1376 -36 callsubr
          -46 callsubr
          -62 callsubr
          -46 callsubr
          -1281 -372 -9 callsubr
        </CharString>
        <CharString name="Wdotaccent">
          2143 1538 -89 callsubr
          -85 callsubr
          -1120 -360 -9 callsubr
        </CharString>
        <CharString name="Wdotbelow">
          2143 418 1185 rmoveto
          116 -1192 206 0 562 1127 95 -1127 213 0 588 1155 103 203 45 28 99 16 rlinecurve
          10 49 -386 0 -11 -49 121 -15 12 -42 -85 -184 rlinecurve
          -398 -846 -59 872 -12 167 18 30 115 18 rlinecurve
          11 49 -595 0 -11 -49 117 -18 11 -65 -70 -149 rlinecurve
          -399 -854 -62 873 -10 151 24 45 121 17 rlinecurve
          11 49 -621 0 -11 -49 82 -14 34 -30 16 -166 rlinecurve
          601 -1340 -84 callsubr
          -56 callsubr
        </CharString>
        <CharString name="Wgrave">
          2143 1528 -83 callgsubr
          -1186 -341 -9 callsubr
        </CharString>
        <CharString name="X">
          1337 324 289 29 callsubr
        </CharString>
        <CharString name="Xdieresis">
          1337 956 1557 rmoveto
          67 -93 callgsubr
          28 callsubr
          323 hmoveto
          67 -93 callgsubr
          28 callsubr
          -955 -1268 29 callsubr
        </CharString>
        <CharString name="Xdotaccent">
          1337 1117 -89 callsubr
          -85 callsubr
          -793 -1256 29 callsubr
        </CharString>
        <CharString name="Xigreek">
          1327 1554 1444 rmoveto
          -1156 hlineto
          -112 -432 rlineto
          47 hlineto
          176 85 83 35 261 hhcurveto
          332 hlineto
          261 68 -35 -176 11 hvcurveto
          47 hlineto
          -762 -315 rmoveto
          196 hlineto
          151 31 -56 -148 -9 hvcurveto
          44 hlineto
          100 468 rlineto
          -45 hlineto
          -146 -54 -55 -54 -150 hhcurveto
          -196 hlineto
          -150 -32 54 146 8 hvcurveto
          -45 hlineto
          -99 -468 rlineto
          45 hlineto
          148 54 55 56 151 hhcurveto
          550 -697 rmoveto
          121 485 rlineto
          -48 hlineto
          -213 -96 -85 -42 -288 hhcurveto
          -312 hlineto
          -288 -66 42 213 -7 hvcurveto
          -46 hlineto
          -85 -485 rlineto
          endchar
        </CharString>
        <CharString name="Xigreek.1">
          1344 54 hmoveto
          1223 hlineto
          121 485 rlineto
          -48 hlineto
          -213 -96 -84 -42 -289 hhcurveto
          -140 hlineto
          98 467 rlineto
          85 hlineto
          150 31 -56 -148 -9 hvcurveto
          44 hlineto
          99 468 rlineto
          -44 hlineto
          -146 -54 -55 -54 -149 hhcurveto
          -84 hlineto
          97 462 rlineto
          152 hlineto
          261 68 -35 -176 11 hvcurveto
          47 hlineto
          73 432 -1179 0 -112 -432 rlineto
          47 hlineto
          176 86 83 35 261 hhcurveto
          152 hlineto
          -98 -462 rlineto
          -85 hlineto
          -150 -32 54 146 7 hvcurveto
          -43 hlineto
          -99 -468 rlineto
          43 hlineto
          148 55 55 56 151 hhcurveto
          85 hlineto
          -99 -467 rlineto
          -144 hlineto
          -288 -66 42 213 -6 hvcurveto
          -47 hlineto
          endchar
        </CharString>
        <CharString name="Y">
          1338 463 1191 -75 callsubr
        </CharString>
        <CharString name="Yacute">
          1338 1171 -17 callsubr
          -99 callgsubr
          -1017 -627 -75 callsubr
        </CharString>
        <CharString name="Ycircumflex">
          1338 863 -71 callsubr
          -86 callsubr
          -77 callsubr
          -344 -338 -75 callsubr
        </CharString>
        <CharString name="Ydieresis">
          1338 942 -36 callsubr
          -51 callsubr
          23 callsubr
          64 vhcurveto
          -62 callsubr
          -51 callsubr
          23 callsubr
          64 vhcurveto
          -802 -366 -75 callsubr
        </CharString>
        <CharString name="Ydotaccent">
          1338 1104 -89 callsubr
          -85 callsubr
          -641 -354 -75 callsubr
        </CharString>
        <CharString name="Ydotbelow">
          1338 463 83 callgsubr
          -130 -18 rlinecurve
          -11 -49 637 0 10 -56 callgsubr
          387 512 130 175 39 33 100 17 rlinecurve
          10 148 callsubr
          29 -28 52 -161 rlinecurve
          166 -1346 -84 callsubr
          76 62 59 74 69 -54 55 -72 hvcurveto
          endchar
        </CharString>
        <CharString name="Yericyrillic">
          1991 1400 163 callsubr
          213 callsubr
          449 -305 rmoveto
          231 86 callgsubr
          -11 -49 109 -16 15 -22 -19 -93 rlinecurve
          -231 -1084 -20 -92 -23 -20 -70 callsubr
          605 0 10 49 -108 19 -16 19 20 93 rlinecurve
          -805 335 -105 callgsubr
          55 callgsubr
        </CharString>
        <CharString name="Ygrave">
          1338 1094 108 callsubr
          -707 -335 -75 callsubr
        </CharString>
        <CharString name="Yhookabove">
          1338 1146 1851 131 callsubr
          40 14 43 hhcurveto
          63 224 callsubr
          82 20 callsubr
          -683 -660 -75 callsubr
        </CharString>
        <CharString name="Yicyrillic">
          704 543 1558 rmoveto
          68 55 54 66 -46 callsubr
          -62 callsubr
          -46 callsubr
          -305 -1378 -93 callsubr
        </CharString>
        <CharString name="Ymacron">
          1338 826 -24 callsubr
          -394 -555 -75 callsubr
        </CharString>
        <CharString name="Ytilde">
          1338 1210 155 callsubr
          -41 17 -51 hhcurveto
          -84 -69 -59 -199 -25 hvcurveto
          49 hlineto
          81 16 26 30 40 hhcurveto
          28 24 -12 -22 31 hvcurveto
          27 -19 rlineto
          -27 41 41 -19 50 hhcurveto
          -747 -377 -75 callsubr
        </CharString>
        <CharString name="Z">
          1242 1163 hmoveto
          -76 callsubr
          -4 callsubr
        </CharString>
        <CharString name="Zacute">
          1242 1047 -91 callsubr
          -194 -1818 rmoveto
          -76 callsubr
          -4 callsubr
        </CharString>
        <CharString name="Zcaron">
          1242 1240 -78 callsubr
          -52 callsubr
          -135 -1832 rmoveto
          -76 callsubr
          -4 callsubr
        </CharString>
        <CharString name="Zcircumflex">
          1242 739 -71 callsubr
          141 185 -141 53 0 -132 288 -94 callgsubr
          479 -1529 rmoveto
          -76 callsubr
          -4 callsubr
        </CharString>
        <CharString name="Zdotaccent">
          1242 981 -89 callsubr
          -85 callsubr
          182 -1545 rmoveto
          -76 callsubr
          -4 callsubr
        </CharString>
        <CharString name="Zdotbelow">
          1242 1163 hmoveto
          -76 callsubr
          56 callsubr
          -211 -8 977 41 callsubr
          -85 callgsubr
          522 -155 -84 callsubr
          -56 callsubr
        </CharString>
        <CharString name="Zecyrillic">
          1304 580 -23 rmoveto
          420 315 178 304 197 -184 91 -242 15 hvcurveto
          290 29 221 124 232 vvcurveto
          212 -196 108 -325 -175 -155 -41 -61 -100 vhcurveto
          -84 -352 rlineto
          45 hlineto
          264 104 161 123 174 hhcurveto
          132 70 -105 -139 -208 -126 -169 -240 hvcurveto
          -130 hlineto
          -14 -63 rlineto
          130 hlineto
          188 93 -102 -165 -202 -131 -202 -248 -1 hvcurveto
          -200 -99 169 211 -7 hvcurveto
          -46 hlineto
          -49 -335 rlineto
          -63 85 142 -49 181 hhcurveto
          endchar
        </CharString>
        <CharString name="Zetagreek">
          1242 1163 hmoveto
          -76 callsubr
          -4 callsubr
        </CharString>
        <CharString name="Zhecyrillic">
          2138 416 hmoveto
          553 704 88 1 -112 -525 -19 -93 -25 -19 -120 -19 rlinecurve
          -10 -49 614 0 10 49 -110 19 -19 18 20 94 rlinecurve
          112 525 88 -1 252 -704 405 0 10 47 -53 26 -33 35 -79 213 rlinecurve
          -225 639 255 225 158 140 75 48 123 22 rlinecurve
          11 49 -431 0 -10 -49 122 -21 -1 -48 -107 -106 rlinecurve
          -457 -450 -90 -1 105 495 20 93 26 19 119 19 rlinecurve
          10 49 -614 0 -10 -49 111 -16 18 -21 -21 -94 rlinecurve
          -105 -495 -88 0 -274 453 -69 112 24 43 123 18 rlinecurve
          11 49 -434 0 -10 -49 118 -23 59 -41 102 -143 rlinecurve
          155 -217 -495 -640 rlineto
          -171 -218 -47 -41 -65 -25 -10 -47 rcurveline
          endchar
        </CharString>
        <CharString name="Zlinebelow">
          1242 1163 hmoveto
          -76 callsubr
          56 callsubr
          -211 -8 977 41 callsubr
          -85 callgsubr
          225 -359 -80 callsubr
        </CharString>
        <CharString name="a">
          1183 -3 callsubr
          -107 callsubr
          -102 callsubr
        </CharString>
        <CharString name="a.dnum">
          719 110 186 rmoveto
          -123 1 66 -74 97 hhcurveto
          84 69 51 92 29 hvcurveto
          -2 -7 -3 -23 -8 vvcurveto
          -70 -5 37 -32 68 hhcurveto
          74 65 32 44 32 hvcurveto
          8 34 rlineto
          -10 -14 -18 -5 -19 hhcurveto
          -26 -12 16 40 9 hvcurveto
          80 379 -124 0 -74 -62 rlineto
          38 -13 -47 35 -77 hhcurveto
          -170 -117 -154 -193 2 hvcurveto
          203 -19 rmoveto
          117 -1 44 183 99 hhcurveto
          31 21 -14 -19 6 hvcurveto
          -54 -253 rlineto
          -67 -16 -36 -38 -38 hhcurveto
          -34 -21 24 67 -1 hvcurveto
          endchar
        </CharString>
        <CharString name="a.numr">
          719 258 885 rmoveto
          -123 1 67 -74 96 hhcurveto
          84 70 51 92 28 hvcurveto
          -1 -7 -4 -23 -8 vvcurveto
          -70 -5 37 -33 68 hhcurveto
          74 66 33 43 32 hvcurveto
          7 35 rlineto
          -10 -13 -19 -6 -19 hhcurveto
          -25 -13 17 40 9 hvcurveto
          80 378 -124 0 -73 -61 rlineto
          37 -14 -47 35 -76 hhcurveto
          -171 -116 -153 -193 1 hvcurveto
          203 -20 rmoveto
          118 -1 44 183 99 hhcurveto
          31 21 -14 -19 7 hvcurveto
          -55 -253 rlineto
          -67 -16 -36 -38 -38 hhcurveto
          -33 -21 24 66 -2 hvcurveto
          endchar
        </CharString>
        <CharString name="a.sups">
          719 297 1064 rmoveto
          -123 1 66 -74 96 hhcurveto
          85 69 51 93 29 hvcurveto
          -2 -8 -3 -22 -9 vvcurveto
          -69 -5 36 -33 68 hhcurveto
          74 66 33 43 32 hvcurveto
          8 34 rlineto
          -10 -14 -19 -5 -18 hhcurveto
          -26 -13 16 41 9 hvcurveto
          81 378 -125 0 -73 -62 rlineto
          38 -14 -47 35 -76 hhcurveto
          -170 -117 -153 -194 2 hvcurveto
          203 -19 rmoveto
          118 -2 44 183 99 hhcurveto
          31 22 -15 -18 6 hvcurveto
          -54 -254 rlineto
          -67 -17 -35 -37 -39 hhcurveto
          -33 -21 24 66 -1 hvcurveto
          endchar
        </CharString>
        <CharString name="aacute">
          1183 928 -83 callsubr
          -1096 -1127 -106 callsubr
          -107 callsubr
          -102 callsubr
        </CharString>
        <CharString name="abreve">
          1183 856 116 callsubr
          2 8 1 95 callgsubr
          167 vhcurveto
          -685 -782 -106 callsubr
          -107 callsubr
          -102 callsubr
        </CharString>
        <CharString name="abreveacute">
          48 callgsubr
          232 -288 rmoveto
          179 140 97 158 28 hvcurveto
          -56 hlineto
          -61 -20 -106 -40 -133 hhcurveto
          -133 -88 74 callsubr
          -41 100 -97 180 hhcurveto
          -640 -739 -106 callsubr
          -107 callsubr
          -102 callsubr
        </CharString>
        <CharString name="abrevecyrillic">
          1183 816 210 callsubr
          -60 57 -77 -85 -58 -65 -84 -124 102 -87 157 hvcurveto
          -645 -793 -106 callsubr
          -107 callsubr
          -102 callsubr
        </CharString>
        <CharString name="abrevedotbelow">
          1183 856 116 callsubr
          2 8 1 95 callgsubr
          167 vhcurveto
          -685 -782 -106 callsubr
          -107 callsubr
          33 callsubr
          111 -734 -88 callsubr
          13 callsubr
        </CharString>
        <CharString name="abrevegrave">
          39 callgsubr
          174 -561 rmoveto
          179 140 97 158 28 hvcurveto
          -56 hlineto
          -61 -20 -106 -40 -133 hhcurveto
          -133 -88 74 callsubr
          -41 100 -97 180 hhcurveto
          -640 -739 -106 callsubr
          -107 callsubr
          -102 callsubr
        </CharString>
        <CharString name="abrevehookabove">
          1183 909 102 callgsubr
          25 46 14 45 hhcurveto
          68 65 callgsubr
          83 223 callsubr
          179 140 97 158 28 hvcurveto
          -56 hlineto
          -61 -20 -106 -40 -133 hhcurveto
          -133 -88 74 callsubr
          -41 100 -97 180 hhcurveto
          -640 -739 -106 callsubr
          -107 callsubr
          -102 callsubr
        </CharString>
        <CharString name="abrevetilde">
          1183 998 127 callsubr
          -56 hlineto
          -57 -13 -32 -22 -50 hhcurveto
          -30 -29 7 14 -38 -89 callgsubr
          120 callsubr
          53 callgsubr
          -187 -316 rmoveto
          179 140 97 158 28 hvcurveto
          -56 hlineto
          -61 -20 -106 -40 -133 hhcurveto
          -133 -88 74 callsubr
          -41 100 -97 180 hhcurveto
          -640 -739 -106 callsubr
          -107 callsubr
          -102 callsubr
        </CharString>
        <CharString name="acaron">
          1183 1137 -37 callsubr
          229 callsubr
          -1029 -1150 -106 callsubr
          -107 callsubr
          -102 callsubr
        </CharString>
        <CharString name="acircumflex">
          1183 573 15 callsubr
          59 66 callsubr
          -340 -753 -106 callsubr
          -107 callsubr
          -102 callsubr
        </CharString>
        <CharString name="acircumflexacute">
          48 callgsubr
          -62 -293 rmoveto
          313 -21 callsubr
          -357 -784 -106 callsubr
          -107 callsubr
          -102 callsubr
        </CharString>
        <CharString name="acircumflexdotbelow">
          1183 573 15 callsubr
          59 66 callsubr
          -340 -753 -106 callsubr
          -107 callsubr
          33 callsubr
          111 -734 -88 callsubr
          13 callsubr
        </CharString>
        <CharString name="acircumflexgrave">
          39 callgsubr
          -120 -566 rmoveto
          313 -21 callsubr
          -357 -784 -106 callsubr
          -107 callsubr
          -102 callsubr
        </CharString>
        <CharString name="acircumflexhookabove">
          1183 1143 102 callgsubr
          26 45 14 46 hhcurveto
          67 31 -30 -42 -9 hvcurveto
          -9 -43 -41 -31 -75 -18 rrcurveto
          37 -30 149 25 83 46 19 88 rlinecurve
          84 18 -70 54 -103 hhcurveto
          -626 -537 rmoveto
          313 -21 callsubr
          -357 -784 -106 callsubr
          -107 callsubr
          -102 callsubr
        </CharString>
        <CharString name="acircumflextilde">
          1183 998 127 callsubr
          -56 hlineto
          -57 -13 -32 -22 -50 hhcurveto
          -30 -29 7 14 -38 -89 callgsubr
          120 callsubr
          53 callgsubr
          -481 -321 rmoveto
          313 -21 callsubr
          -357 -784 -106 callsubr
          -107 callsubr
          -102 callsubr
        </CharString>
        <CharString name="acute">
          1024 861 -83 callsubr
          endchar
        </CharString>
        <CharString name="acutecmb">
          0 349 -83 callsubr
          endchar
        </CharString>
        <CharString name="acutecmb.short">
          0 322 1368 14 callsubr
          endchar
        </CharString>
        <CharString name="acutedotaccentcmb">
          7 callgsubr
          233 -166 rmoveto
          38 174 -634 -225 -10 -49 rlineto
          endchar
        </CharString>
        <CharString name="acutedotaccentcmb.short">
          0 398 11 callgsubr
          1 50 -40 61 hhcurveto
          87 callgsubr
          endchar
        </CharString>
        <CharString name="acyrillic">
          1183 -3 callsubr
          -107 callsubr
          -102 callsubr
        </CharString>
        <CharString name="adblgrave">
          1183 627 -15 callsubr
          302 99 callsubr
          -848 -749 -106 callsubr
          -107 callsubr
          -102 callsubr
        </CharString>
        <CharString name="adieresis">
          1183 637 1155 rmoveto
          85 67 65 81 77 -60 60 -79 -84 -69 -65 -82 -76 60 -60 80 hvcurveto
          423 -38 callsubr
          -82 callsubr
          -889 -804 -106 callsubr
          -107 callsubr
          -102 callsubr
        </CharString>
        <CharString name="adieresismacron">
          1183 589 -49 callgsubr
          -586 hlineto
          29 -451 54 callsubr
          -62 -59 -45 -62 -12 hvcurveto
          -61 -13 21 callsubr
          58 -13 callsubr
          -61 hhcurveto
          -11 hlineto
          -61 -59 -45 -62 -14 hvcurveto
          -61 -12 40 -44 61 hhcurveto
          -804 -757 -106 callsubr
          -107 callsubr
          -102 callsubr
        </CharString>
        <CharString name="adotaccent">
          1183 848 1146 rmoveto
          89 72 92 callgsubr
          -677 -795 -106 callsubr
          -107 callsubr
          -102 callsubr
        </CharString>
        <CharString name="adotbelow">
          1183 -3 callsubr
          -107 callsubr
          33 callsubr
          111 -734 -88 callsubr
          13 callsubr
        </CharString>
        <CharString name="adotmacron">
          1183 586 1412 rmoveto
          585 hlineto
          30 136 rlineto
          -586 hlineto
          19 callgsubr
          -667 -754 -106 callsubr
          -107 callsubr
          -102 callsubr
        </CharString>
        <CharString name="ae">
          1521 247 779 135 callsubr
        </CharString>
        <CharString name="aeacute">
          1521 1111 -83 callsubr
          -1203 -699 135 callsubr
        </CharString>
        <CharString name="aemacron">
          1521 720 48 callsubr
          -509 -589 135 callsubr
        </CharString>
        <CharString name="agrave">
          1183 842 -44 callsubr
          -747 -749 -106 callsubr
          -107 callsubr
          -102 callsubr
        </CharString>
        <CharString name="ahookabove">
          1183 901 1491 rmoveto
          -105 -81 -47 -85 -48 hvcurveto
          -10 -43 rlineto
          25 30 46 16 48 hhcurveto
          71 39 -32 -53 -56 -50 -57 -104 -54 hvcurveto
          60 hlineto
          197 54 93 77 99 vvcurveto
          91 -78 65 -108 vhcurveto
          -730 -1140 -106 callsubr
          -107 callsubr
          -102 callsubr
        </CharString>
        <CharString name="ainvertedbreve">
          1183 861 1474 rmoveto
          -210 -117 -152 -212 -6 hvcurveto
          53 hlineto
          105 21 94 64 156 hhcurveto
          124 85 -60 -85 -8 0 -9 -2 -7 hvcurveto
          54 -75 callgsubr
          -690 -1123 -106 callsubr
          -107 callsubr
          -102 callsubr
        </CharString>
        <CharString name="alphagreek">
          1262 474 -19 176 callsubr
        </CharString>
        <CharString name="alphatonosgreek">
          1262 900 58 callgsubr
          -717 -1525 176 callsubr
        </CharString>
        <CharString name="amacron">
          1183 537 48 callsubr
          -402 -1017 -106 callsubr
          -107 callsubr
          -102 callsubr
        </CharString>
        <CharString name="ampersand">
          1513 115 335 rmoveto
          -200 155 -158 252 167 139 79 157 150 vhcurveto
          172 -213 424 0 8 37 -80 45 -77 72 -99 124 rlinecurve
          -138 174 154 190 136 164 50 37 106 14 rlinecurve
          9 50 -398 0 -9 -50 123 -14 23 -44 -97 -134 rlinecurve
          -128 -173 -269 340 -8 10 -7 10 -8 9 rlinecurve
          249 72 135 107 144 vvcurveto
          163 -137 120 -259 -277 -167 -163 -208 -2 vhcurveto
          -1 -104 41 -96 86 -124 rrcurveto
          -261 -73 -157 -148 -216 vvcurveto
          576 883 rmoveto
          117 68 65 97 100 52 -85 -120 -121 -64 -106 -109 -66 vhcurveto
          -107 143 -37 87 86 vvcurveto
          -286 -747 rmoveto
          129 80 82 80 47 vhcurveto
          16 -22 19 -24 19 -24 328 -408 rcurveline
          -63 -74 -74 -30 -86 hhcurveto
          -173 -135 132 181 hvcurveto
          endchar
        </CharString>
        <CharString name="anoteleiagreek">
          510 428 686 rmoveto
          96 79 73 97 90 -71 72 -98 -96 -79 -73 -98 -89 72 -72 97 hvcurveto
          endchar
        </CharString>
        <CharString name="aogonek">
          1183 -3 callsubr
          -107 callsubr
          26 25 3 5 24 hvcurveto
          -209 -125 -75 -94 -99 vvcurveto
          -93 74 -58 109 96 79 48 67 40 vhcurveto
          10 48 rlineto
          -16 -21 -27 -10 -29 hhcurveto
          -45 -34 30 60 100 85 114 157 144 hvcurveto
          1 1 1 1 1 1 10 50 rcurveline
          -21 -28 -37 -12 -32 hhcurveto
          -47 -23 31 72 16 hvcurveto
          163 763 -189 0 -128 -110 rlineto
          65 -22 -80 64 -135 hhcurveto
          -310 -209 -305 -357 hvcurveto
          321 -36 rmoveto
          245 1 93 356 194 hhcurveto
          63 42 -33 -41 12 hvcurveto
          -105 -492 rlineto
          -149 -37 -76 -86 -77 hhcurveto
          -69 -41 56 144 hvcurveto
          endchar
        </CharString>
        <CharString name="approxequal">
          1228 1028 769 rmoveto
          -166 -108 223 -198 hhcurveto
          -150 -122 -103 -228 -39 hvcurveto
          85 -2 rlineto
          162 34 88 68 102 167 109 -224 196 hhcurveto
          145 123 102 227 39 hvcurveto
          -84 hlineto
          -157 -34 -89 -68 -98 hhcurveto
          -109 -511 rmoveto
          -166 -108 223 -198 hhcurveto
          -149 -123 -103 -228 -38 hvcurveto
          84 -1 rlineto
          161 34 88 68 103 167 109 -224 196 hhcurveto
          144 124 103 226 39 hvcurveto
          -85 hlineto
          -157 -33 -90 -68 -98 hhcurveto
          endchar
        </CharString>
        <CharString name="aring">
          1183 578 122 callsubr
          116 19 callsubr
          -137 44 callsubr
          61 43 24 59 callsubr
          -596 -903 -106 callsubr
          -107 callsubr
          -102 callsubr
        </CharString>
        <CharString name="aringacute">
          1183 1186 1480 -42 callgsubr
          18 callgsubr
          -149 -111 -52 -79 -17 hvcurveto
          -79 -16 88 -51 149 -4 callgsubr
          -11 -34 -35 -46 hhcurveto
          -664 -787 -106 callsubr
          -107 callsubr
          -102 callsubr
        </CharString>
        <CharString name="aringbelow">
          1183 -3 callsubr
          -107 callsubr
          33 callsubr
          -163 -608 rmoveto
          -103 1 119 -63 138 hhcurveto
          183 116 81 105 -3 hvcurveto
          104 -2 -118 62 -138 hhcurveto
          -184 -115 -81 -105 3 hvcurveto
          189 -33 rmoveto
          90 -2 46 80 61 hhcurveto
          43 26 -28 -55 2 hvcurveto
          -91 1 -46 -80 -61 hhcurveto
          -43 -25 28 56 -2 hvcurveto
          endchar
        </CharString>
        <CharString name="asciicircum">
          1240 883 1444 rmoveto
          -540 -585 60 -56 512 537 284 -536 72 54 -291 586 rlineto
          endchar
        </CharString>
        <CharString name="asciitilde">
          1228 973 514 rmoveto
          -165 -108 224 -199 hhcurveto
          -149 -122 -104 -228 -39 hvcurveto
          85 -1 rlineto
          161 34 87 68 103 168 108 -224 196 hhcurveto
          145 123 103 226 39 hvcurveto
          -84 hlineto
          -157 -34 -90 -68 -98 hhcurveto
          endchar
        </CharString>
        <CharString name="asterisk">
          849 714 1473 rmoveto
          -61 -38 -42 -75 -19 0 -20 4 -29 hvcurveto
          30 -185 14 0 109 185 rlineto
          23 40 8 30 25 vvcurveto
          53 -37 37 -52 vhcurveto
          -294 -129 rmoveto
          -56 -38 -44 -49 -46 29 -40 88 -26 hvcurveto
          186 -54 8 12 -88 154 rlineto
          71 -40 -48 22 -41 hhcurveto
          528 -56 rmoveto
          -43 -33 -16 -53 -60 hvcurveto
          -138 -124 5 -12 177 11 rlineto
          133 4 50 45 60 vvcurveto
          50 -37 35 -54 vhcurveto
          -589 -423 rmoveto
          42 33 18 51 60 hvcurveto
          138 125 -5 13 -176 -12 rlineto
          -132 -6 -50 -45 -59 vvcurveto
          -49 36 -36 54 vhcurveto
          622 37 rmoveto
          46 -29 42 -88 24 vhcurveto
          -186 55 -7 -12 87 -154 rlineto
          -72 40 49 -22 40 hhcurveto
          56 38 44 49 hvcurveto
          -388 -223 rmoveto
          61 38 43 75 19 -1 21 -4 28 hvcurveto
          -29 184 -14 0 -109 -184 rlineto
          -24 -41 -6 -29 -25 vvcurveto
          -53 36 -38 52 vhcurveto
          endchar
        </CharString>
        <CharString name="at">
          2066 1498 -308 rmoveto
          -2 51 rlineto
          -85 -133 -153 -22 -154 hhcurveto
          -421 -349 300 479 601 466 351 477 459 330 -275 -424 -361 -234 -208 -185 -81 -41 51 110 23 hvcurveto
          153 714 -133 0 -164 -132 rlineto
          92 -30 -73 58 -113 hhcurveto
          -273 -185 -305 -310 -206 89 -127 154 128 120 93 175 69 hvcurveto
          -4 -26 -4 -29 -15 vvcurveto
          -139 -11 90 -95 187 hhcurveto
          358 236 306 363 453 -369 303 -497 -523 -495 -381 -641 -513 384 -329 449 1 hvcurveto
          163 178 35 87 114 hvcurveto
          -526 677 rmoveto
          210 99 322 158 61 40 -45 -79 2 vhcurveto
          -78 -367 rlineto
          -120 -26 -77 -107 -85 hhcurveto
          -71 -23 76 110 hvcurveto
          endchar
        </CharString>
        <CharString name="atilde">
          1183 971 94 callsubr
          -37 hvcurveto
          -34 25 rlineto
          34 -47 -48 22 -60 hhcurveto
          -100 -81 -71 -239 -30 56 callgsubr
          47 -34 49 -24 59 1 rlinecurve
          -800 -799 -106 callsubr
          -107 callsubr
          -102 callsubr
        </CharString>
        <CharString name="austral">
          1336 84 395 rmoveto
          227 hlineto
          -69 -131 -89 -169 -42 -31 -100 -15 rlinecurve
          -11 -49 368 0 11 49 -112 16 -24 35 81 159 rlinecurve
          69 136 473 0 14 -157 11 -129 -22 -43 -126 -16 rlinecurve
          -10 -50 598 0 11 50 -85 12 -29 31 -16 145 rlinecurve
          -17 157 225 0 9 44 -239 0 -25 234 314 0 9 43 -328 0 -80 732 -210 0 -389 -732 -329 0 -9 -43 315 0 -124 -234 rlineto
          -241 hlineto
          465 277 rmoveto
          237 463 42 -463 rlineto
          -421 -277 rmoveto
          120 234 305 0 21 -234 rlineto
          endchar
        </CharString>
        <CharString name="austral.tnum">
          1266 99 437 rmoveto
          -9 -45 210 0 -65 -128 -85 -169 -42 -32 -90 -14 rlinecurve
          -11 -49 351 0 10 49 -108 16 -20 32 79 162 rlinecurve
          64 133 425 0 9 -154 8 -130 -21 -42 -120 -16 rlinecurve
          -11 -50 585 0 11 50 -76 11 -28 31 -12 146 rlinecurve
          -13 154 202 0 10 45 -216 0 -20 232 286 0 9 45 -298 0 -62 734 -220 0 -369 -734 -304 0 -9 -45 290 0 -117 -232 rlineto
          217 277 rmoveto
          222 458 28 -458 rlineto
          -384 -277 rmoveto
          112 232 274 0 14 -232 rlineto
          endchar
        </CharString>
        <CharString name="b">
          -62 callgsubr
          endchar
        </CharString>
        <CharString name="backslash">
          760 520 -291 rmoveto
          101 hlineto
          -104 1882 rlineto
          -101 hlineto
          endchar
        </CharString>
        <CharString name="baht">
          -10 callgsubr
          165 -139 113 -285 25 vhcurveto
          47 222 -43 0 -47 -219 rlineto
          1 -26 -27 1 -29 hhcurveto
          -525 hlineto
          -10 -49 rlineto
          108 -18 16 -21 -20 -91 -217 -1026 rcurveline
          -19 -90 -23 -22 -117 -18 -10 -49 rcurveline
          535 hlineto
          24 23 0 1 23 hvcurveto
          -47 -220 44 0 47 222 rlineto
          398 24 247 153 248 vvcurveto
          -564 900 rmoveto
          66 -3 rlineto
          32 -1 30 -5 26 -8 -116 -542 rcurveline
          -2 -16 -17 -1 -18 hhcurveto
          -106 -1 rlineto
          434 309 rmoveto
          -145 -81 -117 -150 -35 vhcurveto
          110 518 rlineto
          80 -40 41 -77 -104 vvcurveto
          -446 -365 rmoveto
          104 -2 rlineto
          18 -1 17 -2 16 -3 -135 -636 rcurveline
          -27 -4 -28 -2 -30 -1 -75 -2 rcurveline
          497 372 rmoveto
          -163 -85 -145 -207 -47 vhcurveto
          131 617 rlineto
          104 -37 57 -97 -128 vvcurveto
          endchar
        </CharString>
        <CharString name="baht.tnum">
          -8 callgsubr
          157 -132 110 -266 24 vhcurveto
          47 222 -43 0 -47 -219 rlineto
          1 -24 -25 1 -26 hhcurveto
          -495 hlineto
          -11 -49 rlineto
          100 -16 15 -23 -19 -91 -217 -1026 rcurveline
          -19 -90 -21 -23 -110 -17 -11 -49 rcurveline
          518 hlineto
          17 17 0 1 17 hvcurveto
          -47 -220 44 0 47 222 rlineto
          381 21 237 153 251 vvcurveto
          -525 900 rmoveto
          60 -2 rlineto
          30 -2 28 -5 24 -7 -116 -544 rcurveline
          -1 -14 -15 -1 -16 hhcurveto
          -101 -1 rlineto
          413 323 rmoveto
          -149 -77 -124 -144 -38 vhcurveto
          110 518 rlineto
          74 -38 37 -72 -97 vvcurveto
          -424 -379 rmoveto
          95 -2 rlineto
          17 -1 16 -2 15 -3 -136 -637 rcurveline
          -20 -3 -22 -2 -23 -1 -82 -2 rcurveline
          476 390 rmoveto
          -169 -89 -157 -194 -47 vhcurveto
          131 616 rlineto
          99 -37 53 -92 -114 vvcurveto
          endchar
        </CharString>
        <CharString name="bar">
          760 268 -291 rmoveto
          101 hlineto
          400 1882 rlineto
          -101 hlineto
          endchar
        </CharString>
        <CharString name="bdotaccent">
          1183 676 1596 rmoveto
          90 72 69 86 82 -64 64 -85 -89 -73 -69 -87 -81 64 -64 85 hvcurveto
          548 -953 195 callsubr
          endchar
        </CharString>
        <CharString name="bdotbelow">
          -62 callgsubr
          -356 -1098 -88 callsubr
          3 callsubr
        </CharString>
        <CharString name="becyrillic">
          1189 1215 544 rmoveto
          246 -162 198 -264 -222 -176 -133 -202 -85 vhcurveto
          12 -1 12 1 12 vhcurveto
          4 295 111 162 410 26 12 2 95 5 14 1 289 15 102 95 51 233 rrcurveto
          -50 hlineto
          -24 -51 -74 -19 -187 -9 rrcurveto
          -559 -24 -307 -408 -530 vvcurveto
          -325 172 -177 273 352 225 257 307 vhcurveto
          -314 133 rmoveto
          -255 -94 -378 -165 -90 -45 85 164 255 93 378 167 88 46 -85 -164 vhcurveto
          endchar
        </CharString>
        <CharString name="betagreek">
          1225 36 -460 rmoveto
          334 hlineto
          104 580 rlineto
          -80 47 112 -59 130 hhcurveto
          275 195 186 250 21 hvcurveto
          25 235 -123 193 -262 21 244 41 123 125 12 162 rrcurveto
          191 16 -141 124 -255 hhcurveto
          -299 -169 -163 -364 -79 hvcurveto
          343 165 rmoveto
          199 43 45 95 107 hhcurveto
          80 48 -70 -164 -14 hvcurveto
          -14 -180 -78 -123 -171 -7 rrcurveto
          -44 -213 174 -8 87 -100 -10 -197 rlinecurve
          -195 -10 -119 -105 -140 hhcurveto
          -80 -69 38 61 -39 hvcurveto
          40 204 149 699 15 66 rrcurveto
          endchar
        </CharString>
        <CharString name="bitcoin">
          -10 callgsubr
          140 -101 103 -205 43 vhcurveto
          51 239 -44 0 -50 -231 rlineto
          9 -59 -66 5 -75 hhcurveto
          -18 hlineto
          46 217 -43 0 -47 -217 -463 0 -10 -49 108 -18 16 -21 -20 -91 rlinecurve
          -217 -1026 -19 -90 -23 -22 -117 -18 rlinecurve
          -10 -49 462 0 -47 -219 44 0 47 219 rlineto
          29 hlineto
          68 65 3 7 60 hvcurveto
          -49 -229 45 0 49 235 rlineto
          325 46 196 145 221 vvcurveto
          -249 646 rmoveto
          -173 -116 -134 -212 -1 vhcurveto
          -106 -1 119 563 66 -3 rlineto
          165 -6 84 -96 -149 vvcurveto
          -89 -646 rmoveto
          -194 -120 -167 -302 -9 vhcurveto
          -75 -2 140 653 104 -2 rlineto
          162 -5 91 -112 -162 vvcurveto
          endchar
        </CharString>
        <CharString name="bitcoin.tnum">
          -8 callgsubr
          134 -96 99 -193 42 vhcurveto
          51 238 -44 0 -50 -230 rlineto
          8 -54 -62 5 -68 hhcurveto
          -34 hlineto
          46 217 -43 0 -47 -217 -417 0 -11 -49 100 -16 15 -23 -19 -91 rlinecurve
          -217 -1026 -19 -90 -21 -23 -110 -17 rlinecurve
          -11 -49 416 0 -46 -219 43 0 48 219 rlineto
          57 hlineto
          58 55 3 5 52 hvcurveto
          -49 -227 45 0 49 233 rlineto
          313 43 190 146 225 vvcurveto
          -232 660 rmoveto
          -178 -110 -143 -202 -1 vhcurveto
          -101 -1 120 563 60 -3 rlineto
          154 -9 79 -87 -141 vvcurveto
          -88 -642 rmoveto
          -198 -123 -180 -271 -9 vhcurveto
          -82 -3 140 653 95 -2 rlineto
          156 -7 85 -110 -144 vvcurveto
          endchar
        </CharString>
</ttFont>
